<svg width="695" height="44" viewBox="0 0 695 44" fill="none" xmlns="http://www.w3.org/2000/svg">
<mask id="path-1-outside-1_1854_680" maskUnits="userSpaceOnUse" x="-1" y="-1" width="697" height="46" fill="black">
<rect fill="white" x="-1" y="-1" width="697" height="46"/>
<path d="M12.8461 43H0.488104L14.4114 0.818181H30.0648L43.9881 43H31.6302L22.4029 12.4347H22.0733L12.8461 43ZM10.5392 26.358H33.7722V34.9261H10.5392V26.358ZM48.0508 43V0.818181H66.3406C69.5536 0.818181 72.2518 1.25071 74.435 2.11577C76.632 2.98082 78.2866 4.20289 79.3988 5.78196C80.5247 7.36103 81.0877 9.22159 81.0877 11.3636C81.0877 12.9152 80.7444 14.3295 80.0579 15.6065C79.3851 16.8835 78.4376 17.9545 77.2156 18.8196C75.9935 19.6709 74.5655 20.2614 72.9315 20.5909V21.0028C74.744 21.0715 76.3917 21.5315 77.8746 22.3828C79.3576 23.2204 80.5385 24.3807 81.4173 25.8636C82.296 27.3329 82.7354 29.063 82.7354 31.054C82.7354 33.3608 82.1313 35.4136 80.9229 37.2124C79.7283 39.0111 78.0257 40.4254 75.815 41.4553C73.6043 42.4851 70.9679 43 67.9059 43H48.0508ZM59.5025 33.8551H64.8576C66.7799 33.8551 68.2217 33.4981 69.1829 32.7841C70.1441 32.0563 70.6246 30.9853 70.6246 29.571C70.6246 28.5824 70.3981 27.7448 69.945 27.0582C69.4918 26.3717 68.8465 25.8499 68.0089 25.4929C67.185 25.1359 66.1895 24.9574 65.0224 24.9574H59.5025V33.8551ZM59.5025 17.8722H64.1985C65.2009 17.8722 66.0865 17.7143 66.8555 17.3984C67.6244 17.0826 68.2217 16.6295 68.6474 16.0391C69.0868 15.4349 69.3065 14.7003 69.3065 13.8352C69.3065 12.5308 68.8396 11.5353 67.9059 10.8487C66.9722 10.1484 65.7913 9.7983 64.3633 9.7983H59.5025V17.8722ZM127.657 21.9091C127.657 26.6051 126.743 30.5665 124.917 33.7933C123.091 37.0064 120.626 39.4437 117.523 41.1051C114.42 42.7528 110.96 43.5767 107.142 43.5767C103.298 43.5767 99.8237 42.746 96.7205 41.0845C93.631 39.4093 91.1732 36.9652 89.3469 33.7521C87.5344 30.5253 86.6282 26.5777 86.6282 21.9091C86.6282 17.2131 87.5344 13.2585 89.3469 10.0455C91.1732 6.81865 93.631 4.38139 96.7205 2.73366C99.8237 1.0722 103.298 0.241476 107.142 0.241476C110.96 0.241476 114.42 1.0722 117.523 2.73366C120.626 4.38139 123.091 6.81865 124.917 10.0455C126.743 13.2585 127.657 17.2131 127.657 21.9091ZM115.875 21.9091C115.875 19.3826 115.539 17.2543 114.866 15.5241C114.207 13.7803 113.225 12.4621 111.921 11.5696C110.63 10.6634 109.037 10.2102 107.142 10.2102C105.248 10.2102 103.648 10.6634 102.343 11.5696C101.053 12.4621 100.071 13.7803 99.3981 15.5241C98.739 17.2543 98.4094 19.3826 98.4094 21.9091C98.4094 24.4356 98.739 26.5708 99.3981 28.3146C100.071 30.0447 101.053 31.3629 102.343 32.2692C103.648 33.1617 105.248 33.608 107.142 33.608C109.037 33.608 110.63 33.1617 111.921 32.2692C113.225 31.3629 114.207 30.0447 114.866 28.3146C115.539 26.5708 115.875 24.4356 115.875 21.9091ZM157.918 0.818181H169.37V27.8409C169.37 31.054 168.601 33.8345 167.063 36.1825C165.539 38.5168 163.411 40.3224 160.678 41.5994C157.946 42.8627 154.774 43.4943 151.162 43.4943C147.524 43.4943 144.338 42.8627 141.606 41.5994C138.873 40.3224 136.745 38.5168 135.221 36.1825C133.71 33.8345 132.955 31.054 132.955 27.8409V0.818181H144.407V26.8523C144.407 28.1567 144.695 29.3239 145.272 30.3537C145.849 31.3698 146.645 32.1662 147.661 32.7429C148.691 33.3196 149.858 33.608 151.162 33.608C152.481 33.608 153.648 33.3196 154.664 32.7429C155.68 32.1662 156.476 31.3698 157.053 30.3537C157.63 29.3239 157.918 28.1567 157.918 26.8523V0.818181ZM173.659 10.0455V0.818181H210.321V10.0455H197.634V43H186.347V10.0455H173.659ZM226.268 43V34.7614L242.004 21.7443C243.047 20.8793 243.94 20.0691 244.681 19.3139C245.436 18.545 246.013 17.7554 246.411 16.9453C246.823 16.1352 247.029 15.2358 247.029 14.2472C247.029 13.1624 246.796 12.2356 246.329 11.4666C245.876 10.6977 245.244 10.1072 244.434 9.69531C243.624 9.26965 242.69 9.05682 241.633 9.05682C240.576 9.05682 239.642 9.26965 238.832 9.69531C238.035 10.121 237.418 10.7457 236.978 11.5696C236.539 12.3935 236.319 13.3958 236.319 14.5767H225.444C225.444 11.6108 226.11 9.05682 227.442 6.91477C228.774 4.77273 230.655 3.125 233.085 1.97159C235.516 0.818181 238.365 0.241476 241.633 0.241476C245.011 0.241476 247.936 0.783853 250.407 1.86861C252.892 2.93963 254.808 4.45005 256.154 6.39986C257.513 8.34967 258.193 10.6359 258.193 13.2585C258.193 14.8788 257.856 16.4922 257.183 18.0987C256.511 19.6915 255.302 21.456 253.558 23.392C251.815 25.3281 249.336 27.6349 246.123 30.3125L242.169 33.608V33.8551H258.646V43H226.268ZM262.446 36.4091V27.5114L279.417 0.818181H287.491V12.6818H282.878L273.733 27.1818V27.5114H298.778V36.4091H262.446ZM282.96 43V33.6903L283.207 29.8182V0.818181H293.917V43H282.96ZM378.281 16.6364H366.665C366.582 15.6752 366.363 14.8033 366.006 14.0206C365.662 13.2379 365.182 12.5651 364.564 12.0021C363.96 11.4254 363.225 10.986 362.36 10.6839C361.495 10.3681 360.513 10.2102 359.415 10.2102C357.492 10.2102 355.865 10.6771 354.533 11.6108C353.215 12.5445 352.213 13.8833 351.526 15.6271C350.853 17.371 350.517 19.465 350.517 21.9091C350.517 24.4905 350.86 26.6532 351.547 28.397C352.247 30.1271 353.256 31.4316 354.574 32.3104C355.893 33.1754 357.479 33.608 359.332 33.608C360.39 33.608 361.337 33.4775 362.175 33.2166C363.012 32.942 363.74 32.5507 364.358 32.0426C364.976 31.5346 365.477 30.9235 365.861 30.2095C366.26 29.4818 366.527 28.6648 366.665 27.7585L378.281 27.8409C378.144 29.6259 377.643 31.4453 376.778 33.299C375.912 35.139 374.684 36.8416 373.091 38.407C371.512 39.9586 369.555 41.2081 367.221 42.1555C364.886 43.103 362.175 43.5767 359.085 43.5767C355.213 43.5767 351.739 42.746 348.663 41.0845C345.601 39.4231 343.178 36.9789 341.393 33.7521C339.621 30.5253 338.736 26.5777 338.736 21.9091C338.736 17.2131 339.642 13.2585 341.454 10.0455C343.267 6.81865 345.711 4.38139 348.787 2.73366C351.863 1.0722 355.295 0.241476 359.085 0.241476C361.749 0.241476 364.2 0.605348 366.438 1.33309C368.676 2.06084 370.64 3.125 372.329 4.52557C374.018 5.9124 375.377 7.62192 376.407 9.65412C377.437 11.6863 378.061 14.0137 378.281 16.6364ZM393.131 43H380.773L394.697 0.818181H410.35L424.273 43H411.915L402.688 12.4347H402.358L393.131 43ZM390.824 26.358H414.057V34.9261H390.824V26.358ZM449.432 14C449.322 12.6269 448.807 11.5559 447.887 10.7869C446.981 10.018 445.601 9.63352 443.747 9.63352C442.566 9.63352 441.598 9.7777 440.843 10.066C440.102 10.3407 439.552 10.7183 439.195 11.1989C438.838 11.6794 438.653 12.2287 438.639 12.8466C438.612 13.3546 438.701 13.8146 438.907 14.2266C439.127 14.6248 439.47 14.9886 439.937 15.3182C440.404 15.634 441.001 15.9223 441.729 16.1832C442.457 16.4441 443.322 16.6776 444.324 16.8835L447.784 17.625C450.119 18.1193 452.116 18.7715 453.778 19.5817C455.439 20.3918 456.799 21.3461 457.856 22.4446C458.913 23.5294 459.689 24.7514 460.183 26.1108C460.691 27.4702 460.952 28.9531 460.966 30.5597C460.952 33.3333 460.259 35.6813 458.886 37.6037C457.513 39.526 455.549 40.9884 452.995 41.9908C450.455 42.9931 447.4 43.4943 443.83 43.4943C440.164 43.4943 436.964 42.9519 434.232 41.8672C431.513 40.7824 429.398 39.1141 427.888 36.8622C426.391 34.5966 425.636 31.6993 425.622 28.1705H436.497C436.566 29.4612 436.889 30.5459 437.465 31.4247C438.042 32.3035 438.852 32.9695 439.896 33.4226C440.953 33.8757 442.209 34.1023 443.665 34.1023C444.887 34.1023 445.91 33.9512 446.734 33.6491C447.558 33.3471 448.182 32.9283 448.608 32.3928C449.034 31.8572 449.253 31.2462 449.267 30.5597C449.253 29.9143 449.041 29.3513 448.629 28.8707C448.231 28.3764 447.571 27.937 446.651 27.5526C445.731 27.1544 444.489 26.7836 442.923 26.4403L438.722 25.5341C434.987 24.724 432.042 23.3714 429.886 21.4766C427.744 19.5679 426.68 16.9659 426.693 13.6705C426.68 10.9929 427.394 8.65175 428.835 6.64702C430.291 4.62855 432.302 3.05634 434.87 1.9304C437.452 0.804449 440.411 0.241476 443.747 0.241476C447.153 0.241476 450.098 0.811315 452.583 1.95099C455.069 3.09067 456.984 4.69721 458.33 6.7706C459.689 8.83025 460.376 11.2401 460.389 14H449.432ZM465.322 43V0.818181H476.774V17.2955H491.933V0.818181H503.385V43H491.933V26.5227H476.774V43H465.322ZM549.686 21.9091C549.686 26.6051 548.773 30.5665 546.947 33.7933C545.12 37.0064 542.656 39.4437 539.552 41.1051C536.449 42.7528 532.989 43.5767 529.172 43.5767C525.327 43.5767 521.853 42.746 518.75 41.0845C515.66 39.4093 513.202 36.9652 511.376 33.7521C509.564 30.5253 508.657 26.5777 508.657 21.9091C508.657 17.2131 509.564 13.2585 511.376 10.0455C513.202 6.81865 515.66 4.38139 518.75 2.73366C521.853 1.0722 525.327 0.241476 529.172 0.241476C532.989 0.241476 536.449 1.0722 539.552 2.73366C542.656 4.38139 545.12 6.81865 546.947 10.0455C548.773 13.2585 549.686 17.2131 549.686 21.9091ZM537.905 21.9091C537.905 19.3826 537.568 17.2543 536.895 15.5241C536.236 13.7803 535.255 12.4621 533.95 11.5696C532.659 10.6634 531.067 10.2102 529.172 10.2102C527.277 10.2102 525.677 10.6634 524.373 11.5696C523.082 12.4621 522.1 13.7803 521.427 15.5241C520.768 17.2543 520.439 19.3826 520.439 21.9091C520.439 24.4356 520.768 26.5708 521.427 28.3146C522.1 30.0447 523.082 31.3629 524.373 32.2692C525.677 33.1617 527.277 33.608 529.172 33.608C531.067 33.608 532.659 33.1617 533.95 32.2692C535.255 31.3629 536.236 30.0447 536.895 28.3146C537.568 26.5708 537.905 24.4356 537.905 21.9091ZM554.984 43V0.818181H584.643V10.0455H566.436V17.2955H582.831V26.5227H566.436V43H554.984ZM588.855 43V0.818181H618.515V10.0455H600.307V17.2955H616.702V26.5227H600.307V43H588.855ZM622.727 43V0.818181H653.127V10.0455H634.178V17.2955H651.562V26.5227H634.178V33.7727H653.045V43H622.727ZM658.807 43V0.818181H677.014C680.145 0.818181 682.884 1.38802 685.232 2.5277C687.58 3.66738 689.406 5.30824 690.711 7.45028C692.015 9.59233 692.667 12.16 692.667 15.1534C692.667 18.1742 691.995 20.7214 690.649 22.7947C689.317 24.8681 687.443 26.4335 685.026 27.4908C682.623 28.5481 679.815 29.0767 676.602 29.0767H665.727V20.179H674.295C675.641 20.179 676.787 20.0142 677.735 19.6847C678.696 19.3414 679.431 18.799 679.939 18.0575C680.461 17.3161 680.721 16.348 680.721 15.1534C680.721 13.9451 680.461 12.9633 679.939 12.2081C679.431 11.4392 678.696 10.8762 677.735 10.5192C676.787 10.1484 675.641 9.96307 674.295 9.96307H670.258V43H658.807ZM683.523 23.6392L694.068 43H681.628L671.329 23.6392H683.523Z"/>
<path d="M305.477 43L322.037 10.2102V9.96307H302.594V0.818181H333.901V9.96307L317.259 43H305.477Z"/>
</mask>
<path d="M12.8461 43H0.488104L14.4114 0.818181H30.0648L43.9881 43H31.6302L22.4029 12.4347H22.0733L12.8461 43ZM10.5392 26.358H33.7722V34.9261H10.5392V26.358ZM48.0508 43V0.818181H66.3406C69.5536 0.818181 72.2518 1.25071 74.435 2.11577C76.632 2.98082 78.2866 4.20289 79.3988 5.78196C80.5247 7.36103 81.0877 9.22159 81.0877 11.3636C81.0877 12.9152 80.7444 14.3295 80.0579 15.6065C79.3851 16.8835 78.4376 17.9545 77.2156 18.8196C75.9935 19.6709 74.5655 20.2614 72.9315 20.5909V21.0028C74.744 21.0715 76.3917 21.5315 77.8746 22.3828C79.3576 23.2204 80.5385 24.3807 81.4173 25.8636C82.296 27.3329 82.7354 29.063 82.7354 31.054C82.7354 33.3608 82.1313 35.4136 80.9229 37.2124C79.7283 39.0111 78.0257 40.4254 75.815 41.4553C73.6043 42.4851 70.9679 43 67.9059 43H48.0508ZM59.5025 33.8551H64.8576C66.7799 33.8551 68.2217 33.4981 69.1829 32.7841C70.1441 32.0563 70.6246 30.9853 70.6246 29.571C70.6246 28.5824 70.3981 27.7448 69.945 27.0582C69.4918 26.3717 68.8465 25.8499 68.0089 25.4929C67.185 25.1359 66.1895 24.9574 65.0224 24.9574H59.5025V33.8551ZM59.5025 17.8722H64.1985C65.2009 17.8722 66.0865 17.7143 66.8555 17.3984C67.6244 17.0826 68.2217 16.6295 68.6474 16.0391C69.0868 15.4349 69.3065 14.7003 69.3065 13.8352C69.3065 12.5308 68.8396 11.5353 67.9059 10.8487C66.9722 10.1484 65.7913 9.7983 64.3633 9.7983H59.5025V17.8722ZM127.657 21.9091C127.657 26.6051 126.743 30.5665 124.917 33.7933C123.091 37.0064 120.626 39.4437 117.523 41.1051C114.42 42.7528 110.96 43.5767 107.142 43.5767C103.298 43.5767 99.8237 42.746 96.7205 41.0845C93.631 39.4093 91.1732 36.9652 89.3469 33.7521C87.5344 30.5253 86.6282 26.5777 86.6282 21.9091C86.6282 17.2131 87.5344 13.2585 89.3469 10.0455C91.1732 6.81865 93.631 4.38139 96.7205 2.73366C99.8237 1.0722 103.298 0.241476 107.142 0.241476C110.96 0.241476 114.42 1.0722 117.523 2.73366C120.626 4.38139 123.091 6.81865 124.917 10.0455C126.743 13.2585 127.657 17.2131 127.657 21.9091ZM115.875 21.9091C115.875 19.3826 115.539 17.2543 114.866 15.5241C114.207 13.7803 113.225 12.4621 111.921 11.5696C110.63 10.6634 109.037 10.2102 107.142 10.2102C105.248 10.2102 103.648 10.6634 102.343 11.5696C101.053 12.4621 100.071 13.7803 99.3981 15.5241C98.739 17.2543 98.4094 19.3826 98.4094 21.9091C98.4094 24.4356 98.739 26.5708 99.3981 28.3146C100.071 30.0447 101.053 31.3629 102.343 32.2692C103.648 33.1617 105.248 33.608 107.142 33.608C109.037 33.608 110.63 33.1617 111.921 32.2692C113.225 31.3629 114.207 30.0447 114.866 28.3146C115.539 26.5708 115.875 24.4356 115.875 21.9091ZM157.918 0.818181H169.37V27.8409C169.37 31.054 168.601 33.8345 167.063 36.1825C165.539 38.5168 163.411 40.3224 160.678 41.5994C157.946 42.8627 154.774 43.4943 151.162 43.4943C147.524 43.4943 144.338 42.8627 141.606 41.5994C138.873 40.3224 136.745 38.5168 135.221 36.1825C133.71 33.8345 132.955 31.054 132.955 27.8409V0.818181H144.407V26.8523C144.407 28.1567 144.695 29.3239 145.272 30.3537C145.849 31.3698 146.645 32.1662 147.661 32.7429C148.691 33.3196 149.858 33.608 151.162 33.608C152.481 33.608 153.648 33.3196 154.664 32.7429C155.68 32.1662 156.476 31.3698 157.053 30.3537C157.63 29.3239 157.918 28.1567 157.918 26.8523V0.818181ZM173.659 10.0455V0.818181H210.321V10.0455H197.634V43H186.347V10.0455H173.659ZM226.268 43V34.7614L242.004 21.7443C243.047 20.8793 243.94 20.0691 244.681 19.3139C245.436 18.545 246.013 17.7554 246.411 16.9453C246.823 16.1352 247.029 15.2358 247.029 14.2472C247.029 13.1624 246.796 12.2356 246.329 11.4666C245.876 10.6977 245.244 10.1072 244.434 9.69531C243.624 9.26965 242.69 9.05682 241.633 9.05682C240.576 9.05682 239.642 9.26965 238.832 9.69531C238.035 10.121 237.418 10.7457 236.978 11.5696C236.539 12.3935 236.319 13.3958 236.319 14.5767H225.444C225.444 11.6108 226.11 9.05682 227.442 6.91477C228.774 4.77273 230.655 3.125 233.085 1.97159C235.516 0.818181 238.365 0.241476 241.633 0.241476C245.011 0.241476 247.936 0.783853 250.407 1.86861C252.892 2.93963 254.808 4.45005 256.154 6.39986C257.513 8.34967 258.193 10.6359 258.193 13.2585C258.193 14.8788 257.856 16.4922 257.183 18.0987C256.511 19.6915 255.302 21.456 253.558 23.392C251.815 25.3281 249.336 27.6349 246.123 30.3125L242.169 33.608V33.8551H258.646V43H226.268ZM262.446 36.4091V27.5114L279.417 0.818181H287.491V12.6818H282.878L273.733 27.1818V27.5114H298.778V36.4091H262.446ZM282.96 43V33.6903L283.207 29.8182V0.818181H293.917V43H282.96ZM378.281 16.6364H366.665C366.582 15.6752 366.363 14.8033 366.006 14.0206C365.662 13.2379 365.182 12.5651 364.564 12.0021C363.96 11.4254 363.225 10.986 362.36 10.6839C361.495 10.3681 360.513 10.2102 359.415 10.2102C357.492 10.2102 355.865 10.6771 354.533 11.6108C353.215 12.5445 352.213 13.8833 351.526 15.6271C350.853 17.371 350.517 19.465 350.517 21.9091C350.517 24.4905 350.86 26.6532 351.547 28.397C352.247 30.1271 353.256 31.4316 354.574 32.3104C355.893 33.1754 357.479 33.608 359.332 33.608C360.39 33.608 361.337 33.4775 362.175 33.2166C363.012 32.942 363.74 32.5507 364.358 32.0426C364.976 31.5346 365.477 30.9235 365.861 30.2095C366.26 29.4818 366.527 28.6648 366.665 27.7585L378.281 27.8409C378.144 29.6259 377.643 31.4453 376.778 33.299C375.912 35.139 374.684 36.8416 373.091 38.407C371.512 39.9586 369.555 41.2081 367.221 42.1555C364.886 43.103 362.175 43.5767 359.085 43.5767C355.213 43.5767 351.739 42.746 348.663 41.0845C345.601 39.4231 343.178 36.9789 341.393 33.7521C339.621 30.5253 338.736 26.5777 338.736 21.9091C338.736 17.2131 339.642 13.2585 341.454 10.0455C343.267 6.81865 345.711 4.38139 348.787 2.73366C351.863 1.0722 355.295 0.241476 359.085 0.241476C361.749 0.241476 364.2 0.605348 366.438 1.33309C368.676 2.06084 370.64 3.125 372.329 4.52557C374.018 5.9124 375.377 7.62192 376.407 9.65412C377.437 11.6863 378.061 14.0137 378.281 16.6364ZM393.131 43H380.773L394.697 0.818181H410.35L424.273 43H411.915L402.688 12.4347H402.358L393.131 43ZM390.824 26.358H414.057V34.9261H390.824V26.358ZM449.432 14C449.322 12.6269 448.807 11.5559 447.887 10.7869C446.981 10.018 445.601 9.63352 443.747 9.63352C442.566 9.63352 441.598 9.7777 440.843 10.066C440.102 10.3407 439.552 10.7183 439.195 11.1989C438.838 11.6794 438.653 12.2287 438.639 12.8466C438.612 13.3546 438.701 13.8146 438.907 14.2266C439.127 14.6248 439.47 14.9886 439.937 15.3182C440.404 15.634 441.001 15.9223 441.729 16.1832C442.457 16.4441 443.322 16.6776 444.324 16.8835L447.784 17.625C450.119 18.1193 452.116 18.7715 453.778 19.5817C455.439 20.3918 456.799 21.3461 457.856 22.4446C458.913 23.5294 459.689 24.7514 460.183 26.1108C460.691 27.4702 460.952 28.9531 460.966 30.5597C460.952 33.3333 460.259 35.6813 458.886 37.6037C457.513 39.526 455.549 40.9884 452.995 41.9908C450.455 42.9931 447.4 43.4943 443.83 43.4943C440.164 43.4943 436.964 42.9519 434.232 41.8672C431.513 40.7824 429.398 39.1141 427.888 36.8622C426.391 34.5966 425.636 31.6993 425.622 28.1705H436.497C436.566 29.4612 436.889 30.5459 437.465 31.4247C438.042 32.3035 438.852 32.9695 439.896 33.4226C440.953 33.8757 442.209 34.1023 443.665 34.1023C444.887 34.1023 445.91 33.9512 446.734 33.6491C447.558 33.3471 448.182 32.9283 448.608 32.3928C449.034 31.8572 449.253 31.2462 449.267 30.5597C449.253 29.9143 449.041 29.3513 448.629 28.8707C448.231 28.3764 447.571 27.937 446.651 27.5526C445.731 27.1544 444.489 26.7836 442.923 26.4403L438.722 25.5341C434.987 24.724 432.042 23.3714 429.886 21.4766C427.744 19.5679 426.68 16.9659 426.693 13.6705C426.68 10.9929 427.394 8.65175 428.835 6.64702C430.291 4.62855 432.302 3.05634 434.87 1.9304C437.452 0.804449 440.411 0.241476 443.747 0.241476C447.153 0.241476 450.098 0.811315 452.583 1.95099C455.069 3.09067 456.984 4.69721 458.33 6.7706C459.689 8.83025 460.376 11.2401 460.389 14H449.432ZM465.322 43V0.818181H476.774V17.2955H491.933V0.818181H503.385V43H491.933V26.5227H476.774V43H465.322ZM549.686 21.9091C549.686 26.6051 548.773 30.5665 546.947 33.7933C545.12 37.0064 542.656 39.4437 539.552 41.1051C536.449 42.7528 532.989 43.5767 529.172 43.5767C525.327 43.5767 521.853 42.746 518.75 41.0845C515.66 39.4093 513.202 36.9652 511.376 33.7521C509.564 30.5253 508.657 26.5777 508.657 21.9091C508.657 17.2131 509.564 13.2585 511.376 10.0455C513.202 6.81865 515.66 4.38139 518.75 2.73366C521.853 1.0722 525.327 0.241476 529.172 0.241476C532.989 0.241476 536.449 1.0722 539.552 2.73366C542.656 4.38139 545.12 6.81865 546.947 10.0455C548.773 13.2585 549.686 17.2131 549.686 21.9091ZM537.905 21.9091C537.905 19.3826 537.568 17.2543 536.895 15.5241C536.236 13.7803 535.255 12.4621 533.95 11.5696C532.659 10.6634 531.067 10.2102 529.172 10.2102C527.277 10.2102 525.677 10.6634 524.373 11.5696C523.082 12.4621 522.1 13.7803 521.427 15.5241C520.768 17.2543 520.439 19.3826 520.439 21.9091C520.439 24.4356 520.768 26.5708 521.427 28.3146C522.1 30.0447 523.082 31.3629 524.373 32.2692C525.677 33.1617 527.277 33.608 529.172 33.608C531.067 33.608 532.659 33.1617 533.95 32.2692C535.255 31.3629 536.236 30.0447 536.895 28.3146C537.568 26.5708 537.905 24.4356 537.905 21.9091ZM554.984 43V0.818181H584.643V10.0455H566.436V17.2955H582.831V26.5227H566.436V43H554.984ZM588.855 43V0.818181H618.515V10.0455H600.307V17.2955H616.702V26.5227H600.307V43H588.855ZM622.727 43V0.818181H653.127V10.0455H634.178V17.2955H651.562V26.5227H634.178V33.7727H653.045V43H622.727ZM658.807 43V0.818181H677.014C680.145 0.818181 682.884 1.38802 685.232 2.5277C687.58 3.66738 689.406 5.30824 690.711 7.45028C692.015 9.59233 692.667 12.16 692.667 15.1534C692.667 18.1742 691.995 20.7214 690.649 22.7947C689.317 24.8681 687.443 26.4335 685.026 27.4908C682.623 28.5481 679.815 29.0767 676.602 29.0767H665.727V20.179H674.295C675.641 20.179 676.787 20.0142 677.735 19.6847C678.696 19.3414 679.431 18.799 679.939 18.0575C680.461 17.3161 680.721 16.348 680.721 15.1534C680.721 13.9451 680.461 12.9633 679.939 12.2081C679.431 11.4392 678.696 10.8762 677.735 10.5192C676.787 10.1484 675.641 9.96307 674.295 9.96307H670.258V43H658.807ZM683.523 23.6392L694.068 43H681.628L671.329 23.6392H683.523Z" fill="white"/>
<path d="M305.477 43L322.037 10.2102V9.96307H302.594V0.818181H333.901V9.96307L317.259 43H305.477Z" fill="#BE302E"/>
<path d="M12.8461 43V44H13.5887L13.8034 43.289L12.8461 43ZM0.488098 43L-0.461502 42.6866L-0.895035 44H0.488098V43ZM14.4114 0.81818V-0.18182H13.6884L13.4618 0.504736L14.4114 0.81818ZM30.0648 0.81818L31.0144 0.504736L30.7878 -0.18182H30.0648V0.81818ZM43.9881 43V44H45.3712L44.9377 42.6866L43.9881 43ZM31.6302 43L30.6728 43.289L30.8875 44H31.6302V43ZM22.4029 12.4347L23.3602 12.1457L23.1456 11.4347H22.4029V12.4347ZM22.0733 12.4347V11.4347H21.3306L21.116 12.1457L22.0733 12.4347ZM10.5392 26.358V25.358H9.53925V26.358H10.5392ZM33.7722 26.358H34.7722V25.358H33.7722V26.358ZM33.7722 34.9261V35.9261H34.7722V34.9261H33.7722ZM10.5392 34.9261H9.53925V35.9261H10.5392V34.9261ZM12.8461 42H0.488098V44H12.8461V42ZM1.43771 43.3134L15.361 1.13163L13.4618 0.504736L-0.461502 42.6866L1.43771 43.3134ZM14.4114 1.81818H30.0648V-0.18182H14.4114V1.81818ZM29.1152 1.13163L43.0385 43.3134L44.9377 42.6866L31.0144 0.504736L29.1152 1.13163ZM43.9881 42H31.6302V44H43.9881V42ZM32.5875 42.711L23.3602 12.1457L21.4456 12.7237L30.6728 43.289L32.5875 42.711ZM22.4029 11.4347H22.0733V13.4347H22.4029V11.4347ZM21.116 12.1457L11.8887 42.711L13.8034 43.289L23.0307 12.7237L21.116 12.1457ZM10.5392 27.358H33.7722V25.358H10.5392V27.358ZM32.7722 26.358V34.9261H34.7722V26.358H32.7722ZM33.7722 33.9261H10.5392V35.9261H33.7722V33.9261ZM11.5392 34.9261V26.358H9.53925V34.9261H11.5392ZM48.0508 43H47.0508V44H48.0508V43ZM48.0508 0.81818V-0.18182H47.0508V0.81818H48.0508ZM74.435 2.11577L74.0667 3.04545L74.0686 3.04624L74.435 2.11577ZM79.3988 5.78196L78.5812 6.35781L78.5846 6.36253L79.3988 5.78196ZM80.0579 15.6065L79.1771 15.133L79.1732 15.1404L80.0579 15.6065ZM77.2156 18.8196L77.7872 19.6402L77.7933 19.6358L77.2156 18.8196ZM72.9315 20.5909L72.7338 19.6106L71.9315 19.7725V20.5909H72.9315ZM72.9315 21.0028H71.9315V21.9657L72.8936 22.0021L72.9315 21.0028ZM77.8746 22.3828L77.3768 23.2501L77.3829 23.2535L77.8746 22.3828ZM81.4173 25.8636L80.557 26.3734L80.5591 26.3769L81.4173 25.8636ZM80.9229 37.2124L80.0928 36.6547L80.0899 36.6591L80.9229 37.2124ZM75.815 41.4553L75.3927 40.5488L75.815 41.4553ZM59.5025 33.8551H58.5025V34.8551H59.5025V33.8551ZM69.1829 32.7841L69.7792 33.5869L69.7865 33.5813L69.1829 32.7841ZM68.0089 25.4929L67.6113 26.4105L67.6168 26.4128L68.0089 25.4929ZM59.5025 24.9574V23.9574H58.5025V24.9574H59.5025ZM59.5025 17.8722H58.5025V18.8722H59.5025V17.8722ZM66.8555 17.3984L67.2354 18.3235L66.8555 17.3984ZM68.6474 16.0391L67.8386 15.4509L67.8362 15.4543L68.6474 16.0391ZM67.9059 10.8487L67.3059 11.6488L67.3135 11.6544L67.9059 10.8487ZM59.5025 9.7983V8.7983H58.5025V9.7983H59.5025ZM49.0508 43V0.81818H47.0508V43H49.0508ZM48.0508 1.81818H66.3406V-0.18182H48.0508V1.81818ZM66.3406 1.81818C69.4709 1.81818 72.0352 2.24053 74.0667 3.04545L74.8034 1.18609C72.4684 0.260887 69.6364 -0.18182 66.3406 -0.18182V1.81818ZM74.0686 3.04624C76.1246 3.85575 77.6044 4.97088 78.5812 6.35781L80.2164 5.20611C78.9688 3.43489 77.1394 2.1059 74.8014 1.1853L74.0686 3.04624ZM78.5846 6.36253C79.5771 7.75447 80.0877 9.40694 80.0877 11.3636H82.0877C82.0877 9.03624 81.4724 6.96759 80.213 5.20139L78.5846 6.36253ZM80.0877 11.3636C80.0877 12.7619 79.7799 14.0117 79.1771 15.133L80.9387 16.0801C81.7089 14.6473 82.0877 13.0686 82.0877 11.3636H80.0877ZM79.1732 15.1404C78.5765 16.2729 77.7364 17.2257 76.6378 18.0034L77.7933 19.6358C79.1389 18.6833 80.1936 17.4941 80.9426 16.0727L79.1732 15.1404ZM76.644 17.9991C75.547 18.7633 74.2495 19.3049 72.7338 19.6106L73.1292 21.5712C74.8814 21.2178 76.44 20.5786 77.7872 19.6401L76.644 17.9991ZM71.9315 20.5909V21.0028H73.9315V20.5909H71.9315ZM72.8936 22.0021C74.5545 22.065 76.0427 22.4842 77.3768 23.2501L78.3725 21.5156C76.7406 20.5787 74.9335 20.078 72.9693 20.0036L72.8936 22.0021ZM77.3829 23.2535C78.7116 24.004 79.7662 25.039 80.557 26.3734L82.2776 25.3538C81.3107 23.7223 80.0036 22.4368 78.3664 21.5121L77.3829 23.2535ZM80.5591 26.3769C81.3308 27.6673 81.7354 29.2139 81.7354 31.054H83.7354C83.7354 28.9121 83.2613 26.9985 82.2755 25.3503L80.5591 26.3769ZM81.7354 31.054C81.7354 33.1757 81.1831 35.0317 80.0928 36.6547L81.753 37.77C83.0794 35.7955 83.7354 33.5459 83.7354 31.054H81.7354ZM80.0899 36.6591C79.0098 38.2855 77.4587 39.5864 75.3927 40.5488L76.2373 42.3617C78.5927 41.2645 80.4469 39.7368 81.756 37.7656L80.0899 36.6591ZM75.3927 40.5488C73.3436 41.5034 70.8582 42 67.9059 42V44C71.0776 44 73.865 43.4668 76.2373 42.3617L75.3927 40.5488ZM67.9059 42H48.0508V44H67.9059V42ZM59.5025 34.8551H64.8576V32.8551H59.5025V34.8551ZM64.8576 34.8551C66.8746 34.8551 68.5692 34.4857 69.7792 33.5868L68.5866 31.9813C67.8742 32.5105 66.6853 32.8551 64.8576 32.8551V34.8551ZM69.7865 33.5813C71.0425 32.6304 71.6246 31.2372 71.6246 29.571H69.6246C69.6246 30.7334 69.2457 31.4823 68.5792 31.9868L69.7865 33.5813ZM71.6246 29.571C71.6246 28.4266 71.3607 27.3879 70.7796 26.5074L69.1104 27.6091C69.4355 28.1017 69.6246 28.7382 69.6246 29.571H71.6246ZM70.7796 26.5074C70.2069 25.6398 69.399 24.9984 68.401 24.573L67.6168 26.4128C68.2939 26.7014 68.7767 27.1036 69.1104 27.6091L70.7796 26.5074ZM68.4065 24.5753C67.4256 24.1503 66.2871 23.9574 65.0224 23.9574V25.9574C66.0919 25.9574 66.9445 26.1215 67.6113 26.4105L68.4065 24.5753ZM65.0224 23.9574H59.5025V25.9574H65.0224V23.9574ZM58.5025 24.9574V33.8551H60.5025V24.9574H58.5025ZM59.5025 18.8722H64.1985V16.8722H59.5025V18.8722ZM64.1985 18.8722C65.305 18.8722 66.3238 18.6978 67.2354 18.3235L66.4756 16.4734C65.8492 16.7307 65.0968 16.8722 64.1985 16.8722V18.8722ZM67.2354 18.3235C68.1519 17.947 68.9089 17.3863 69.4585 16.6239L67.8362 15.4543C67.5346 15.8727 67.0969 16.2182 66.4756 16.4734L67.2354 18.3235ZM69.4561 16.6272C70.0387 15.8262 70.3065 14.877 70.3065 13.8352H68.3065C68.3065 14.5235 68.1348 15.0436 67.8386 15.4509L69.4561 16.6272ZM70.3065 13.8352C70.3065 12.2586 69.7232 10.9437 68.4983 10.0431L67.3135 11.6544C67.9561 12.1268 68.3065 12.8029 68.3065 13.8352H70.3065ZM68.5059 10.0487C67.3633 9.19179 65.9583 8.7983 64.3633 8.7983V10.7983C65.6244 10.7983 66.581 11.1051 67.3059 11.6487L68.5059 10.0487ZM64.3633 8.7983H59.5025V10.7983H64.3633V8.7983ZM58.5025 9.7983V17.8722H60.5025V9.7983H58.5025ZM124.917 33.7933L125.787 34.2875L125.788 34.2859L124.917 33.7933ZM117.523 41.1051L117.992 41.9883L117.995 41.9867L117.523 41.1051ZM96.7205 41.0845L96.2439 41.9636L96.2485 41.9661L96.7205 41.0845ZM89.3469 33.7521L88.4751 34.2419L88.4776 34.2463L89.3469 33.7521ZM89.3469 10.0455L88.4767 9.55291L88.476 9.55413L89.3469 10.0455ZM96.7205 2.73366L97.1911 3.61602L97.1925 3.61526L96.7205 2.73366ZM117.523 2.73366L117.051 3.61526L117.054 3.61688L117.523 2.73366ZM124.917 10.0455L124.047 10.538L124.048 10.5396L124.917 10.0455ZM114.866 15.5241L113.931 15.8777L113.934 15.8866L114.866 15.5241ZM111.921 11.5696L111.346 12.3881L111.356 12.3949L111.921 11.5696ZM102.343 11.5696L102.912 12.3921L102.914 12.3909L102.343 11.5696ZM99.3981 15.5241L98.4651 15.1642L98.4636 15.1682L99.3981 15.5241ZM99.3981 28.3146L98.4626 28.6682L98.4661 28.6771L99.3981 28.3146ZM102.343 32.2692L101.769 33.0877L101.779 33.0945L102.343 32.2692ZM111.921 32.2692L112.49 33.0917L112.491 33.0904L111.921 32.2692ZM114.866 28.3146L113.933 27.9547L113.932 27.9586L114.866 28.3146ZM126.657 21.9091C126.657 26.4777 125.768 30.2592 124.047 33.3008L125.788 34.2859C127.719 30.8739 128.657 26.7325 128.657 21.9091H126.657ZM124.048 33.2992C122.31 36.3568 119.979 38.6557 117.051 40.2235L117.995 41.9867C121.273 40.2316 123.872 37.656 125.787 34.2875L124.048 33.2992ZM117.054 40.2219C114.108 41.7864 110.811 42.5767 107.142 42.5767V44.5767C111.109 44.5767 114.732 43.7193 117.992 41.9883L117.054 40.2219ZM107.142 42.5767C103.447 42.5767 100.137 41.7796 97.1925 40.2029L96.2485 41.9661C99.51 43.7123 103.149 44.5767 107.142 44.5767V42.5767ZM97.1972 40.2054C94.2807 38.624 91.9552 36.3173 90.2163 33.258L88.4776 34.2463C90.3912 37.6131 92.9814 40.1946 96.2439 41.9636L97.1972 40.2054ZM90.2188 33.2624C88.5096 30.2194 87.6282 26.4502 87.6282 21.9091H85.6282C85.6282 26.7051 86.5593 30.8313 88.4751 34.2419L90.2188 33.2624ZM87.6282 21.9091C87.6282 17.3392 88.5101 13.5643 90.2179 10.5368L88.476 9.55413C86.5588 12.9527 85.6282 17.087 85.6282 21.9091H87.6282ZM90.2172 10.538C91.9557 7.46625 94.2792 5.16903 97.1911 3.61602L96.2499 1.85131C92.9829 3.59375 90.3906 6.17106 88.4767 9.55291L90.2172 10.538ZM97.1925 3.61526C100.137 2.03855 103.447 1.24148 107.142 1.24148V-0.758524C103.149 -0.758524 99.51 0.10586 96.2485 1.85207L97.1925 3.61526ZM107.142 1.24148C110.809 1.24148 114.105 2.03799 117.051 3.61526L117.995 1.85207C114.735 0.106418 111.11 -0.758524 107.142 -0.758524V1.24148ZM117.054 3.61688C119.98 5.17023 122.309 7.46738 124.047 10.538L125.788 9.55291C123.873 6.16993 121.273 3.59255 117.992 1.85045L117.054 3.61688ZM124.048 10.5396C125.768 13.5665 126.657 17.3403 126.657 21.9091H128.657C128.657 17.0858 127.719 12.9505 125.787 9.55132L124.048 10.5396ZM116.875 21.9091C116.875 19.3005 116.529 17.0409 115.798 15.1617L113.934 15.8866C114.549 17.4677 114.875 19.4647 114.875 21.9091H116.875ZM115.802 15.1706C115.083 13.2705 113.988 11.772 112.486 10.7443L111.356 12.3949C112.463 13.1522 113.331 14.2901 113.931 15.8777L115.802 15.1706ZM112.495 10.7512C111.005 9.70459 109.201 9.21023 107.142 9.21023V11.2102C108.874 11.2102 110.255 11.6221 111.346 12.388L112.495 10.7512ZM107.142 9.21023C105.084 9.21023 103.275 9.70472 101.773 10.7483L102.914 12.3909C104.021 11.622 105.411 11.2102 107.142 11.2102V9.21023ZM101.775 10.7471C100.289 11.7741 99.1961 13.2696 98.4651 15.1642L100.331 15.8841C100.946 14.291 101.816 13.1501 102.912 12.3921L101.775 10.7471ZM98.4636 15.1682C97.7486 17.0451 97.4095 19.3023 97.4095 21.9091H99.4095C99.4095 19.4628 99.7294 17.4634 100.333 15.8801L98.4636 15.1682ZM97.4095 21.9091C97.4095 24.5162 97.7487 26.7791 98.4627 28.6682L100.333 27.9611C99.7293 26.3625 99.4095 24.355 99.4095 21.9091H97.4095ZM98.4661 28.6771C99.1975 30.5579 100.29 32.049 101.769 33.0876L102.918 31.4508C101.816 30.6768 100.944 29.5316 100.33 27.9522L98.4661 28.6771ZM101.779 33.0945C103.28 34.1218 105.087 34.608 107.142 34.608V32.608C105.408 32.608 104.015 32.2015 102.908 31.4439L101.779 33.0945ZM107.142 34.608C109.198 34.608 111 34.122 112.49 33.0917L111.352 31.4467C110.261 32.2014 108.877 32.608 107.142 32.608V34.608ZM112.491 33.0904C113.987 32.0512 115.082 30.5569 115.801 28.6706L113.932 27.9586C113.332 29.5326 112.463 30.6747 111.35 31.4479L112.491 33.0904ZM115.799 28.6746C116.529 26.7833 116.875 24.5181 116.875 21.9091H114.875C114.875 24.3531 114.549 26.3583 113.933 27.9547L115.799 28.6746ZM157.918 0.81818V-0.18182H156.918V0.81818H157.918ZM169.37 0.81818H170.37V-0.18182H169.37V0.81818ZM167.063 36.1825L166.227 35.6346L166.226 35.6358L167.063 36.1825ZM160.678 41.5994L161.098 42.5071L161.101 42.5054L160.678 41.5994ZM141.606 41.5994L141.182 42.5054L141.186 42.5071L141.606 41.5994ZM135.221 36.1825L134.38 36.7235L134.383 36.7292L135.221 36.1825ZM132.955 0.81818V-0.18182H131.955V0.81818H132.955ZM144.407 0.81818H145.407V-0.18182H144.407V0.81818ZM145.272 30.3537L144.399 30.8423L144.402 30.8473L145.272 30.3537ZM147.661 32.7429L147.167 33.6126L147.172 33.6154L147.661 32.7429ZM154.664 32.7429L155.158 33.6126L154.664 32.7429ZM157.053 30.3537L157.923 30.8473L157.926 30.8423L157.053 30.3537ZM157.918 1.81818H169.37V-0.18182H157.918V1.81818ZM168.37 0.81818V27.8409H170.37V0.81818H168.37ZM168.37 27.8409C168.37 30.8883 167.643 33.4721 166.227 35.6346L167.9 36.7304C169.559 34.197 170.37 31.2197 170.37 27.8409H168.37ZM166.226 35.6358C164.812 37.8014 162.833 39.4886 160.255 40.6935L161.101 42.5054C163.988 41.1562 166.266 39.2322 167.9 36.7292L166.226 35.6358ZM160.258 40.6917C157.681 41.8833 154.657 42.4943 151.162 42.4943V44.4943C154.89 44.4943 158.21 43.8421 161.098 42.5071L160.258 40.6917ZM151.162 42.4943C147.639 42.4943 144.602 41.8828 142.025 40.6917L141.186 42.5071C144.075 43.8425 147.409 44.4943 151.162 44.4943V42.4943ZM142.029 40.6935C139.451 39.4886 137.472 37.8014 136.058 35.6358L134.383 36.7292C136.018 39.2322 138.295 41.1562 141.182 42.5054L142.029 40.6935ZM136.062 35.6415C134.67 33.4781 133.955 30.8918 133.955 27.8409H131.955C131.955 31.2162 132.751 34.1909 134.38 36.7235L136.062 35.6415ZM133.955 27.8409V0.81818H131.955V27.8409H133.955ZM132.955 1.81818H144.407V-0.18182H132.955V1.81818ZM143.407 0.81818V26.8523H145.407V0.81818H143.407ZM143.407 26.8523C143.407 28.3094 143.73 29.6479 144.399 30.8423L146.144 29.8651C145.66 28.9998 145.407 28.004 145.407 26.8523H143.407ZM144.402 30.8473C145.068 32.0204 145.994 32.9468 147.167 33.6126L148.155 31.8732C147.296 31.3856 146.629 30.7192 146.142 29.8601L144.402 30.8473ZM147.172 33.6154C148.367 34.2843 149.705 34.608 151.162 34.608V32.608C150.011 32.608 149.015 32.3549 148.15 31.8704L147.172 33.6154ZM151.162 34.608C152.631 34.608 153.972 34.2852 155.158 33.6126L154.17 31.8732C153.323 32.354 152.33 32.608 151.162 32.608V34.608ZM155.158 33.6126C156.331 32.9468 157.257 32.0204 157.923 30.8473L156.183 29.8601C155.696 30.7192 155.029 31.3856 154.17 31.8732L155.158 33.6126ZM157.926 30.8423C158.594 29.6479 158.918 28.3094 158.918 26.8523H156.918C156.918 28.004 156.665 28.9998 156.181 29.8651L157.926 30.8423ZM158.918 26.8523V0.81818H156.918V26.8523H158.918ZM173.659 10.0455H172.659V11.0455H173.659V10.0455ZM173.659 0.81818V-0.18182H172.659V0.81818H173.659ZM210.321 0.81818H211.321V-0.18182H210.321V0.81818ZM210.321 10.0455V11.0455H211.321V10.0455H210.321ZM197.634 10.0455V9.04545H196.634V10.0455H197.634ZM197.634 43V44H198.634V43H197.634ZM186.347 43H185.347V44H186.347V43ZM186.347 10.0455H187.347V9.04545H186.347V10.0455ZM174.659 10.0455V0.81818H172.659V10.0455H174.659ZM173.659 1.81818H210.321V-0.18182H173.659V1.81818ZM209.321 0.81818V10.0455H211.321V0.81818H209.321ZM210.321 9.04545H197.634V11.0455H210.321V9.04545ZM196.634 10.0455V43H198.634V10.0455H196.634ZM197.634 42H186.347V44H197.634V42ZM187.347 43V10.0455H185.347V43H187.347ZM186.347 9.04545H173.659V11.0455H186.347V9.04545ZM226.268 43H225.268V44H226.268V43ZM226.268 34.7614L225.631 33.9908L225.268 34.2908V34.7614H226.268ZM242.004 21.7443L242.641 22.5149L242.642 22.5142L242.004 21.7443ZM244.681 19.3139L243.968 18.6132L243.968 18.6133L244.681 19.3139ZM246.411 16.9453L245.52 16.492L245.514 16.5042L246.411 16.9453ZM246.329 11.4666L245.467 11.9744L245.474 11.9856L246.329 11.4666ZM244.434 9.69531L243.969 10.5806L243.981 10.5867L244.434 9.69531ZM238.832 9.69531L238.367 8.81005L238.36 8.81338L238.832 9.69531ZM236.978 11.5696L236.096 11.099L236.978 11.5696ZM236.319 14.5767V15.5767H237.319V14.5767H236.319ZM225.444 14.5767H224.444V15.5767H225.444V14.5767ZM227.442 6.91477L226.593 6.38673L227.442 6.91477ZM233.085 1.97159L233.514 2.87502L233.085 1.97159ZM250.407 1.86861L250.005 2.78432L250.011 2.78696L250.407 1.86861ZM256.154 6.39986L255.331 6.96787L255.333 6.97177L256.154 6.39986ZM257.183 18.0987L258.105 18.4878L258.106 18.485L257.183 18.0987ZM253.558 23.392L254.301 24.0613L253.558 23.392ZM246.123 30.3125L246.763 31.0807L246.123 30.3125ZM242.168 33.608L241.528 32.8397L241.168 33.1396V33.608H242.168ZM242.168 33.8551H241.168V34.8551H242.168V33.8551ZM258.646 33.8551H259.646V32.8551H258.646V33.8551ZM258.646 43V44H259.646V43H258.646ZM227.268 43V34.7614H225.268V43H227.268ZM226.905 35.5319L242.641 22.5148L241.366 20.9738L225.631 33.9908L226.905 35.5319ZM242.642 22.5142C243.705 21.6331 244.624 20.7997 245.395 20.0145L243.968 18.6133C243.256 19.3385 242.39 20.1255 241.366 20.9744L242.642 22.5142ZM245.395 20.0146C246.211 19.1839 246.855 18.3089 247.309 17.3864L245.514 16.5042C245.171 17.202 244.662 17.9061 243.968 18.6132L245.395 20.0146ZM247.303 17.3986C247.792 16.436 248.029 15.3792 248.029 14.2472H246.029C246.029 15.0924 245.854 15.8344 245.52 16.4921L247.303 17.3986ZM248.029 14.2472C248.029 13.0172 247.764 11.9025 247.184 10.9476L245.474 11.9856C245.828 12.5686 246.029 13.3076 246.029 14.2472H248.029ZM247.191 10.9589C246.639 10.0226 245.864 9.30056 244.887 8.80393L243.981 10.5867C244.624 10.9139 245.113 11.3727 245.467 11.9743L247.191 10.9589ZM244.899 8.81007C243.925 8.29808 242.827 8.05682 241.633 8.05682V10.0568C242.554 10.0568 243.323 10.2412 243.969 10.5806L244.899 8.81007ZM241.633 8.05682C240.439 8.05682 239.341 8.29808 238.367 8.81007L239.297 10.5806C239.943 10.2412 240.712 10.0568 241.633 10.0568V8.05682ZM238.36 8.81338C237.383 9.33573 236.625 10.1066 236.096 11.099L237.861 12.0402C238.21 11.3848 238.688 10.9062 239.303 10.5772L238.36 8.81338ZM236.096 11.099C235.561 12.1011 235.319 13.2742 235.319 14.5767H237.319C237.319 13.5175 237.516 12.6859 237.861 12.0402L236.096 11.099ZM236.319 13.5767H225.444V15.5767H236.319V13.5767ZM226.444 14.5767C226.444 11.7641 227.074 9.40029 228.291 7.44281L226.593 6.38673C225.146 8.71334 224.444 11.4574 224.444 14.5767H226.444ZM228.291 7.44281C229.515 5.47461 231.245 3.95193 233.514 2.87502L232.657 1.06816C230.065 2.29807 228.033 4.07085 226.593 6.38673L228.291 7.44281ZM233.514 2.87502C235.785 1.79737 238.482 1.24148 241.633 1.24148V-0.758524C238.248 -0.758524 235.247 -0.161008 232.657 1.06816L233.514 2.87502ZM241.633 1.24148C244.906 1.24148 247.688 1.76725 250.005 2.7843L250.809 0.952918C248.183 -0.199547 245.115 -0.758524 241.633 -0.758524V1.24148ZM250.011 2.78696C252.349 3.79448 254.106 5.19373 255.331 6.96786L256.977 5.83185C255.51 3.70637 253.436 2.08478 250.803 0.950252L250.011 2.78696ZM255.333 6.97177C256.564 8.73654 257.193 10.8183 257.193 13.2585H259.193C259.193 10.4535 258.462 7.9628 256.974 5.82795L255.333 6.97177ZM257.193 13.2585C257.193 14.7365 256.887 16.219 256.261 17.7124L258.106 18.485C258.826 16.7654 259.193 15.0211 259.193 13.2585H257.193ZM256.262 17.7096C255.649 19.1617 254.519 20.8319 252.815 22.7228L254.301 24.0613C256.086 22.0801 257.372 20.2214 258.105 18.4878L256.262 17.7096ZM252.815 22.7228C251.117 24.6089 248.678 26.8813 245.483 29.5443L246.763 31.0807C249.994 28.3885 252.513 26.0474 254.301 24.0613L252.815 22.7228ZM245.483 29.5443L241.528 32.8397L242.809 34.3762L246.763 31.0807L245.483 29.5443ZM241.168 33.608V33.8551H243.168V33.608H241.168ZM242.168 34.8551H258.646V32.8551H242.168V34.8551ZM257.646 33.8551V43H259.646V33.8551H257.646ZM258.646 42H226.268V44H258.646V42ZM262.446 36.4091H261.446V37.4091H262.446V36.4091ZM262.446 27.5114L261.602 26.9748L261.446 27.2204V27.5114H262.446ZM279.417 0.81818V-0.18182H278.868L278.574 0.281642L279.417 0.81818ZM287.491 0.81818H288.491V-0.18182H287.491V0.81818ZM287.491 12.6818V13.6818H288.491V12.6818H287.491ZM282.878 12.6818V11.6818H282.326L282.032 12.1484L282.878 12.6818ZM273.733 27.1818L272.887 26.6484L272.733 26.8928V27.1818H273.733ZM273.733 27.5114H272.733V28.5114H273.733V27.5114ZM298.778 27.5114H299.778V26.5114H298.778V27.5114ZM298.778 36.4091V37.4091H299.778V36.4091H298.778ZM282.96 43H281.96V44H282.96V43ZM282.96 33.6903L281.962 33.6266L281.96 33.6585V33.6903H282.96ZM283.207 29.8182L284.205 29.8819L284.207 29.8501V29.8182H283.207ZM283.207 0.81818V-0.18182H282.207V0.81818H283.207ZM293.917 0.81818H294.917V-0.18182H293.917V0.81818ZM293.917 43V44H294.917V43H293.917ZM263.446 36.4091V27.5114H261.446V36.4091H263.446ZM263.29 28.0479L280.261 1.35472L278.574 0.281642L261.602 26.9748L263.29 28.0479ZM279.417 1.81818H287.491V-0.18182H279.417V1.81818ZM286.491 0.81818V12.6818H288.491V0.81818H286.491ZM287.491 11.6818H282.878V13.6818H287.491V11.6818ZM282.032 12.1484L272.887 26.6484L274.579 27.7153L283.723 13.2153L282.032 12.1484ZM272.733 27.1818V27.5114H274.733V27.1818H272.733ZM273.733 28.5114H298.778V26.5114H273.733V28.5114ZM297.778 27.5114V36.4091H299.778V27.5114H297.778ZM298.778 35.4091H262.446V37.4091H298.778V35.4091ZM283.96 43V33.6903H281.96V43H283.96ZM283.958 33.754L284.205 29.8819L282.209 29.7545L281.962 33.6266L283.958 33.754ZM284.207 29.8182V0.81818H282.207V29.8182H284.207ZM283.207 1.81818H293.917V-0.18182H283.207V1.81818ZM292.917 0.81818V43H294.917V0.81818H292.917ZM293.917 42H282.96V44H293.917V42ZM305.477 43L304.585 42.5492L303.852 44H305.477V43ZM322.037 10.2102L322.93 10.661L323.037 10.4484V10.2102H322.037ZM322.037 9.96307H323.037V8.96307H322.037V9.96307ZM302.594 9.96307H301.594V10.9631H302.594V9.96307ZM302.594 0.81818V-0.18182H301.594V0.81818H302.594ZM333.901 0.81818H334.901V-0.18182H333.901V0.81818ZM333.901 9.96307L334.794 10.413L334.901 10.2007V9.96307H333.901ZM317.259 43V44H317.874L318.152 43.4499L317.259 43ZM306.37 43.4508L322.93 10.661L321.144 9.75943L304.585 42.5492L306.37 43.4508ZM323.037 10.2102V9.96307H321.037V10.2102H323.037ZM322.037 8.96307H302.594V10.9631H322.037V8.96307ZM303.594 9.96307V0.81818H301.594V9.96307H303.594ZM302.594 1.81818H333.901V-0.18182H302.594V1.81818ZM332.901 0.81818V9.96307H334.901V0.81818H332.901ZM333.007 9.51318L316.365 42.5501L318.152 43.4499L334.794 10.413L333.007 9.51318ZM317.259 42H305.477V44H317.259V42ZM378.281 16.6364V17.6364H379.368L379.278 16.5529L378.281 16.6364ZM366.665 16.6364L365.668 16.7218L365.747 17.6364H366.665V16.6364ZM366.005 14.0206L365.09 14.4223L365.093 14.4289L365.096 14.4356L366.005 14.0206ZM364.564 12.0021L363.873 12.7255L363.882 12.7335L363.89 12.7413L364.564 12.0021ZM362.36 10.6839L362.017 11.6234L362.03 11.628L362.36 10.6839ZM354.533 11.6108L353.959 10.792L353.955 10.7948L354.533 11.6108ZM351.526 15.6271L350.596 15.2608L350.593 15.2672L351.526 15.6271ZM351.547 28.397L350.616 28.7634L350.62 28.7722L351.547 28.397ZM354.574 32.3104L354.02 33.1424L354.026 33.1464L354.574 32.3104ZM362.175 33.2166L362.472 34.1714L362.479 34.1692L362.486 34.1668L362.175 33.2166ZM364.358 32.0426L364.993 32.815V32.815L364.358 32.0426ZM365.861 30.2095L364.984 29.7295L364.981 29.7354L365.861 30.2095ZM366.665 27.7585L366.672 26.7585L365.806 26.7524L365.676 27.6087L366.665 27.7585ZM378.281 27.8409L379.278 27.9176L379.36 26.8485L378.288 26.8409L378.281 27.8409ZM376.778 33.299L377.682 33.7245L377.684 33.7219L376.778 33.299ZM373.091 38.407L373.792 39.1202L373.792 39.1202L373.091 38.407ZM367.221 42.1555L366.845 41.229L367.221 42.1555ZM348.663 41.0845L348.186 41.9635L348.188 41.9644L348.663 41.0845ZM341.393 33.7521L340.516 34.2333L340.518 34.2362L341.393 33.7521ZM341.454 10.0455L342.325 10.5368L342.326 10.5352L341.454 10.0455ZM348.787 2.73366L349.259 3.61515L349.262 3.6135L348.787 2.73366ZM366.438 1.33309L366.747 0.382103L366.438 1.33309ZM372.329 4.52557L371.69 5.29533L371.694 5.2984L372.329 4.52557ZM376.407 9.65412L375.515 10.1061V10.1061L376.407 9.65412ZM378.281 15.6364H366.665V17.6364H378.281V15.6364ZM367.661 16.551C367.57 15.4895 367.325 14.5042 366.915 13.6056L365.096 14.4356C365.4 15.1023 365.594 15.8609 365.668 16.7218L367.661 16.551ZM366.921 13.6189C366.523 12.711 365.961 11.9224 365.237 11.2629L363.89 12.7413C364.402 13.2078 364.801 13.7649 365.09 14.4223L366.921 13.6189ZM365.254 11.2788C364.537 10.5944 363.676 10.0843 362.69 9.73986L362.03 11.628C362.774 11.8877 363.382 12.2565 363.873 12.7255L365.254 11.2788ZM362.703 9.74459C361.709 9.38176 360.608 9.21023 359.415 9.21023V11.2102C360.418 11.2102 361.281 11.3545 362.017 11.6233L362.703 9.74459ZM359.415 9.21023C357.325 9.21023 355.488 9.72011 353.959 10.792L355.107 12.4296C356.242 11.6341 357.659 11.2102 359.415 11.2102V9.21023ZM353.955 10.7948C352.454 11.858 351.342 13.3656 350.596 15.2608L352.457 15.9935C353.084 14.4009 353.976 13.231 355.111 12.4268L353.955 10.7948ZM350.593 15.2672C349.865 17.1552 349.517 19.3778 349.517 21.9091H351.517C351.517 19.5522 351.842 17.5868 352.459 15.9871L350.593 15.2672ZM349.517 21.9091C349.517 24.5718 349.87 26.8678 350.616 28.7634L352.477 28.0307C351.85 26.4385 351.517 24.4092 351.517 21.9091H349.517ZM350.62 28.7722C351.382 30.6546 352.506 32.1335 354.02 33.1424L355.129 31.4783C354.006 30.7297 353.112 29.5997 352.474 28.0218L350.62 28.7722ZM354.026 33.1464C355.534 34.1361 357.318 34.608 359.332 34.608V32.608C357.639 32.608 356.251 32.2147 355.123 31.4743L354.026 33.1464ZM359.332 34.608C360.47 34.608 361.521 34.4677 362.472 34.1714L361.877 32.2619C361.153 32.4874 360.309 32.608 359.332 32.608V34.608ZM362.486 34.1668C363.43 33.8575 364.27 33.4096 364.993 32.815L363.723 31.2702C363.21 31.6917 362.595 32.0265 361.863 32.2664L362.486 34.1668ZM364.993 32.815C365.713 32.2233 366.297 31.5105 366.742 30.6836L364.981 29.7354C364.657 30.3366 364.239 30.8458 363.723 31.2702L364.993 32.815ZM366.739 30.6895C367.199 29.8489 367.5 28.9182 367.653 27.9083L365.676 27.6087C365.554 28.4113 365.32 29.1147 364.984 29.7295L366.739 30.6895ZM366.658 28.7585L378.274 28.8409L378.288 26.8409L366.672 26.7585L366.658 28.7585ZM377.284 27.7642C377.157 29.4135 376.693 31.1161 375.871 32.8761L377.684 33.7219C378.592 31.7746 379.13 29.8384 379.278 27.9176L377.284 27.7642ZM375.873 32.8735C375.063 34.5962 373.906 36.2033 372.39 37.6937L373.792 39.1202C375.461 37.4799 376.762 35.6818 377.682 33.7245L375.873 32.8735ZM372.39 37.6937C370.916 39.1419 369.074 40.3239 366.845 41.229L367.597 43.0821C370.036 42.0922 372.107 40.7753 373.792 39.1202L372.39 37.6937ZM366.845 41.229C364.654 42.1183 362.074 42.5767 359.085 42.5767V44.5767C362.275 44.5767 365.119 44.0877 367.597 43.0821L366.845 41.229ZM359.085 42.5767C355.361 42.5767 352.053 41.779 349.138 40.2047L348.188 41.9644C351.425 43.7129 355.065 44.5767 359.085 44.5767V42.5767ZM349.14 40.2056C346.256 38.6405 343.966 36.3382 342.268 33.2681L340.518 34.2362C342.389 37.6197 344.947 40.2056 348.186 41.9635L349.14 40.2056ZM342.269 33.2709C340.598 30.226 339.736 26.4536 339.736 21.9091H337.736C337.736 26.7017 338.645 30.8246 340.516 34.2333L342.269 33.2709ZM339.736 21.9091C339.736 17.3392 340.617 13.5643 342.325 10.5368L340.583 9.55413C338.666 12.9527 337.736 17.087 337.736 21.9091H339.736ZM342.326 10.5352C344.051 7.4638 346.361 5.16744 349.259 3.61514L348.315 1.85218C345.061 3.59534 342.482 6.17351 340.582 9.55572L342.326 10.5352ZM349.262 3.6135C352.18 2.03744 355.447 1.24148 359.085 1.24148V-0.758524C355.144 -0.758524 351.545 0.106966 348.311 1.85382L349.262 3.6135ZM359.085 1.24148C361.658 1.24148 364.003 1.59277 366.129 2.28409L366.747 0.382103C364.397 -0.382078 361.84 -0.758524 359.085 -0.758524V1.24148ZM366.129 2.28409C368.256 2.97562 370.106 3.98113 371.69 5.29532L372.967 3.75581C371.174 2.26887 369.097 1.14606 366.747 0.382103L366.129 2.28409ZM371.694 5.2984C373.271 6.59355 374.545 8.1922 375.515 10.1061L377.299 9.20209C376.209 7.05165 374.764 5.23125 372.963 3.75273L371.694 5.2984ZM375.515 10.1061C376.478 12.007 377.074 14.2059 377.285 16.7198L379.278 16.5529C379.049 13.8215 378.395 11.3657 377.299 9.20209L375.515 10.1061ZM393.131 43V44H393.874L394.089 43.289L393.131 43ZM380.773 43L379.824 42.6866L379.39 44H380.773V43ZM394.697 0.81818V-0.18182H393.974L393.747 0.504736L394.697 0.81818ZM410.35 0.81818L411.3 0.504736L411.073 -0.18182H410.35V0.81818ZM424.273 43V44H425.656L425.223 42.6866L424.273 43ZM411.915 43L410.958 43.289L411.173 44H411.915V43ZM402.688 12.4347L403.645 12.1457L403.431 11.4347H402.688V12.4347ZM402.358 12.4347V11.4347H401.616L401.401 12.1457L402.358 12.4347ZM390.824 26.358V25.358H389.824V26.358H390.824ZM414.057 26.358H415.057V25.358H414.057V26.358ZM414.057 34.9261V35.9261H415.057V34.9261H414.057ZM390.824 34.9261H389.824V35.9261H390.824V34.9261ZM393.131 42H380.773V44H393.131V42ZM381.723 43.3134L395.646 1.13163L393.747 0.504736L379.824 42.6866L381.723 43.3134ZM394.697 1.81818H410.35V-0.18182H394.697V1.81818ZM409.4 1.13163L423.324 43.3134L425.223 42.6866L411.3 0.504736L409.4 1.13163ZM424.273 42H411.915V44H424.273V42ZM412.873 42.711L403.645 12.1457L401.731 12.7237L410.958 43.289L412.873 42.711ZM402.688 11.4347H402.358V13.4347H402.688V11.4347ZM401.401 12.1457L392.174 42.711L394.089 43.289L403.316 12.7237L401.401 12.1457ZM390.824 27.358H414.057V25.358H390.824V27.358ZM413.057 26.358V34.9261H415.057V26.358H413.057ZM414.057 33.9261H390.824V35.9261H414.057V33.9261ZM391.824 34.9261V26.358H389.824V34.9261H391.824ZM449.432 14L448.435 14.0797L448.509 15H449.432V14ZM447.887 10.7869L447.24 11.5495L447.246 11.5542L447.887 10.7869ZM440.843 10.066L441.191 11.0038L441.2 11.0003L440.843 10.066ZM439.195 11.1989L438.393 10.6025L439.195 11.1989ZM438.639 12.8466L439.638 12.9006L439.639 12.8847L439.639 12.8688L438.639 12.8466ZM438.907 14.2266L438.013 14.6738L438.022 14.6919L438.032 14.7096L438.907 14.2266ZM439.937 15.3182L439.36 16.1351L439.368 16.1409L439.377 16.1465L439.937 15.3182ZM444.324 16.8835L444.534 15.9057L444.525 15.904L444.324 16.8835ZM447.784 17.625L447.575 18.6028L447.577 18.6033L447.784 17.625ZM453.778 19.5817L453.34 20.4805L453.778 19.5817ZM457.856 22.4446L457.135 23.1381L457.14 23.1426L457.856 22.4446ZM460.183 26.1108L459.244 26.4526L459.247 26.4609L460.183 26.1108ZM460.966 30.5597L461.966 30.5646L461.966 30.5511L460.966 30.5597ZM458.886 37.6037L459.7 38.1849L458.886 37.6037ZM452.995 41.9908L452.63 41.0599L452.628 41.0606L452.995 41.9908ZM434.232 41.8672L433.861 42.796L433.863 42.7966L434.232 41.8672ZM427.888 36.8622L427.054 37.4134L427.057 37.4193L427.888 36.8622ZM425.622 28.1705V27.1705H424.618L424.622 28.1743L425.622 28.1705ZM436.497 28.1705L437.496 28.1173L437.446 27.1705H436.497V28.1705ZM437.465 31.4247L436.629 31.9734L437.465 31.4247ZM439.896 33.4226L439.497 34.3399L439.502 34.3417L439.896 33.4226ZM446.734 33.6491L447.078 34.588L446.734 33.6491ZM448.608 32.3928L449.391 33.015L448.608 32.3928ZM449.267 30.5597L450.267 30.5797L450.267 30.559L450.267 30.5384L449.267 30.5597ZM448.629 28.8707L447.85 29.4981L447.86 29.5099L447.869 29.5215L448.629 28.8707ZM446.651 27.5526L446.254 28.4704L446.266 28.4752L446.651 27.5526ZM442.923 26.4403L443.138 25.4635L443.134 25.4628L442.923 26.4403ZM438.722 25.5341L438.51 26.5114L438.511 26.5116L438.722 25.5341ZM429.886 21.4766L429.221 22.2232L429.226 22.2277L429.886 21.4766ZM426.693 13.6705L427.693 13.6746L427.693 13.6653L426.693 13.6705ZM428.835 6.64702L428.024 6.06213L428.024 6.06315L428.835 6.64702ZM434.87 1.9304L434.47 1.01379L434.469 1.01458L434.87 1.9304ZM452.583 1.95099L452.166 2.85998L452.583 1.95099ZM458.33 6.7706L457.491 7.31502L457.495 7.32144L458.33 6.7706ZM460.389 14V15H461.394L461.389 13.995L460.389 14ZM450.429 13.9203C450.301 12.3229 449.686 10.9868 448.529 10.0196L447.246 11.5542C447.929 12.125 448.343 12.9309 448.435 14.0797L450.429 13.9203ZM448.534 10.0244C447.37 9.03666 445.712 8.63352 443.747 8.63352V10.6335C445.49 10.6335 446.592 10.9993 447.24 11.5494L448.534 10.0244ZM443.747 8.63352C442.496 8.63352 441.395 8.78486 440.487 9.13183L441.2 11.0003C441.802 10.7705 442.637 10.6335 443.747 10.6335V8.63352ZM440.496 9.1283C439.63 9.44904 438.897 9.92382 438.393 10.6025L439.998 11.7952C440.208 11.5127 440.574 11.2323 441.191 11.0038L440.496 9.1283ZM438.393 10.6025C437.908 11.2551 437.658 12.0065 437.64 12.8244L439.639 12.8688C439.648 12.4509 439.769 12.1038 439.998 11.7952L438.393 10.6025ZM437.641 12.7926C437.605 13.4553 437.721 14.0908 438.013 14.6738L439.802 13.7793C439.681 13.5385 439.619 13.2539 439.638 12.9006L437.641 12.7926ZM438.032 14.7096C438.341 15.2698 438.801 15.7401 439.36 16.1351L440.514 14.5012C440.14 14.2371 439.913 13.9797 439.783 13.7435L438.032 14.7096ZM439.377 16.1465C439.933 16.5228 440.612 16.8451 441.391 17.1246L442.066 15.2419C441.39 14.9996 440.875 14.7452 440.497 14.4899L439.377 16.1465ZM441.391 17.1246C442.175 17.4055 443.088 17.6504 444.123 17.8631L444.525 15.904C443.555 15.7047 442.738 15.4827 442.066 15.2419L441.391 17.1246ZM444.115 17.8613L447.575 18.6028L447.994 16.6472L444.534 15.9057L444.115 17.8613ZM447.577 18.6033C449.853 19.0853 451.769 19.7148 453.34 20.4805L454.216 18.6828C452.464 17.8282 450.384 17.1533 447.991 16.6467L447.577 18.6033ZM453.34 20.4805C454.917 21.2498 456.175 22.1399 457.135 23.1381L458.576 21.7511C457.423 20.5524 455.961 19.5338 454.216 18.6828L453.34 20.4805ZM457.14 23.1426C458.103 24.1307 458.8 25.2327 459.244 26.4525L461.123 25.7691C460.578 24.2701 459.724 22.928 458.572 21.7466L457.14 23.1426ZM459.247 26.4609C459.71 27.6999 459.953 29.0659 459.966 30.5682L461.966 30.5511C461.951 28.8404 461.673 27.2404 461.12 25.7607L459.247 26.4609ZM459.966 30.5547C459.953 33.1587 459.305 35.2961 458.072 37.0225L459.7 38.1849C461.213 36.0666 461.951 33.508 461.966 30.5646L459.966 30.5547ZM458.072 37.0225C456.829 38.7632 455.033 40.1166 452.63 41.0599L453.361 42.9216C456.065 41.8602 458.197 40.2889 459.7 38.1849L458.072 37.0225ZM452.628 41.0606C450.235 42.005 447.311 42.4943 443.83 42.4943V44.4943C447.489 44.4943 450.675 43.9812 453.362 42.921L452.628 41.0606ZM443.83 42.4943C440.26 42.4943 437.191 41.9659 434.601 40.9377L433.863 42.7966C436.738 43.938 440.067 44.4943 443.83 44.4943V42.4943ZM434.602 40.9384C432.055 39.9221 430.108 38.3762 428.718 36.3052L427.057 37.4193C428.689 39.8521 430.971 41.6427 433.861 42.796L434.602 40.9384ZM428.722 36.311C427.361 34.25 426.635 31.5583 426.622 28.1666L424.622 28.1743C424.637 31.8403 425.422 34.9432 427.054 37.4134L428.722 36.311ZM425.622 29.1705H436.497V27.1705H425.622V29.1705ZM435.499 28.2236C435.575 29.6506 435.936 30.9162 436.629 31.9734L438.301 30.8761C437.842 30.1756 437.557 29.2717 437.496 28.1173L435.499 28.2236ZM436.629 31.9734C437.322 33.0285 438.291 33.8158 439.497 34.3398L440.294 32.5053C439.414 32.1231 438.762 31.5785 438.301 30.8761L436.629 31.9734ZM439.502 34.3417C440.712 34.8603 442.109 35.1023 443.665 35.1023V33.1023C442.31 33.1023 441.194 32.8911 440.29 32.5034L439.502 34.3417ZM443.665 35.1023C444.962 35.1023 446.11 34.943 447.078 34.588L446.39 32.7103C445.71 32.9595 444.812 33.1023 443.665 33.1023V35.1023ZM447.078 34.588C448.026 34.2403 448.823 33.7297 449.391 33.015L447.825 31.7705C447.542 32.1268 447.089 32.4538 446.39 32.7103L447.078 34.588ZM449.391 33.015C449.954 32.3072 450.249 31.4844 450.267 30.5797L448.267 30.5397C448.258 31.008 448.114 31.4073 447.825 31.7705L449.391 33.015ZM450.267 30.5384C450.248 29.6667 449.954 28.88 449.388 28.2199L447.869 29.5215C448.128 29.8227 448.259 30.1619 448.267 30.5809L450.267 30.5384ZM449.407 28.2434C448.862 27.5659 448.031 27.0454 447.037 26.6299L446.266 28.4752C447.112 28.8286 447.599 29.1869 447.85 29.4981L449.407 28.2434ZM447.049 26.6348C446.046 26.2006 444.733 25.8135 443.138 25.4636L442.709 27.4171C444.244 27.7538 445.417 28.1081 446.254 28.4703L447.049 26.6348ZM443.134 25.4628L438.933 24.5566L438.511 26.5116L442.713 27.4179L443.134 25.4628ZM438.934 24.5568C435.312 23.7712 432.539 22.4769 430.546 20.7255L429.226 22.2277C431.545 24.2659 434.662 25.6767 438.51 26.5114L438.934 24.5568ZM430.551 20.7299C428.656 19.0413 427.681 16.7306 427.693 13.6746L425.693 13.6663C425.679 17.2012 426.832 20.0946 429.221 22.2232L430.551 20.7299ZM427.693 13.6653C427.681 11.1802 428.339 9.04942 429.647 7.23088L428.024 6.06315C426.448 8.25408 425.679 10.8056 425.693 13.6756L427.693 13.6653ZM429.647 7.2319C430.985 5.37603 432.846 3.9097 435.272 2.84622L434.469 1.01458C431.758 2.20298 429.597 3.88107 428.024 6.06213L429.647 7.2319ZM435.27 2.847C437.704 1.78526 440.523 1.24148 443.747 1.24148V-0.758524C440.298 -0.758524 437.199 -0.176358 434.47 1.01379L435.27 2.847ZM443.747 1.24148C447.043 1.24148 449.84 1.7931 452.166 2.85998L453 1.04201C450.356 -0.170473 447.262 -0.758524 443.747 -0.758524V1.24148ZM452.166 2.85998C454.498 3.92929 456.259 5.4173 457.491 7.315L459.169 6.22619C457.709 3.97711 455.639 2.25206 453 1.04201L452.166 2.85998ZM457.495 7.32144C458.735 9.20029 459.377 11.4154 459.389 14.005L461.389 13.995C461.375 11.0647 460.643 8.46022 459.164 6.21976L457.495 7.32144ZM460.389 13H449.432V15H460.389V13ZM465.322 43H464.322V44H465.322V43ZM465.322 0.81818V-0.18182H464.322V0.81818H465.322ZM476.774 0.81818H477.774V-0.18182H476.774V0.81818ZM476.774 17.2955H475.774V18.2955H476.774V17.2955ZM491.933 17.2955V18.2955H492.933V17.2955H491.933ZM491.933 0.81818V-0.18182H490.933V0.81818H491.933ZM503.385 0.81818H504.385V-0.18182H503.385V0.81818ZM503.385 43V44H504.385V43H503.385ZM491.933 43H490.933V44H491.933V43ZM491.933 26.5227H492.933V25.5227H491.933V26.5227ZM476.774 26.5227V25.5227H475.774V26.5227H476.774ZM476.774 43V44H477.774V43H476.774ZM466.322 43V0.81818H464.322V43H466.322ZM465.322 1.81818H476.774V-0.18182H465.322V1.81818ZM475.774 0.81818V17.2955H477.774V0.81818H475.774ZM476.774 18.2955H491.933V16.2955H476.774V18.2955ZM492.933 17.2955V0.81818H490.933V17.2955H492.933ZM491.933 1.81818H503.385V-0.18182H491.933V1.81818ZM502.385 0.81818V43H504.385V0.81818H502.385ZM503.385 42H491.933V44H503.385V42ZM492.933 43V26.5227H490.933V43H492.933ZM491.933 25.5227H476.774V27.5227H491.933V25.5227ZM475.774 26.5227V43H477.774V26.5227H475.774ZM476.774 42H465.322V44H476.774V42ZM546.947 33.7933L547.816 34.2875L547.817 34.2859L546.947 33.7933ZM539.552 41.1051L540.021 41.9883L540.024 41.9867L539.552 41.1051ZM518.75 41.0845L518.273 41.9636L518.278 41.9661L518.75 41.0845ZM511.376 33.7521L510.504 34.2419L510.507 34.2463L511.376 33.7521ZM511.376 10.0455L510.506 9.55291L510.505 9.55413L511.376 10.0455ZM518.75 2.73366L519.22 3.61602L519.222 3.61526L518.75 2.73366ZM539.552 2.73366L539.08 3.61526L539.083 3.61688L539.552 2.73366ZM546.947 10.0455L546.076 10.538L546.077 10.5396L546.947 10.0455ZM536.895 15.5241L535.96 15.8777L535.963 15.8866L536.895 15.5241ZM533.95 11.5696L533.375 12.3881L533.385 12.3949L533.95 11.5696ZM524.373 11.5696L524.941 12.3921L524.943 12.3909L524.373 11.5696ZM521.427 15.5241L520.494 15.1642L520.493 15.1682L521.427 15.5241ZM521.427 28.3146L520.492 28.6682L520.495 28.6771L521.427 28.3146ZM524.373 32.2692L523.798 33.0877L523.808 33.0945L524.373 32.2692ZM533.95 32.2692L534.519 33.0917L534.521 33.0904L533.95 32.2692ZM536.895 28.3146L535.962 27.9547L535.961 27.9586L536.895 28.3146ZM548.686 21.9091C548.686 26.4777 547.798 30.2592 546.076 33.3008L547.817 34.2859C549.748 30.8739 550.686 26.7325 550.686 21.9091H548.686ZM546.077 33.2992C544.339 36.3568 542.009 38.6557 539.08 40.2235L540.024 41.9867C543.302 40.2316 545.901 37.656 547.816 34.2875L546.077 33.2992ZM539.083 40.2219C536.137 41.7864 532.84 42.5767 529.172 42.5767V44.5767C533.138 44.5767 536.761 43.7193 540.021 41.9883L539.083 40.2219ZM529.172 42.5767C525.476 42.5767 522.167 41.7796 519.222 40.2029L518.278 41.9661C521.539 43.7123 525.178 44.5767 529.172 44.5767V42.5767ZM519.227 40.2054C516.31 38.624 513.984 36.3173 512.246 33.258L510.507 34.2463C512.42 37.6131 515.011 40.1946 518.273 41.9636L519.227 40.2054ZM512.248 33.2624C510.539 30.2194 509.657 26.4502 509.657 21.9091H507.657C507.657 26.7051 508.589 30.8313 510.504 34.2419L512.248 33.2624ZM509.657 21.9091C509.657 17.3392 510.539 13.5643 512.247 10.5368L510.505 9.55413C508.588 12.9527 507.657 17.087 507.657 21.9091H509.657ZM512.247 10.538C513.985 7.46625 516.309 5.16903 519.22 3.61602L518.279 1.85131C515.012 3.59375 512.42 6.17106 510.506 9.55291L512.247 10.538ZM519.222 3.61526C522.167 2.03855 525.476 1.24148 529.172 1.24148V-0.758524C525.178 -0.758524 521.539 0.10586 518.278 1.85207L519.222 3.61526ZM529.172 1.24148C532.839 1.24148 536.134 2.03799 539.08 3.61526L540.024 1.85207C536.764 0.106418 533.139 -0.758524 529.172 -0.758524V1.24148ZM539.083 3.61688C542.009 5.17023 544.338 7.46738 546.076 10.538L547.817 9.55291C545.902 6.16993 543.302 3.59255 540.021 1.85045L539.083 3.61688ZM546.077 10.5396C547.798 13.5665 548.686 17.3403 548.686 21.9091H550.686C550.686 17.0858 549.748 12.9505 547.816 9.55132L546.077 10.5396ZM538.905 21.9091C538.905 19.3005 538.558 17.0409 537.827 15.1617L535.963 15.8866C536.578 17.4677 536.905 19.4647 536.905 21.9091H538.905ZM537.831 15.1706C537.113 13.2705 536.017 11.772 534.515 10.7443L533.385 12.3949C534.492 13.1522 535.36 14.2901 535.96 15.8777L537.831 15.1706ZM534.525 10.7512C533.034 9.70459 531.23 9.21023 529.172 9.21023V11.2102C530.903 11.2102 532.285 11.6221 533.375 12.388L534.525 10.7512ZM529.172 9.21023C527.113 9.21023 525.304 9.70472 523.802 10.7483L524.943 12.3909C526.05 11.622 527.441 11.2102 529.172 11.2102V9.21023ZM523.804 10.7471C522.319 11.7741 521.225 13.2696 520.494 15.1642L522.36 15.8841C522.975 14.291 523.845 13.1501 524.941 12.3921L523.804 10.7471ZM520.493 15.1682C519.778 17.0451 519.439 19.3023 519.439 21.9091H521.439C521.439 19.4628 521.759 17.4634 522.362 15.8801L520.493 15.1682ZM519.439 21.9091C519.439 24.5162 519.778 26.7791 520.492 28.6682L522.363 27.9611C521.759 26.3625 521.439 24.355 521.439 21.9091H519.439ZM520.495 28.6771C521.227 30.5579 522.319 32.049 523.798 33.0876L524.947 31.4508C523.845 30.6768 522.974 29.5316 522.359 27.9522L520.495 28.6771ZM523.808 33.0945C525.31 34.1218 527.116 34.608 529.172 34.608V32.608C527.438 32.608 526.045 32.2015 524.937 31.4439L523.808 33.0945ZM529.172 34.608C531.227 34.608 533.029 34.122 534.519 33.0917L533.381 31.4467C532.29 32.2014 530.906 32.608 529.172 32.608V34.608ZM534.521 33.0904C536.017 32.0512 537.111 30.5569 537.83 28.6706L535.961 27.9586C535.361 29.5326 534.493 30.6747 533.38 31.4479L534.521 33.0904ZM537.828 28.6746C538.558 26.7833 538.905 24.5181 538.905 21.9091H536.905C536.905 24.3531 536.578 26.3583 535.962 27.9547L537.828 28.6746ZM554.984 43H553.984V44H554.984V43ZM554.984 0.81818V-0.18182H553.984V0.81818H554.984ZM584.643 0.81818H585.643V-0.18182H584.643V0.81818ZM584.643 10.0455V11.0455H585.643V10.0455H584.643ZM566.436 10.0455V9.04545H565.436V10.0455H566.436ZM566.436 17.2955H565.436V18.2955H566.436V17.2955ZM582.831 17.2955H583.831V16.2955H582.831V17.2955ZM582.831 26.5227V27.5227H583.831V26.5227H582.831ZM566.436 26.5227V25.5227H565.436V26.5227H566.436ZM566.436 43V44H567.436V43H566.436ZM555.984 43V0.81818H553.984V43H555.984ZM554.984 1.81818H584.643V-0.18182H554.984V1.81818ZM583.643 0.81818V10.0455H585.643V0.81818H583.643ZM584.643 9.04545H566.436V11.0455H584.643V9.04545ZM565.436 10.0455V17.2955H567.436V10.0455H565.436ZM566.436 18.2955H582.831V16.2955H566.436V18.2955ZM581.831 17.2955V26.5227H583.831V17.2955H581.831ZM582.831 25.5227H566.436V27.5227H582.831V25.5227ZM565.436 26.5227V43H567.436V26.5227H565.436ZM566.436 42H554.984V44H566.436V42ZM588.855 43H587.855V44H588.855V43ZM588.855 0.81818V-0.18182H587.855V0.81818H588.855ZM618.515 0.81818H619.515V-0.18182H618.515V0.81818ZM618.515 10.0455V11.0455H619.515V10.0455H618.515ZM600.307 10.0455V9.04545H599.307V10.0455H600.307ZM600.307 17.2955H599.307V18.2955H600.307V17.2955ZM616.702 17.2955H617.702V16.2955H616.702V17.2955ZM616.702 26.5227V27.5227H617.702V26.5227H616.702ZM600.307 26.5227V25.5227H599.307V26.5227H600.307ZM600.307 43V44H601.307V43H600.307ZM589.855 43V0.81818H587.855V43H589.855ZM588.855 1.81818H618.515V-0.18182H588.855V1.81818ZM617.515 0.81818V10.0455H619.515V0.81818H617.515ZM618.515 9.04545H600.307V11.0455H618.515V9.04545ZM599.307 10.0455V17.2955H601.307V10.0455H599.307ZM600.307 18.2955H616.702V16.2955H600.307V18.2955ZM615.702 17.2955V26.5227H617.702V17.2955H615.702ZM616.702 25.5227H600.307V27.5227H616.702V25.5227ZM599.307 26.5227V43H601.307V26.5227H599.307ZM600.307 42H588.855V44H600.307V42ZM622.727 43H621.727V44H622.727V43ZM622.727 0.81818V-0.18182H621.727V0.81818H622.727ZM653.127 0.81818H654.127V-0.18182H653.127V0.81818ZM653.127 10.0455V11.0455H654.127V10.0455H653.127ZM634.178 10.0455V9.04545H633.178V10.0455H634.178ZM634.178 17.2955H633.178V18.2955H634.178V17.2955ZM651.562 17.2955H652.562V16.2955H651.562V17.2955ZM651.562 26.5227V27.5227H652.562V26.5227H651.562ZM634.178 26.5227V25.5227H633.178V26.5227H634.178ZM634.178 33.7727H633.178V34.7727H634.178V33.7727ZM653.045 33.7727H654.045V32.7727H653.045V33.7727ZM653.045 43V44H654.045V43H653.045ZM623.727 43V0.81818H621.727V43H623.727ZM622.727 1.81818H653.127V-0.18182H622.727V1.81818ZM652.127 0.81818V10.0455H654.127V0.81818H652.127ZM653.127 9.04545H634.178V11.0455H653.127V9.04545ZM633.178 10.0455V17.2955H635.178V10.0455H633.178ZM634.178 18.2955H651.562V16.2955H634.178V18.2955ZM650.562 17.2955V26.5227H652.562V17.2955H650.562ZM651.562 25.5227H634.178V27.5227H651.562V25.5227ZM633.178 26.5227V33.7727H635.178V26.5227H633.178ZM634.178 34.7727H653.045V32.7727H634.178V34.7727ZM652.045 33.7727V43H654.045V33.7727H652.045ZM653.045 42H622.727V44H653.045V42ZM658.807 43H657.807V44H658.807V43ZM658.807 0.81818V-0.18182H657.807V0.81818H658.807ZM685.232 2.5277L684.795 3.42732L685.232 2.5277ZM690.711 7.45028L691.565 6.93016L690.711 7.45028ZM690.649 22.7947L689.81 22.2503L689.808 22.2543L690.649 22.7947ZM685.026 27.4908L684.625 26.5746L684.623 26.5755L685.026 27.4908ZM665.727 29.0767H664.727V30.0767H665.727V29.0767ZM665.727 20.179V19.179H664.727V20.179H665.727ZM677.735 19.6847L678.063 20.6292L678.071 20.6264L677.735 19.6847ZM679.939 18.0575L679.121 17.482L679.114 17.4923L679.939 18.0575ZM679.939 12.2081L679.104 12.7594L679.11 12.768L679.116 12.7765L679.939 12.2081ZM677.735 10.5192L677.37 11.4504L677.379 11.4536L677.387 11.4566L677.735 10.5192ZM670.258 9.96307V8.96307H669.258V9.96307H670.258ZM670.258 43V44H671.258V43H670.258ZM683.523 23.6392L684.401 23.1609L684.117 22.6392H683.523V23.6392ZM694.068 43V44H695.751L694.946 42.5217L694.068 43ZM681.628 43L680.745 43.4696L681.027 44H681.628V43ZM671.329 23.6392V22.6392H669.665L670.446 24.1088L671.329 23.6392ZM659.807 43V0.81818H657.807V43H659.807ZM658.807 1.81818H677.014V-0.18182H658.807V1.81818ZM677.014 1.81818C680.023 1.81818 682.608 2.36559 684.795 3.42732L685.669 1.62807C683.16 0.410451 680.266 -0.18182 677.014 -0.18182V1.81818ZM684.795 3.42732C686.978 4.48678 688.656 5.99919 689.857 7.97041L691.565 6.93016C690.156 4.61729 688.182 2.84798 685.669 1.62807L684.795 3.42732ZM689.857 7.97041C691.049 9.92777 691.667 12.3077 691.667 15.1534H693.667C693.667 12.0123 692.982 9.25689 691.565 6.93016L689.857 7.97041ZM691.667 15.1534C691.667 18.0242 691.029 20.3718 689.81 22.2503L691.488 23.3391C692.96 21.0709 693.667 18.3243 693.667 15.1534H691.667ZM689.808 22.2543C688.59 24.1499 686.875 25.5905 684.625 26.5746L685.427 28.4069C688.011 27.2764 690.044 25.5864 691.49 23.3352L689.808 22.2543ZM684.623 26.5755C682.372 27.5659 679.707 28.0767 676.602 28.0767V30.0767C679.924 30.0767 682.874 29.5303 685.429 28.4061L684.623 26.5755ZM676.602 28.0767H665.727V30.0767H676.602V28.0767ZM666.727 29.0767V20.179H664.727V29.0767H666.727ZM665.727 21.179H674.295V19.179H665.727V21.179ZM674.295 21.179C675.717 21.179 676.981 21.0056 678.063 20.6292L677.406 18.7402C676.594 19.0228 675.565 19.179 674.295 19.179V21.179ZM678.071 20.6264C679.203 20.2222 680.121 19.5611 680.764 18.6228L679.114 17.4923C678.741 18.0369 678.189 18.4605 677.399 18.7429L678.071 20.6264ZM680.757 18.633C681.429 17.6769 681.721 16.4893 681.721 15.1534H679.721C679.721 16.2068 679.492 16.9552 679.121 17.482L680.757 18.633ZM681.721 15.1534C681.721 13.8055 681.43 12.6075 680.761 11.6397L679.116 12.7765C679.491 13.3191 679.721 14.0847 679.721 15.1534H681.721ZM680.773 11.6568C680.135 10.691 679.22 10.0039 678.083 9.58175L677.387 11.4566C678.172 11.7484 678.726 12.1873 679.104 12.7594L680.773 11.6568ZM678.099 9.58793C677.005 9.1597 675.728 8.96307 674.295 8.96307V10.9631C675.554 10.9631 676.57 11.1372 677.37 11.4504L678.099 9.58793ZM674.295 8.96307H670.258V10.9631H674.295V8.96307ZM669.258 9.96307V43H671.258V9.96307H669.258ZM670.258 42H658.807V44H670.258V42ZM682.644 24.1175L693.19 43.4783L694.946 42.5217L684.401 23.1609L682.644 24.1175ZM694.068 42H681.628V44H694.068V42ZM682.511 42.5304L672.212 23.1696L670.446 24.1088L680.745 43.4696L682.511 42.5304ZM671.329 24.6392H683.523V22.6392H671.329V24.6392Z" fill="white" mask="url(#path-1-outside-1_1854_680)"/>
</svg>
