<svg width="1294" height="611" viewBox="0 0 1294 611" fill="none" xmlns="http://www.w3.org/2000/svg">
<path d="M780.288 55V50.4489L789.838 42.0881C790.553 41.4403 791.163 40.848 791.666 40.3111C792.169 39.7656 792.552 39.2202 792.816 38.6747C793.08 38.1207 793.213 37.5199 793.213 36.8722C793.213 36.1477 793.055 35.5298 792.74 35.0185C792.424 34.4986 791.99 34.098 791.436 33.8168C790.882 33.5355 790.247 33.3949 789.531 33.3949C788.806 33.3949 788.171 33.544 787.626 33.8423C787.08 34.1321 786.654 34.554 786.347 35.108C786.049 35.6619 785.9 36.3352 785.9 37.1278H779.904C779.904 35.3466 780.305 33.8082 781.106 32.5128C781.907 31.2173 783.032 30.2202 784.481 29.5213C785.938 28.8139 787.63 28.4602 789.556 28.4602C791.542 28.4602 793.268 28.7926 794.734 29.4574C796.2 30.1222 797.333 31.0511 798.134 32.2443C798.944 33.429 799.349 34.8054 799.349 36.3736C799.349 37.3707 799.149 38.3594 798.748 39.3395C798.347 40.3196 797.627 41.402 796.588 42.5866C795.556 43.7713 794.09 45.1903 792.19 46.8438L789.058 49.733V49.8991H799.669V55H780.288ZM802.363 50.6534V45.7188L813.089 28.8182H817.474V35.517H814.93L808.653 45.4631V45.6676H824.185V50.6534H802.363ZM815.006 55V49.1449L815.134 46.9844V28.8182H821.053V55H815.006ZM873.011 38.304H866.619C866.534 37.6477 866.359 37.0554 866.095 36.527C865.83 35.9986 865.481 35.5469 865.046 35.1719C864.612 34.7969 864.096 34.5114 863.499 34.3153C862.911 34.1108 862.259 34.0085 861.544 34.0085C860.274 34.0085 859.178 34.3196 858.258 34.9418C857.346 35.5639 856.643 36.4631 856.149 37.6392C855.663 38.8153 855.42 40.2386 855.42 41.9091C855.42 43.6477 855.667 45.1051 856.161 46.2812C856.664 47.4489 857.367 48.331 858.271 48.9276C859.183 49.5156 860.261 49.8097 861.505 49.8097C862.204 49.8097 862.839 49.7202 863.41 49.5412C863.99 49.3622 864.497 49.1023 864.931 48.7614C865.374 48.4119 865.737 47.9901 866.018 47.4957C866.308 46.9929 866.508 46.4261 866.619 45.7955L873.011 45.8338C872.9 46.9929 872.563 48.1349 872.001 49.2599C871.447 50.3849 870.684 51.4119 869.713 52.3409C868.741 53.2614 867.556 53.9943 866.159 54.5398C864.769 55.0852 863.176 55.358 861.377 55.358C859.008 55.358 856.886 54.8381 855.011 53.7983C853.144 52.75 851.67 51.2244 850.588 49.2216C849.505 47.2187 848.964 44.7812 848.964 41.9091C848.964 39.0284 849.514 36.5866 850.613 34.5838C851.713 32.581 853.2 31.0597 855.075 30.0199C856.95 28.9801 859.051 28.4602 861.377 28.4602C862.963 28.4602 864.428 28.6818 865.775 29.125C867.122 29.5597 868.306 30.1989 869.329 31.0426C870.352 31.8778 871.183 32.9048 871.822 34.1236C872.461 35.3423 872.857 36.7358 873.011 38.304ZM881.627 55H874.826L883.66 28.8182H892.085L900.919 55H894.117L887.968 35.4148H887.764L881.627 55ZM880.72 44.696H894.936V49.5028H880.72V44.696ZM917.081 36.6676C916.996 35.7301 916.616 35.0014 915.943 34.4815C915.278 33.9531 914.328 33.6889 913.092 33.6889C912.274 33.6889 911.592 33.7955 911.047 34.0085C910.501 34.2216 910.092 34.5156 909.819 34.8906C909.547 35.2571 909.406 35.679 909.398 36.1562C909.381 36.5483 909.457 36.8935 909.628 37.1918C909.807 37.4901 910.062 37.7543 910.395 37.9844C910.736 38.206 911.145 38.402 911.622 38.5724C912.099 38.7429 912.636 38.892 913.233 39.0199L915.483 39.5312C916.778 39.8125 917.92 40.1875 918.909 40.6562C919.906 41.125 920.741 41.6832 921.415 42.331C922.096 42.9787 922.612 43.7244 922.961 44.5682C923.311 45.4119 923.49 46.358 923.498 47.4062C923.49 49.0597 923.072 50.4787 922.246 51.6634C921.419 52.848 920.23 53.7557 918.679 54.3864C917.136 55.017 915.274 55.3324 913.092 55.3324C910.902 55.3324 908.993 55.0043 907.365 54.348C905.737 53.6918 904.471 52.6946 903.568 51.3565C902.665 50.0185 902.2 48.3267 902.175 46.2812H908.234C908.285 47.125 908.511 47.8281 908.912 48.3906C909.312 48.9531 909.862 49.3793 910.561 49.669C911.268 49.9588 912.086 50.1037 913.015 50.1037C913.868 50.1037 914.592 49.9886 915.189 49.7585C915.794 49.5284 916.258 49.2088 916.582 48.7997C916.906 48.3906 917.072 47.9219 917.081 47.3935C917.072 46.8991 916.919 46.4773 916.621 46.1278C916.322 45.7699 915.862 45.4631 915.24 45.2074C914.626 44.9432 913.842 44.7003 912.888 44.4787L910.152 43.8395C907.885 43.3196 906.099 42.4801 904.795 41.321C903.491 40.1534 902.844 38.5767 902.852 36.5909C902.844 34.9716 903.278 33.5526 904.156 32.3338C905.034 31.1151 906.248 30.1648 907.8 29.483C909.351 28.8011 911.119 28.4602 913.105 28.4602C915.133 28.4602 916.893 28.8054 918.385 29.4957C919.885 30.1776 921.048 31.1364 921.875 32.3722C922.702 33.608 923.123 35.0398 923.14 36.6676H917.081ZM926.694 55V28.8182H933.023V39.3267H943.339V28.8182H949.655V55H943.339V44.4787H933.023V55H926.694ZM833.404 85.9091C833.404 88.7898 832.85 91.2315 831.742 93.2344C830.634 95.2372 829.134 96.7585 827.242 97.7983C825.359 98.8381 823.245 99.358 820.901 99.358C818.549 99.358 816.431 98.8338 814.548 97.7855C812.664 96.7372 811.168 95.2159 810.06 93.2216C808.961 91.2187 808.411 88.7812 808.411 85.9091C808.411 83.0284 808.961 80.5866 810.06 78.5838C811.168 76.581 812.664 75.0597 814.548 74.0199C816.431 72.9801 818.549 72.4602 820.901 72.4602C823.245 72.4602 825.359 72.9801 827.242 74.0199C829.134 75.0597 830.634 76.581 831.742 78.5838C832.85 80.5866 833.404 83.0284 833.404 85.9091ZM826.935 85.9091C826.935 84.2045 826.692 82.7642 826.207 81.5881C825.729 80.4119 825.039 79.5213 824.136 78.9162C823.241 78.3111 822.163 78.0085 820.901 78.0085C819.648 78.0085 818.57 78.3111 817.667 78.9162C816.763 79.5213 816.069 80.4119 815.583 81.5881C815.106 82.7642 814.867 84.2045 814.867 85.9091C814.867 87.6136 815.106 89.054 815.583 90.2301C816.069 91.4062 816.763 92.2969 817.667 92.902C818.57 93.5071 819.648 93.8097 820.901 93.8097C822.163 93.8097 823.241 93.5071 824.136 92.902C825.039 92.2969 825.729 91.4062 826.207 90.2301C826.692 89.054 826.935 87.6136 826.935 85.9091ZM837.099 99V72.8182H854.971V77.9574H843.427V83.3267H853.833V88.4787H843.427V99H837.099ZM858.157 99V72.8182H876.029V77.9574H864.485V83.3267H874.892V88.4787H864.485V99H858.157ZM879.216 99V72.8182H897.472V77.9574H885.544V83.3267H896.538V88.4787H885.544V93.8608H897.472V99H879.216ZM901.435 99V72.8182H912.25C914.21 72.8182 915.902 73.1719 917.325 73.8793C918.757 74.5781 919.861 75.5838 920.636 76.8963C921.412 78.2003 921.8 79.7472 921.8 81.5369C921.8 83.3523 921.403 84.8949 920.611 86.1648C919.818 87.4261 918.693 88.3892 917.236 89.054C915.778 89.7102 914.053 90.0384 912.058 90.0384H905.219V85.0526H910.882C911.837 85.0526 912.634 84.929 913.273 84.6818C913.92 84.4261 914.411 84.0426 914.743 83.5312C915.075 83.0114 915.241 82.3466 915.241 81.5369C915.241 80.7273 915.075 80.0582 914.743 79.5298C914.411 78.9929 913.92 78.5923 913.273 78.3281C912.625 78.0554 911.828 77.919 910.882 77.919H907.763V99H901.435ZM916.175 87.0341L922.695 99H915.791L909.399 87.0341H916.175Z" fill="#1C191A"/>
<path d="M828.615 55L839.175 34.0852V33.919H826.825V28.8182H845.72V33.9574L835.122 55H828.615Z" fill="#BE302E"/>
<path d="M1016.54 77.9574V72.8182H1038.67V77.9574H1030.73V99H1024.49V77.9574H1016.54ZM1041.76 99V72.8182H1052.57C1054.53 72.8182 1056.23 73.1719 1057.65 73.8793C1059.08 74.5781 1060.19 75.5838 1060.96 76.8963C1061.74 78.2003 1062.12 79.7472 1062.12 81.5369C1062.12 83.3523 1061.73 84.8949 1060.94 86.1648C1060.14 87.4261 1059.02 88.3892 1057.56 89.054C1056.1 89.7102 1054.38 90.0384 1052.38 90.0384H1045.54V85.0526H1051.21C1052.16 85.0526 1052.96 84.929 1053.6 84.6818C1054.24 84.4261 1054.73 84.0426 1055.07 83.5312C1055.4 83.0114 1055.57 82.3466 1055.57 81.5369C1055.57 80.7273 1055.4 80.0582 1055.07 79.5298C1054.73 78.9929 1054.24 78.5923 1053.6 78.3281C1052.95 78.0554 1052.15 77.919 1051.21 77.919H1048.09V99H1041.76ZM1056.5 87.0341L1063.02 99H1056.12L1049.72 87.0341H1056.5ZM1071.26 99H1064.46L1073.29 72.8182H1081.72L1090.55 99H1083.75L1077.6 79.4148H1077.39L1071.26 99ZM1070.35 88.696H1084.57V93.5028H1070.35V88.696ZM1103.05 99H1093.37V72.8182H1103.03C1105.7 72.8182 1108 73.3423 1109.92 74.3906C1111.86 75.4304 1113.35 76.9304 1114.4 78.8906C1115.45 80.8423 1115.97 83.1776 1115.97 85.8963C1115.97 88.6236 1115.45 90.9673 1114.4 92.9276C1113.36 94.8878 1111.87 96.392 1109.94 97.4403C1108 98.4801 1105.7 99 1103.05 99ZM1099.7 93.6051H1102.8C1104.27 93.6051 1105.51 93.358 1106.52 92.8636C1107.55 92.3608 1108.32 91.5469 1108.84 90.4219C1109.37 89.2884 1109.63 87.7798 1109.63 85.8963C1109.63 84.0128 1109.37 82.5128 1108.84 81.3963C1108.31 80.2713 1107.53 79.4616 1106.5 78.9673C1105.47 78.4645 1104.21 78.2131 1102.71 78.2131H1099.7V93.6051ZM1125.99 72.8182V99H1119.67V72.8182H1125.99ZM1129.11 77.9574V72.8182H1151.24V77.9574H1143.3V99H1137.06V77.9574H1129.11ZM1160.66 72.8182V99H1154.33V72.8182H1160.66ZM1189.34 85.9091C1189.34 88.7898 1188.79 91.2315 1187.68 93.2344C1186.57 95.2372 1185.07 96.7585 1183.18 97.7983C1181.3 98.8381 1179.18 99.358 1176.84 99.358C1174.49 99.358 1172.37 98.8338 1170.49 97.7855C1168.6 96.7372 1167.11 95.2159 1166 93.2216C1164.9 91.2187 1164.35 88.7812 1164.35 85.9091C1164.35 83.0284 1164.9 80.5866 1166 78.5838C1167.11 76.581 1168.6 75.0597 1170.49 74.0199C1172.37 72.9801 1174.49 72.4602 1176.84 72.4602C1179.18 72.4602 1181.3 72.9801 1183.18 74.0199C1185.07 75.0597 1186.57 76.581 1187.68 78.5838C1188.79 80.5866 1189.34 83.0284 1189.34 85.9091ZM1182.87 85.9091C1182.87 84.2045 1182.63 82.7642 1182.14 81.5881C1181.67 80.4119 1180.98 79.5213 1180.07 78.9162C1179.18 78.3111 1178.1 78.0085 1176.84 78.0085C1175.59 78.0085 1174.51 78.3111 1173.6 78.9162C1172.7 79.5213 1172.01 80.4119 1171.52 81.5881C1171.04 82.7642 1170.8 84.2045 1170.8 85.9091C1170.8 87.6136 1171.04 89.054 1171.52 90.2301C1172.01 91.4062 1172.7 92.2969 1173.6 92.902C1174.51 93.5071 1175.59 93.8097 1176.84 93.8097C1178.1 93.8097 1179.18 93.5071 1180.07 92.902C1180.98 92.2969 1181.67 91.4062 1182.14 90.2301C1182.63 89.054 1182.87 87.6136 1182.87 85.9091ZM1215.32 72.8182V99H1209.95L1199.53 83.8892H1199.36V99H1193.04V72.8182H1198.48L1208.79 87.9034H1209V72.8182H1215.32ZM1224.96 99H1218.16L1226.99 72.8182H1235.42L1244.25 99H1237.45L1231.3 79.4148H1231.1L1224.96 99ZM1224.05 88.696H1238.27V93.5028H1224.05V88.696ZM1247.07 99V72.8182H1253.4V93.8608H1264.29V99H1247.07Z" fill="#1C191A"/>
<rect y="286" width="1294" height="78" rx="10" fill="#1C191A"/>
<rect y="442" width="1294" height="78" rx="10" fill="#1C191A"/>
<rect y="519" width="1294" height="78" rx="10" fill="white"/>
<rect y="364" width="1294" height="78" rx="10" fill="white"/>
<rect y="130" width="1294" height="78" rx="10" fill="#1C191A"/>
<rect y="208" width="1294" height="78" rx="10" fill="white"/>
<rect x="739.5" y="0.5" width="251" height="610" rx="29.5" stroke="#1C191A"/>
<path d="M78.2365 163.259H75.1342C75.0149 162.596 74.7929 162.012 74.468 161.509C74.1432 161.005 73.7455 160.577 73.2749 160.226C72.8042 159.875 72.2772 159.609 71.6939 159.43C71.1172 159.251 70.504 159.162 69.8544 159.162C68.6811 159.162 67.6304 159.457 66.7024 160.047C65.781 160.637 65.0518 161.502 64.5149 162.642C63.9846 163.782 63.7195 165.174 63.7195 166.818C63.7195 168.475 63.9846 169.874 64.5149 171.014C65.0518 172.154 65.7843 173.016 66.7124 173.599C67.6404 174.183 68.6844 174.474 69.8445 174.474C70.4875 174.474 71.0973 174.388 71.674 174.216C72.2573 174.037 72.7843 173.775 73.255 173.43C73.7256 173.086 74.1233 172.665 74.4482 172.168C74.7796 171.664 75.0083 171.087 75.1342 170.438L78.2365 170.447C78.0708 171.448 77.7493 172.37 77.272 173.212C76.8014 174.047 76.1948 174.769 75.4524 175.379C74.7166 175.982 73.8748 176.45 72.9268 176.781C71.9789 177.113 70.9448 177.278 69.8246 177.278C68.0613 177.278 66.4903 176.861 65.1115 176.026C63.7327 175.184 62.6456 173.981 61.8501 172.416C61.0613 170.852 60.6669 168.986 60.6669 166.818C60.6669 164.644 61.0646 162.778 61.8601 161.22C62.6555 159.656 63.7427 158.456 65.1214 157.621C66.5002 156.779 68.0679 156.358 69.8246 156.358C70.9051 156.358 71.9126 156.514 72.8473 156.825C73.7886 157.13 74.6338 157.581 75.3828 158.178C76.1319 158.768 76.7517 159.49 77.2422 160.345C77.7327 161.194 78.0642 162.165 78.2365 163.259ZM99.6019 166.818C99.6019 168.992 99.2042 170.862 98.4087 172.426C97.6133 173.984 96.5228 175.184 95.1374 176.026C93.7586 176.861 92.1909 177.278 90.4343 177.278C88.671 177.278 87.0967 176.861 85.7113 176.026C84.3325 175.184 83.2454 173.981 82.4499 172.416C81.6545 170.852 81.2567 168.986 81.2567 166.818C81.2567 164.644 81.6545 162.778 82.4499 161.22C83.2454 159.656 84.3325 158.456 85.7113 157.621C87.0967 156.779 88.671 156.358 90.4343 156.358C92.1909 156.358 93.7586 156.779 95.1374 157.621C96.5228 158.456 97.6133 159.656 98.4087 161.22C99.2042 162.778 99.6019 164.644 99.6019 166.818ZM96.5593 166.818C96.5593 165.161 96.2908 163.766 95.7539 162.632C95.2236 161.492 94.4944 160.63 93.5664 160.047C92.645 159.457 91.601 159.162 90.4343 159.162C89.261 159.162 88.2137 159.457 87.2923 160.047C86.3709 160.63 85.6417 161.492 85.1048 162.632C84.5745 163.766 84.3093 165.161 84.3093 166.818C84.3093 168.475 84.5745 169.874 85.1048 171.014C85.6417 172.148 86.3709 173.009 87.2923 173.599C88.2137 174.183 89.261 174.474 90.4343 174.474C91.601 174.474 92.645 174.183 93.5664 173.599C94.4944 173.009 95.2236 172.148 95.7539 171.014C96.2908 169.874 96.5593 168.475 96.5593 166.818ZM103.433 156.636H107.161L113.644 172.466H113.883L120.366 156.636H124.094V177H121.171V162.264H120.982L114.977 176.97H112.55L106.545 162.254H106.356V177H103.433V156.636ZM131.634 156.636V177H128.561V156.636H131.634ZM147.215 161.986C147.109 161.045 146.671 160.315 145.902 159.798C145.133 159.275 144.166 159.013 142.999 159.013C142.164 159.013 141.441 159.145 140.831 159.411C140.221 159.669 139.748 160.027 139.409 160.484C139.078 160.935 138.912 161.449 138.912 162.026C138.912 162.509 139.025 162.927 139.25 163.278C139.482 163.63 139.784 163.925 140.155 164.163C140.533 164.395 140.937 164.591 141.368 164.75C141.799 164.902 142.213 165.028 142.611 165.128L144.6 165.645C145.249 165.804 145.916 166.019 146.598 166.291C147.281 166.563 147.914 166.921 148.498 167.365C149.081 167.809 149.551 168.359 149.909 169.016C150.274 169.672 150.456 170.457 150.456 171.372C150.456 172.526 150.158 173.55 149.561 174.445C148.971 175.339 148.113 176.045 146.986 176.562C145.866 177.08 144.51 177.338 142.919 177.338C141.395 177.338 140.076 177.096 138.962 176.612C137.848 176.128 136.977 175.442 136.347 174.554C135.717 173.659 135.369 172.598 135.303 171.372H138.385C138.445 172.108 138.684 172.721 139.101 173.212C139.525 173.696 140.066 174.057 140.722 174.295C141.385 174.527 142.111 174.643 142.9 174.643C143.768 174.643 144.54 174.508 145.216 174.236C145.899 173.957 146.436 173.573 146.827 173.082C147.218 172.585 147.414 172.005 147.414 171.342C147.414 170.739 147.241 170.245 146.897 169.861C146.559 169.476 146.098 169.158 145.515 168.906C144.938 168.654 144.285 168.432 143.556 168.24L141.15 167.584C139.519 167.14 138.226 166.487 137.272 165.625C136.324 164.763 135.85 163.623 135.85 162.205C135.85 161.031 136.168 160.007 136.804 159.132C137.441 158.257 138.302 157.578 139.39 157.094C140.477 156.603 141.703 156.358 143.069 156.358C144.447 156.358 145.664 156.6 146.718 157.084C147.778 157.568 148.614 158.234 149.223 159.082C149.833 159.924 150.151 160.892 150.178 161.986H147.215ZM165.234 161.986C165.128 161.045 164.691 160.315 163.922 159.798C163.153 159.275 162.185 159.013 161.018 159.013C160.183 159.013 159.461 159.145 158.851 159.411C158.241 159.669 157.767 160.027 157.429 160.484C157.098 160.935 156.932 161.449 156.932 162.026C156.932 162.509 157.045 162.927 157.27 163.278C157.502 163.63 157.804 163.925 158.175 164.163C158.553 164.395 158.957 164.591 159.388 164.75C159.819 164.902 160.233 165.028 160.631 165.128L162.619 165.645C163.269 165.804 163.935 166.019 164.618 166.291C165.301 166.563 165.934 166.921 166.517 167.365C167.1 167.809 167.571 168.359 167.929 169.016C168.294 169.672 168.476 170.457 168.476 171.372C168.476 172.526 168.178 173.55 167.581 174.445C166.991 175.339 166.133 176.045 165.006 176.562C163.885 177.08 162.53 177.338 160.939 177.338C159.414 177.338 158.095 177.096 156.982 176.612C155.868 176.128 154.996 175.442 154.366 174.554C153.737 173.659 153.389 172.598 153.322 171.372H156.405C156.464 172.108 156.703 172.721 157.121 173.212C157.545 173.696 158.085 174.057 158.741 174.295C159.404 174.527 160.13 174.643 160.919 174.643C161.787 174.643 162.56 174.508 163.236 174.236C163.919 173.957 164.455 173.573 164.847 173.082C165.238 172.585 165.433 172.005 165.433 171.342C165.433 170.739 165.261 170.245 164.916 169.861C164.578 169.476 164.117 169.158 163.534 168.906C162.957 168.654 162.304 168.432 161.575 168.24L159.169 167.584C157.538 167.14 156.246 166.487 155.291 165.625C154.343 164.763 153.869 163.623 153.869 162.205C153.869 161.031 154.188 160.007 154.824 159.132C155.46 158.257 156.322 157.578 157.409 157.094C158.496 156.603 159.723 156.358 161.088 156.358C162.467 156.358 163.683 156.6 164.737 157.084C165.798 157.568 166.633 158.234 167.243 159.082C167.853 159.924 168.171 160.892 168.197 161.986H165.234ZM175.22 156.636V177H172.147V156.636H175.22ZM197.383 166.818C197.383 168.992 196.985 170.862 196.19 172.426C195.395 173.984 194.304 175.184 192.919 176.026C191.54 176.861 189.972 177.278 188.216 177.278C186.452 177.278 184.878 176.861 183.493 176.026C182.114 175.184 181.027 173.981 180.231 172.416C179.436 170.852 179.038 168.986 179.038 166.818C179.038 164.644 179.436 162.778 180.231 161.22C181.027 159.656 182.114 158.456 183.493 157.621C184.878 156.779 186.452 156.358 188.216 156.358C189.972 156.358 191.54 156.779 192.919 157.621C194.304 158.456 195.395 159.656 196.19 161.22C196.985 162.778 197.383 164.644 197.383 166.818ZM194.341 166.818C194.341 165.161 194.072 163.766 193.535 162.632C193.005 161.492 192.276 160.63 191.348 160.047C190.426 159.457 189.382 159.162 188.216 159.162C187.042 159.162 185.995 159.457 185.074 160.047C184.152 160.63 183.423 161.492 182.886 162.632C182.356 163.766 182.091 165.161 182.091 166.818C182.091 168.475 182.356 169.874 182.886 171.014C183.423 172.148 184.152 173.009 185.074 173.599C185.995 174.183 187.042 174.474 188.216 174.474C189.382 174.474 190.426 174.183 191.348 173.599C192.276 173.009 193.005 172.148 193.535 171.014C194.072 169.874 194.341 168.475 194.341 166.818ZM217.65 156.636V177H214.826L204.475 162.065H204.286V177H201.214V156.636H204.058L214.418 171.591H214.607V156.636H217.65ZM233.238 161.986C233.132 161.045 232.695 160.315 231.926 159.798C231.157 159.275 230.189 159.013 229.022 159.013C228.187 159.013 227.465 159.145 226.855 159.411C226.245 159.669 225.771 160.027 225.433 160.484C225.101 160.935 224.936 161.449 224.936 162.026C224.936 162.509 225.048 162.927 225.274 163.278C225.506 163.63 225.807 163.925 226.179 164.163C226.556 164.395 226.961 164.591 227.392 164.75C227.823 164.902 228.237 165.028 228.635 165.128L230.623 165.645C231.273 165.804 231.939 166.019 232.622 166.291C233.305 166.563 233.938 166.921 234.521 167.365C235.104 167.809 235.575 168.359 235.933 169.016C236.297 169.672 236.48 170.457 236.48 171.372C236.48 172.526 236.181 173.55 235.585 174.445C234.995 175.339 234.136 176.045 233.01 176.562C231.889 177.08 230.534 177.338 228.943 177.338C227.418 177.338 226.099 177.096 224.985 176.612C223.872 176.128 223 175.442 222.37 174.554C221.741 173.659 221.393 172.598 221.326 171.372H224.409C224.468 172.108 224.707 172.721 225.125 173.212C225.549 173.696 226.089 174.057 226.745 174.295C227.408 174.527 228.134 174.643 228.923 174.643C229.791 174.643 230.564 174.508 231.24 174.236C231.922 173.957 232.459 173.573 232.85 173.082C233.242 172.585 233.437 172.005 233.437 171.342C233.437 170.739 233.265 170.245 232.92 169.861C232.582 169.476 232.121 169.158 231.538 168.906C230.961 168.654 230.308 168.432 229.579 168.24L227.173 167.584C225.542 167.14 224.25 166.487 223.295 165.625C222.347 164.763 221.873 163.623 221.873 162.205C221.873 161.031 222.191 160.007 222.828 159.132C223.464 158.257 224.326 157.578 225.413 157.094C226.5 156.603 227.726 156.358 229.092 156.358C230.471 156.358 231.687 156.6 232.741 157.084C233.802 157.568 234.637 158.234 235.247 159.082C235.857 159.924 236.175 160.892 236.201 161.986H233.238Z" fill="white"/>
<path d="M853.417 177.338C851.846 177.331 850.504 176.917 849.39 176.095C848.277 175.273 847.425 174.077 846.835 172.506C846.245 170.935 845.95 169.042 845.95 166.828C845.95 164.621 846.245 162.735 846.835 161.17C847.432 159.606 848.287 158.413 849.4 157.591C850.521 156.769 851.86 156.358 853.417 156.358C854.975 156.358 856.311 156.772 857.425 157.601C858.538 158.423 859.39 159.616 859.98 161.18C860.577 162.738 860.875 164.621 860.875 166.828C860.875 169.049 860.58 170.945 859.99 172.516C859.4 174.08 858.548 175.277 857.434 176.105C856.321 176.927 854.982 177.338 853.417 177.338ZM853.417 174.683C854.796 174.683 855.873 174.01 856.649 172.665C857.431 171.319 857.822 169.374 857.822 166.828C857.822 165.138 857.643 163.709 857.285 162.543C856.934 161.369 856.427 160.481 855.764 159.878C855.108 159.268 854.326 158.963 853.417 158.963C852.045 158.963 850.968 159.639 850.186 160.991C849.404 162.344 849.009 164.289 849.003 166.828C849.003 168.525 849.178 169.96 849.53 171.134C849.888 172.3 850.395 173.185 851.051 173.788C851.707 174.385 852.496 174.683 853.417 174.683ZM875.031 173.182V172.108C875.031 171.339 875.191 170.636 875.509 170C875.834 169.357 876.304 168.843 876.921 168.459C877.544 168.068 878.296 167.872 879.178 167.872C880.079 167.872 880.835 168.064 881.445 168.449C882.055 168.833 882.515 169.347 882.827 169.99C883.145 170.633 883.304 171.339 883.304 172.108V173.182C883.304 173.951 883.145 174.657 882.827 175.3C882.509 175.936 882.041 176.45 881.425 176.841C880.815 177.225 880.066 177.418 879.178 177.418C878.283 177.418 877.527 177.225 876.911 176.841C876.294 176.45 875.827 175.936 875.509 175.3C875.191 174.657 875.031 173.951 875.031 173.182ZM877.348 172.108V173.182C877.348 173.752 877.484 174.269 877.756 174.733C878.028 175.197 878.502 175.429 879.178 175.429C879.847 175.429 880.315 175.197 880.58 174.733C880.845 174.269 880.977 173.752 880.977 173.182V172.108C880.977 171.538 880.848 171.021 880.59 170.557C880.338 170.093 879.867 169.861 879.178 169.861C878.515 169.861 878.044 170.093 877.766 170.557C877.487 171.021 877.348 171.538 877.348 172.108ZM864.79 161.528V160.455C864.79 159.686 864.949 158.98 865.267 158.337C865.592 157.694 866.063 157.18 866.679 156.795C867.302 156.411 868.055 156.219 868.936 156.219C869.838 156.219 870.593 156.411 871.203 156.795C871.813 157.18 872.274 157.694 872.585 158.337C872.897 158.98 873.053 159.686 873.053 160.455V161.528C873.053 162.297 872.894 163.003 872.575 163.646C872.264 164.283 871.8 164.796 871.183 165.188C870.574 165.572 869.825 165.764 868.936 165.764C868.035 165.764 867.276 165.572 866.659 165.188C866.049 164.796 865.585 164.283 865.267 163.646C864.949 163.003 864.79 162.297 864.79 161.528ZM867.117 160.455V161.528C867.117 162.098 867.249 162.616 867.514 163.08C867.786 163.544 868.26 163.776 868.936 163.776C869.599 163.776 870.063 163.544 870.328 163.08C870.6 162.616 870.736 162.098 870.736 161.528V160.455C870.736 159.884 870.607 159.367 870.348 158.903C870.09 158.439 869.619 158.207 868.936 158.207C868.273 158.207 867.803 158.439 867.524 158.903C867.253 159.367 867.117 159.884 867.117 160.455ZM865.735 177L879.735 156.636H882.111L868.111 177H865.735Z" fill="white"/>
<path d="M1129.07 177.278C1128.17 177.265 1127.27 177.099 1126.39 176.781C1125.51 176.463 1124.72 175.933 1124 175.19C1123.29 174.448 1122.71 173.45 1122.28 172.197C1121.86 170.945 1121.65 169.38 1121.65 167.504C1121.65 165.728 1121.82 164.15 1122.17 162.771C1122.53 161.393 1123.05 160.229 1123.71 159.281C1124.38 158.327 1125.19 157.601 1126.14 157.104C1127.09 156.607 1128.15 156.358 1129.33 156.358C1130.55 156.358 1131.62 156.597 1132.56 157.074C1133.51 157.551 1134.27 158.211 1134.85 159.053C1135.44 159.894 1135.82 160.852 1135.97 161.926H1132.94C1132.74 161.078 1132.33 160.385 1131.72 159.848C1131.11 159.311 1130.31 159.043 1129.33 159.043C1127.84 159.043 1126.68 159.692 1125.84 160.991C1125.01 162.291 1124.6 164.097 1124.59 166.411H1124.74C1125.09 165.834 1125.52 165.343 1126.03 164.939C1126.55 164.528 1127.13 164.213 1127.76 163.994C1128.4 163.769 1129.08 163.656 1129.79 163.656C1130.97 163.656 1132.04 163.945 1132.99 164.521C1133.95 165.091 1134.72 165.88 1135.29 166.888C1135.86 167.895 1136.14 169.049 1136.14 170.348C1136.14 171.647 1135.85 172.824 1135.26 173.878C1134.68 174.932 1133.85 175.767 1132.79 176.384C1131.73 176.993 1130.49 177.292 1129.07 177.278ZM1129.06 174.693C1129.85 174.693 1130.55 174.501 1131.16 174.116C1131.78 173.732 1132.27 173.215 1132.62 172.565C1132.98 171.916 1133.16 171.19 1133.16 170.388C1133.16 169.606 1132.99 168.893 1132.63 168.25C1132.29 167.607 1131.81 167.097 1131.2 166.719C1130.6 166.341 1129.91 166.152 1129.13 166.152C1128.54 166.152 1128 166.265 1127.49 166.49C1127 166.715 1126.56 167.027 1126.18 167.425C1125.8 167.822 1125.5 168.28 1125.29 168.797C1125.07 169.307 1124.97 169.848 1124.97 170.418C1124.97 171.18 1125.14 171.886 1125.49 172.536C1125.85 173.185 1126.34 173.709 1126.96 174.107C1127.58 174.498 1128.28 174.693 1129.06 174.693ZM1150.39 173.182V172.108C1150.39 171.339 1150.55 170.636 1150.87 170C1151.2 169.357 1151.67 168.843 1152.28 168.459C1152.91 168.068 1153.66 167.872 1154.54 167.872C1155.44 167.872 1156.2 168.064 1156.81 168.449C1157.42 168.833 1157.88 169.347 1158.19 169.99C1158.51 170.633 1158.67 171.339 1158.67 172.108V173.182C1158.67 173.951 1158.51 174.657 1158.19 175.3C1157.87 175.936 1157.4 176.45 1156.79 176.841C1156.18 177.225 1155.43 177.418 1154.54 177.418C1153.65 177.418 1152.89 177.225 1152.27 176.841C1151.66 176.45 1151.19 175.936 1150.87 175.3C1150.55 174.657 1150.39 173.951 1150.39 173.182ZM1152.71 172.108V173.182C1152.71 173.752 1152.85 174.269 1153.12 174.733C1153.39 175.197 1153.86 175.429 1154.54 175.429C1155.21 175.429 1155.68 175.197 1155.94 174.733C1156.21 174.269 1156.34 173.752 1156.34 173.182V172.108C1156.34 171.538 1156.21 171.021 1155.95 170.557C1155.7 170.093 1155.23 169.861 1154.54 169.861C1153.88 169.861 1153.41 170.093 1153.13 170.557C1152.85 171.021 1152.71 171.538 1152.71 172.108ZM1140.15 161.528V160.455C1140.15 159.686 1140.31 158.98 1140.63 158.337C1140.96 157.694 1141.43 157.18 1142.04 156.795C1142.67 156.411 1143.42 156.219 1144.3 156.219C1145.2 156.219 1145.96 156.411 1146.57 156.795C1147.18 157.18 1147.64 157.694 1147.95 158.337C1148.26 158.98 1148.42 159.686 1148.42 160.455V161.528C1148.42 162.297 1148.26 163.003 1147.94 163.646C1147.63 164.283 1147.16 164.796 1146.55 165.188C1145.94 165.572 1145.19 165.764 1144.3 165.764C1143.4 165.764 1142.64 165.572 1142.02 165.188C1141.41 164.796 1140.95 164.283 1140.63 163.646C1140.31 163.003 1140.15 162.297 1140.15 161.528ZM1142.48 160.455V161.528C1142.48 162.098 1142.61 162.616 1142.88 163.08C1143.15 163.544 1143.62 163.776 1144.3 163.776C1144.96 163.776 1145.43 163.544 1145.69 163.08C1145.96 162.616 1146.1 162.098 1146.1 161.528V160.455C1146.1 159.884 1145.97 159.367 1145.71 158.903C1145.45 158.439 1144.98 158.207 1144.3 158.207C1143.64 158.207 1143.17 158.439 1142.89 158.903C1142.62 159.367 1142.48 159.884 1142.48 160.455ZM1141.1 177L1155.1 156.636H1157.47L1143.47 177H1141.1Z" fill="white"/>
<path d="M855.696 257.545V232.091H857.327V257.545H855.696ZM860.797 239.986C860.691 239.045 860.253 238.315 859.484 237.798C858.715 237.275 857.748 237.013 856.581 237.013C855.746 237.013 855.023 237.145 854.413 237.411C853.804 237.669 853.33 238.027 852.991 238.484C852.66 238.935 852.494 239.449 852.494 240.026C852.494 240.509 852.607 240.927 852.832 241.278C853.064 241.63 853.366 241.925 853.737 242.163C854.115 242.395 854.519 242.591 854.95 242.75C855.381 242.902 855.795 243.028 856.193 243.128L858.182 243.645C858.831 243.804 859.498 244.019 860.18 244.291C860.863 244.563 861.496 244.921 862.08 245.365C862.663 245.809 863.134 246.359 863.491 247.016C863.856 247.672 864.038 248.457 864.038 249.372C864.038 250.526 863.74 251.55 863.143 252.445C862.554 253.339 861.695 254.045 860.568 254.562C859.448 255.08 858.092 255.338 856.501 255.338C854.977 255.338 853.658 255.096 852.544 254.612C851.43 254.128 850.559 253.442 849.929 252.554C849.299 251.659 848.951 250.598 848.885 249.372H851.967C852.027 250.108 852.266 250.721 852.683 251.212C853.107 251.696 853.648 252.057 854.304 252.295C854.967 252.527 855.693 252.643 856.482 252.643C857.35 252.643 858.122 252.508 858.798 252.236C859.481 251.957 860.018 251.573 860.409 251.082C860.8 250.585 860.996 250.005 860.996 249.342C860.996 248.739 860.823 248.245 860.479 247.861C860.141 247.476 859.68 247.158 859.097 246.906C858.52 246.654 857.867 246.432 857.138 246.24L854.732 245.584C853.101 245.14 851.808 244.487 850.854 243.625C849.906 242.763 849.432 241.623 849.432 240.205C849.432 239.031 849.75 238.007 850.386 237.132C851.023 236.257 851.884 235.578 852.972 235.094C854.059 234.603 855.285 234.358 856.651 234.358C858.029 234.358 859.246 234.6 860.3 235.084C861.36 235.568 862.196 236.234 862.805 237.082C863.415 237.924 863.733 238.892 863.76 239.986H860.797ZM874.521 255.338C872.95 255.331 871.608 254.917 870.494 254.095C869.38 253.273 868.529 252.077 867.939 250.506C867.349 248.935 867.054 247.042 867.054 244.828C867.054 242.621 867.349 240.735 867.939 239.17C868.535 237.606 869.39 236.413 870.504 235.591C871.624 234.769 872.963 234.358 874.521 234.358C876.079 234.358 877.414 234.772 878.528 235.601C879.642 236.423 880.493 237.616 881.083 239.18C881.68 240.738 881.978 242.621 881.978 244.828C881.978 247.049 881.683 248.945 881.093 250.516C880.503 252.08 879.652 253.277 878.538 254.105C877.424 254.927 876.085 255.338 874.521 255.338ZM874.521 252.683C875.9 252.683 876.977 252.01 877.752 250.665C878.535 249.319 878.926 247.374 878.926 244.828C878.926 243.138 878.747 241.709 878.389 240.543C878.038 239.369 877.53 238.481 876.868 237.878C876.211 237.268 875.429 236.963 874.521 236.963C873.149 236.963 872.072 237.639 871.289 238.991C870.507 240.344 870.113 242.289 870.106 244.828C870.106 246.525 870.282 247.96 870.633 249.134C870.991 250.3 871.498 251.185 872.154 251.788C872.811 252.385 873.6 252.683 874.521 252.683Z" fill="#1C191A"/>
<path d="M1115.3 239.727L1109.76 255H1106.58L1101.03 239.727H1104.22L1108.09 251.48H1108.25L1112.11 239.727H1115.3ZM1122.1 255.338C1121.13 255.338 1120.26 255.159 1119.48 254.801C1118.69 254.437 1118.07 253.91 1117.62 253.22C1117.17 252.531 1116.94 251.686 1116.94 250.685C1116.94 249.823 1117.11 249.114 1117.44 248.557C1117.77 248 1118.22 247.559 1118.78 247.234C1119.34 246.91 1119.97 246.664 1120.67 246.499C1121.37 246.333 1122.07 246.207 1122.8 246.121C1123.71 246.015 1124.45 245.929 1125.02 245.862C1125.59 245.789 1126.01 245.673 1126.27 245.514C1126.53 245.355 1126.66 245.097 1126.66 244.739V244.669C1126.66 243.801 1126.41 243.128 1125.92 242.651C1125.44 242.173 1124.71 241.935 1123.75 241.935C1122.75 241.935 1121.96 242.157 1121.39 242.601C1120.82 243.038 1120.42 243.526 1120.2 244.062L1117.41 243.426C1117.74 242.498 1118.22 241.749 1118.86 241.179C1119.5 240.602 1120.24 240.185 1121.08 239.926C1121.91 239.661 1122.79 239.528 1123.71 239.528C1124.32 239.528 1124.97 239.601 1125.65 239.747C1126.34 239.886 1126.98 240.145 1127.58 240.523C1128.18 240.901 1128.68 241.441 1129.06 242.143C1129.45 242.839 1129.64 243.744 1129.64 244.858V255H1126.73V252.912H1126.62C1126.42 253.296 1126.14 253.674 1125.75 254.045C1125.37 254.417 1124.87 254.725 1124.27 254.97C1123.67 255.215 1122.94 255.338 1122.1 255.338ZM1122.75 252.952C1123.57 252.952 1124.27 252.789 1124.86 252.464C1125.45 252.14 1125.89 251.715 1126.2 251.192C1126.51 250.661 1126.67 250.095 1126.67 249.491V247.523C1126.56 247.629 1126.35 247.728 1126.05 247.821C1125.75 247.907 1125.41 247.983 1125.02 248.05C1124.64 248.109 1124.27 248.166 1123.9 248.219C1123.54 248.265 1123.23 248.305 1122.99 248.338C1122.41 248.411 1121.88 248.534 1121.41 248.706C1120.93 248.878 1120.56 249.127 1120.27 249.452C1119.99 249.77 1119.85 250.194 1119.85 250.724C1119.85 251.46 1120.13 252.017 1120.67 252.395C1121.21 252.766 1121.91 252.952 1122.75 252.952ZM1133.6 255V239.727H1136.47V242.153H1136.63C1136.91 241.331 1137.4 240.685 1138.1 240.214C1138.81 239.737 1139.61 239.499 1140.51 239.499C1140.69 239.499 1140.91 239.505 1141.16 239.518C1141.42 239.532 1141.63 239.548 1141.77 239.568V242.412C1141.65 242.379 1141.44 242.342 1141.14 242.303C1140.83 242.256 1140.53 242.233 1140.22 242.233C1139.52 242.233 1138.89 242.382 1138.34 242.68C1137.8 242.972 1137.37 243.38 1137.05 243.903C1136.73 244.42 1136.57 245.01 1136.57 245.673V255H1133.6ZM1144.34 255V239.727H1147.32V255H1144.34ZM1145.85 237.371C1145.33 237.371 1144.88 237.198 1144.51 236.854C1144.15 236.502 1143.97 236.085 1143.97 235.601C1143.97 235.11 1144.15 234.693 1144.51 234.348C1144.88 233.997 1145.33 233.821 1145.85 233.821C1146.36 233.821 1146.8 233.997 1147.17 234.348C1147.54 234.693 1147.72 235.11 1147.72 235.601C1147.72 236.085 1147.54 236.502 1147.17 236.854C1146.8 237.198 1146.36 237.371 1145.85 237.371ZM1157.9 255.308C1156.39 255.308 1155.1 254.987 1154.01 254.344C1152.93 253.694 1152.1 252.783 1151.51 251.609C1150.92 250.429 1150.63 249.047 1150.63 247.463C1150.63 245.899 1150.92 244.52 1151.51 243.327C1152.1 242.134 1152.92 241.202 1153.97 240.533C1155.03 239.863 1156.27 239.528 1157.69 239.528C1158.55 239.528 1159.39 239.671 1160.2 239.956C1161 240.241 1161.73 240.688 1162.37 241.298C1163.02 241.908 1163.52 242.7 1163.9 243.675C1164.27 244.643 1164.45 245.819 1164.45 247.205V248.259H1152.31V246.031H1161.54C1161.54 245.249 1161.38 244.556 1161.06 243.953C1160.74 243.343 1160.3 242.863 1159.72 242.511C1159.15 242.16 1158.48 241.984 1157.71 241.984C1156.88 241.984 1156.15 242.19 1155.52 242.601C1154.91 243.005 1154.43 243.536 1154.09 244.192C1153.76 244.841 1153.59 245.547 1153.59 246.31V248.05C1153.59 249.071 1153.77 249.939 1154.13 250.655C1154.5 251.371 1155 251.918 1155.65 252.295C1156.3 252.667 1157.06 252.852 1157.93 252.852C1158.49 252.852 1159.01 252.773 1159.47 252.614C1159.93 252.448 1160.34 252.203 1160.67 251.878C1161.01 251.553 1161.27 251.152 1161.45 250.675L1164.26 251.182C1164.04 252.01 1163.63 252.736 1163.05 253.359C1162.47 253.976 1161.75 254.456 1160.87 254.801C1160 255.139 1159.01 255.308 1157.9 255.308ZM1179.2 243.456L1176.5 243.933C1176.39 243.589 1176.21 243.26 1175.96 242.949C1175.72 242.637 1175.4 242.382 1174.99 242.183C1174.58 241.984 1174.06 241.885 1173.45 241.885C1172.61 241.885 1171.9 242.074 1171.34 242.452C1170.78 242.823 1170.49 243.304 1170.49 243.893C1170.49 244.404 1170.68 244.815 1171.06 245.126C1171.44 245.438 1172.05 245.693 1172.89 245.892L1175.32 246.449C1176.72 246.774 1177.77 247.274 1178.46 247.95C1179.15 248.626 1179.49 249.505 1179.49 250.585C1179.49 251.5 1179.23 252.315 1178.7 253.031C1178.17 253.741 1177.44 254.297 1176.5 254.702C1175.57 255.106 1174.48 255.308 1173.25 255.308C1171.54 255.308 1170.14 254.944 1169.06 254.214C1167.98 253.479 1167.32 252.435 1167.07 251.082L1169.95 250.645C1170.13 251.394 1170.49 251.961 1171.05 252.345C1171.61 252.723 1172.33 252.912 1173.23 252.912C1174.2 252.912 1174.98 252.71 1175.57 252.305C1176.15 251.894 1176.44 251.394 1176.44 250.804C1176.44 250.327 1176.26 249.926 1175.9 249.601C1175.55 249.276 1175.01 249.031 1174.28 248.865L1171.7 248.298C1170.27 247.973 1169.22 247.456 1168.54 246.747C1167.86 246.038 1167.52 245.14 1167.52 244.053C1167.52 243.151 1167.77 242.362 1168.28 241.686C1168.78 241.01 1169.48 240.483 1170.37 240.105C1171.25 239.721 1172.27 239.528 1173.42 239.528C1175.07 239.528 1176.37 239.886 1177.32 240.602C1178.26 241.312 1178.89 242.263 1179.2 243.456Z" fill="#1C191A"/>
<path d="M853.417 333.338C851.846 333.331 850.504 332.917 849.39 332.095C848.277 331.273 847.425 330.077 846.835 328.506C846.245 326.935 845.95 325.042 845.95 322.828C845.95 320.621 846.245 318.735 846.835 317.17C847.432 315.606 848.287 314.413 849.4 313.591C850.521 312.769 851.86 312.358 853.417 312.358C854.975 312.358 856.311 312.772 857.425 313.601C858.538 314.423 859.39 315.616 859.98 317.18C860.577 318.738 860.875 320.621 860.875 322.828C860.875 325.049 860.58 326.945 859.99 328.516C859.4 330.08 858.548 331.277 857.434 332.105C856.321 332.927 854.982 333.338 853.417 333.338ZM853.417 330.683C854.796 330.683 855.873 330.01 856.649 328.665C857.431 327.319 857.822 325.374 857.822 322.828C857.822 321.138 857.643 319.709 857.285 318.543C856.934 317.369 856.427 316.481 855.764 315.878C855.108 315.268 854.326 314.963 853.417 314.963C852.045 314.963 850.968 315.639 850.186 316.991C849.404 318.344 849.009 320.289 849.003 322.828C849.003 324.525 849.178 325.96 849.53 327.134C849.888 328.3 850.395 329.185 851.051 329.788C851.707 330.385 852.496 330.683 853.417 330.683ZM875.031 329.182V328.108C875.031 327.339 875.191 326.636 875.509 326C875.834 325.357 876.304 324.843 876.921 324.459C877.544 324.068 878.296 323.872 879.178 323.872C880.079 323.872 880.835 324.064 881.445 324.449C882.055 324.833 882.515 325.347 882.827 325.99C883.145 326.633 883.304 327.339 883.304 328.108V329.182C883.304 329.951 883.145 330.657 882.827 331.3C882.509 331.936 882.041 332.45 881.425 332.841C880.815 333.225 880.066 333.418 879.178 333.418C878.283 333.418 877.527 333.225 876.911 332.841C876.294 332.45 875.827 331.936 875.509 331.3C875.191 330.657 875.031 329.951 875.031 329.182ZM877.348 328.108V329.182C877.348 329.752 877.484 330.269 877.756 330.733C878.028 331.197 878.502 331.429 879.178 331.429C879.847 331.429 880.315 331.197 880.58 330.733C880.845 330.269 880.977 329.752 880.977 329.182V328.108C880.977 327.538 880.848 327.021 880.59 326.557C880.338 326.093 879.867 325.861 879.178 325.861C878.515 325.861 878.044 326.093 877.766 326.557C877.487 327.021 877.348 327.538 877.348 328.108ZM864.79 317.528V316.455C864.79 315.686 864.949 314.98 865.267 314.337C865.592 313.694 866.063 313.18 866.679 312.795C867.302 312.411 868.055 312.219 868.936 312.219C869.838 312.219 870.593 312.411 871.203 312.795C871.813 313.18 872.274 313.694 872.585 314.337C872.897 314.98 873.053 315.686 873.053 316.455V317.528C873.053 318.297 872.894 319.003 872.575 319.646C872.264 320.283 871.8 320.796 871.183 321.188C870.574 321.572 869.825 321.764 868.936 321.764C868.035 321.764 867.276 321.572 866.659 321.188C866.049 320.796 865.585 320.283 865.267 319.646C864.949 319.003 864.79 318.297 864.79 317.528ZM867.117 316.455V317.528C867.117 318.098 867.249 318.616 867.514 319.08C867.786 319.544 868.26 319.776 868.936 319.776C869.599 319.776 870.063 319.544 870.328 319.08C870.6 318.616 870.736 318.098 870.736 317.528V316.455C870.736 315.884 870.607 315.367 870.348 314.903C870.09 314.439 869.619 314.207 868.936 314.207C868.273 314.207 867.803 314.439 867.524 314.903C867.253 315.367 867.117 315.884 867.117 316.455ZM865.735 333L879.735 312.636H882.111L868.111 333H865.735Z" fill="white"/>
<path d="M1122.28 333V330.773L1129.17 323.634C1129.91 322.858 1130.51 322.179 1130.99 321.595C1131.47 321.005 1131.83 320.445 1132.07 319.915C1132.31 319.384 1132.43 318.821 1132.43 318.224C1132.43 317.548 1132.27 316.965 1131.95 316.474C1131.64 315.977 1131.2 315.596 1130.65 315.331C1130.1 315.059 1129.48 314.923 1128.79 314.923C1128.06 314.923 1127.43 315.072 1126.88 315.371C1126.34 315.669 1125.92 316.09 1125.63 316.634C1125.34 317.177 1125.19 317.813 1125.19 318.543H1122.26C1122.26 317.303 1122.54 316.219 1123.11 315.291C1123.68 314.363 1124.47 313.644 1125.46 313.134C1126.46 312.616 1127.59 312.358 1128.85 312.358C1130.13 312.358 1131.26 312.613 1132.23 313.124C1133.21 313.627 1133.98 314.317 1134.53 315.192C1135.08 316.06 1135.35 317.041 1135.35 318.135C1135.35 318.891 1135.21 319.63 1134.93 320.352C1134.65 321.075 1134.16 321.88 1133.47 322.768C1132.77 323.65 1131.8 324.721 1130.56 325.98L1126.51 330.216V330.365H1135.68V333H1122.28ZM1150.08 329.182V328.108C1150.08 327.339 1150.24 326.636 1150.56 326C1150.88 325.357 1151.35 324.843 1151.97 324.459C1152.59 324.068 1153.34 323.872 1154.23 323.872C1155.13 323.872 1155.88 324.064 1156.49 324.449C1157.1 324.833 1157.56 325.347 1157.88 325.99C1158.19 326.633 1158.35 327.339 1158.35 328.108V329.182C1158.35 329.951 1158.19 330.657 1157.88 331.3C1157.56 331.936 1157.09 332.45 1156.47 332.841C1155.86 333.225 1155.11 333.418 1154.23 333.418C1153.33 333.418 1152.58 333.225 1151.96 332.841C1151.34 332.45 1150.88 331.936 1150.56 331.3C1150.24 330.657 1150.08 329.951 1150.08 329.182ZM1152.4 328.108V329.182C1152.4 329.752 1152.53 330.269 1152.8 330.733C1153.08 331.197 1153.55 331.429 1154.23 331.429C1154.9 331.429 1155.36 331.197 1155.63 330.733C1155.89 330.269 1156.03 329.752 1156.03 329.182V328.108C1156.03 327.538 1155.9 327.021 1155.64 326.557C1155.39 326.093 1154.92 325.861 1154.23 325.861C1153.56 325.861 1153.09 326.093 1152.81 326.557C1152.54 327.021 1152.4 327.538 1152.4 328.108ZM1139.84 317.528V316.455C1139.84 315.686 1140 314.98 1140.32 314.337C1140.64 313.694 1141.11 313.18 1141.73 312.795C1142.35 312.411 1143.1 312.219 1143.99 312.219C1144.89 312.219 1145.64 312.411 1146.25 312.795C1146.86 313.18 1147.32 313.694 1147.63 314.337C1147.95 314.98 1148.1 315.686 1148.1 316.455V317.528C1148.1 318.297 1147.94 319.003 1147.62 319.646C1147.31 320.283 1146.85 320.796 1146.23 321.188C1145.62 321.572 1144.87 321.764 1143.99 321.764C1143.08 321.764 1142.32 321.572 1141.71 321.188C1141.1 320.796 1140.63 320.283 1140.32 319.646C1140 319.003 1139.84 318.297 1139.84 317.528ZM1142.17 316.455V317.528C1142.17 318.098 1142.3 318.616 1142.56 319.08C1142.83 319.544 1143.31 319.776 1143.99 319.776C1144.65 319.776 1145.11 319.544 1145.38 319.08C1145.65 318.616 1145.78 318.098 1145.78 317.528V316.455C1145.78 315.884 1145.66 315.367 1145.4 314.903C1145.14 314.439 1144.67 314.207 1143.99 314.207C1143.32 314.207 1142.85 314.439 1142.57 314.903C1142.3 315.367 1142.17 315.884 1142.17 316.455ZM1140.78 333L1154.78 312.636H1157.16L1143.16 333H1140.78Z" fill="white"/>
<path d="M860.037 411L868.927 393.42V393.271H858.645V390.636H872.108V393.361L863.249 411H860.037Z" fill="#1C191A"/>
<path d="M1131.49 411.278C1130.12 411.278 1128.9 411.043 1127.83 410.572C1126.76 410.102 1125.92 409.449 1125.29 408.614C1124.68 407.772 1124.35 406.797 1124.3 405.69H1127.42C1127.46 406.294 1127.66 406.817 1128.03 407.261C1128.4 407.699 1128.88 408.037 1129.48 408.276C1130.08 408.514 1130.74 408.634 1131.47 408.634C1132.27 408.634 1132.98 408.494 1133.6 408.216C1134.22 407.937 1134.71 407.55 1135.06 407.053C1135.41 406.549 1135.58 405.969 1135.58 405.312C1135.58 404.63 1135.41 404.03 1135.06 403.513C1134.71 402.989 1134.21 402.578 1133.54 402.28C1132.87 401.982 1132.07 401.832 1131.13 401.832H1129.41V399.327H1131.13C1131.89 399.327 1132.55 399.191 1133.12 398.919C1133.7 398.647 1134.15 398.269 1134.47 397.786C1134.8 397.295 1134.96 396.722 1134.96 396.065C1134.96 395.436 1134.82 394.889 1134.53 394.425C1134.25 393.954 1133.85 393.586 1133.34 393.321C1132.83 393.056 1132.22 392.923 1131.53 392.923C1130.86 392.923 1130.24 393.046 1129.67 393.291C1129.1 393.53 1128.63 393.875 1128.28 394.325C1127.92 394.769 1127.73 395.303 1127.7 395.926H1124.73C1124.76 394.826 1125.08 393.858 1125.7 393.023C1126.32 392.187 1127.15 391.535 1128.17 391.064C1129.19 390.593 1130.32 390.358 1131.57 390.358C1132.87 390.358 1134 390.613 1134.95 391.124C1135.9 391.627 1136.64 392.3 1137.16 393.142C1137.68 393.984 1137.94 394.905 1137.93 395.906C1137.94 397.046 1137.62 398.014 1136.98 398.81C1136.34 399.605 1135.49 400.139 1134.43 400.411V400.57C1135.78 400.775 1136.83 401.312 1137.57 402.18C1138.32 403.049 1138.69 404.126 1138.69 405.412C1138.69 406.532 1138.38 407.536 1137.75 408.425C1137.13 409.313 1136.28 410.012 1135.2 410.523C1134.12 411.027 1132.88 411.278 1131.49 411.278ZM1149.53 411.338C1147.96 411.331 1146.62 410.917 1145.51 410.095C1144.39 409.273 1143.54 408.077 1142.95 406.506C1142.36 404.935 1142.07 403.042 1142.07 400.828C1142.07 398.621 1142.36 396.735 1142.95 395.17C1143.55 393.606 1144.4 392.413 1145.52 391.591C1146.64 390.769 1147.98 390.358 1149.53 390.358C1151.09 390.358 1152.43 390.772 1153.54 391.601C1154.66 392.423 1155.51 393.616 1156.1 395.18C1156.69 396.738 1156.99 398.621 1156.99 400.828C1156.99 403.049 1156.7 404.945 1156.11 406.516C1155.52 408.08 1154.67 409.277 1153.55 410.105C1152.44 410.927 1151.1 411.338 1149.53 411.338ZM1149.53 408.683C1150.91 408.683 1151.99 408.01 1152.77 406.665C1153.55 405.319 1153.94 403.374 1153.94 400.828C1153.94 399.138 1153.76 397.709 1153.4 396.543C1153.05 395.369 1152.54 394.481 1151.88 393.878C1151.22 393.268 1150.44 392.963 1149.53 392.963C1148.16 392.963 1147.09 393.639 1146.3 394.991C1145.52 396.344 1145.13 398.289 1145.12 400.828C1145.12 402.525 1145.3 403.96 1145.65 405.134C1146 406.3 1146.51 407.185 1147.17 407.788C1147.82 408.385 1148.61 408.683 1149.53 408.683Z" fill="#1C191A"/>
<path d="M865.511 489.338C863.94 489.331 862.598 488.917 861.484 488.095C860.371 487.273 859.519 486.077 858.929 484.506C858.339 482.935 858.044 481.042 858.044 478.828C858.044 476.621 858.339 474.735 858.929 473.17C859.525 471.606 860.381 470.413 861.494 469.591C862.614 468.769 863.953 468.358 865.511 468.358C867.069 468.358 868.405 468.772 869.518 469.601C870.632 470.423 871.484 471.616 872.074 473.18C872.67 474.738 872.969 476.621 872.969 478.828C872.969 481.049 872.674 482.945 872.084 484.516C871.494 486.08 870.642 487.277 869.528 488.105C868.415 488.927 867.076 489.338 865.511 489.338ZM865.511 486.683C866.89 486.683 867.967 486.01 868.743 484.665C869.525 483.319 869.916 481.374 869.916 478.828C869.916 477.138 869.737 475.709 869.379 474.543C869.028 473.369 868.521 472.481 867.858 471.878C867.202 471.268 866.419 470.963 865.511 470.963C864.139 470.963 863.062 471.639 862.28 472.991C861.497 474.344 861.103 476.289 861.096 478.828C861.096 480.525 861.272 481.96 861.623 483.134C861.981 484.3 862.488 485.185 863.145 485.788C863.801 486.385 864.59 486.683 865.511 486.683Z" fill="white"/>
<path d="M1117.12 468.636H1120.61L1125.93 477.893H1126.15L1131.47 468.636H1134.96L1127.57 481.006V489H1124.51V481.006L1117.12 468.636ZM1141.68 489.308C1140.18 489.308 1138.88 488.987 1137.8 488.344C1136.72 487.694 1135.88 486.783 1135.29 485.609C1134.71 484.429 1134.42 483.047 1134.42 481.463C1134.42 479.899 1134.71 478.52 1135.29 477.327C1135.88 476.134 1136.7 475.202 1137.76 474.533C1138.82 473.863 1140.06 473.528 1141.48 473.528C1142.34 473.528 1143.17 473.671 1143.98 473.956C1144.79 474.241 1145.52 474.688 1146.16 475.298C1146.8 475.908 1147.31 476.7 1147.68 477.675C1148.05 478.643 1148.24 479.819 1148.24 481.205V482.259H1136.1V480.031H1145.32C1145.32 479.249 1145.16 478.556 1144.85 477.953C1144.53 477.343 1144.08 476.863 1143.5 476.511C1142.93 476.16 1142.26 475.984 1141.5 475.984C1140.66 475.984 1139.93 476.19 1139.31 476.601C1138.69 477.005 1138.21 477.536 1137.88 478.192C1137.54 478.841 1137.38 479.547 1137.38 480.31V482.05C1137.38 483.071 1137.56 483.939 1137.92 484.655C1138.28 485.371 1138.79 485.918 1139.44 486.295C1140.09 486.667 1140.85 486.852 1141.71 486.852C1142.28 486.852 1142.79 486.773 1143.26 486.614C1143.72 486.448 1144.12 486.203 1144.46 485.878C1144.8 485.553 1145.06 485.152 1145.23 484.675L1148.05 485.182C1147.82 486.01 1147.42 486.736 1146.84 487.359C1146.26 487.976 1145.53 488.456 1144.66 488.801C1143.79 489.139 1142.8 489.308 1141.68 489.308ZM1162.98 477.456L1160.29 477.933C1160.17 477.589 1159.99 477.26 1159.75 476.949C1159.51 476.637 1159.19 476.382 1158.77 476.183C1158.36 475.984 1157.85 475.885 1157.23 475.885C1156.39 475.885 1155.69 476.074 1155.13 476.452C1154.56 476.823 1154.28 477.304 1154.28 477.893C1154.28 478.404 1154.47 478.815 1154.85 479.126C1155.22 479.438 1155.83 479.693 1156.68 479.892L1159.1 480.449C1160.51 480.774 1161.56 481.274 1162.24 481.95C1162.93 482.626 1163.28 483.505 1163.28 484.585C1163.28 485.5 1163.01 486.315 1162.48 487.031C1161.96 487.741 1161.23 488.297 1160.29 488.702C1159.35 489.106 1158.27 489.308 1157.03 489.308C1155.32 489.308 1153.93 488.944 1152.85 488.214C1151.77 487.479 1151.1 486.435 1150.86 485.082L1153.73 484.645C1153.91 485.394 1154.28 485.961 1154.84 486.345C1155.39 486.723 1156.12 486.912 1157.01 486.912C1157.99 486.912 1158.77 486.71 1159.35 486.305C1159.93 485.894 1160.23 485.394 1160.23 484.804C1160.23 484.327 1160.05 483.926 1159.69 483.601C1159.34 483.276 1158.8 483.031 1158.07 482.865L1155.48 482.298C1154.06 481.973 1153 481.456 1152.32 480.747C1151.65 480.038 1151.31 479.14 1151.31 478.053C1151.31 477.151 1151.56 476.362 1152.06 475.686C1152.57 475.01 1153.26 474.483 1154.15 474.105C1155.04 473.721 1156.06 473.528 1157.2 473.528C1158.85 473.528 1160.15 473.886 1161.1 474.602C1162.05 475.312 1162.68 476.263 1162.98 477.456Z" fill="white"/>
<path d="M841.117 546.636H844.607L849.927 555.893H850.146L855.465 546.636H858.955L851.568 559.006V567H848.505V559.006L841.117 546.636ZM865.684 567.308C864.18 567.308 862.884 566.987 861.797 566.344C860.716 565.694 859.881 564.783 859.291 563.609C858.708 562.429 858.416 561.047 858.416 559.463C858.416 557.899 858.708 556.52 859.291 555.327C859.881 554.134 860.703 553.202 861.757 552.533C862.818 551.863 864.057 551.528 865.476 551.528C866.337 551.528 867.173 551.671 867.981 551.956C868.79 552.241 869.516 552.688 870.159 553.298C870.802 553.908 871.309 554.7 871.68 555.675C872.051 556.643 872.237 557.819 872.237 559.205V560.259H860.096V558.031H869.324C869.324 557.249 869.165 556.556 868.846 555.953C868.528 555.343 868.081 554.863 867.504 554.511C866.934 554.16 866.265 553.984 865.496 553.984C864.66 553.984 863.931 554.19 863.308 554.601C862.692 555.005 862.214 555.536 861.876 556.192C861.545 556.841 861.379 557.547 861.379 558.31V560.05C861.379 561.071 861.558 561.939 861.916 562.655C862.281 563.371 862.788 563.918 863.437 564.295C864.087 564.667 864.846 564.852 865.714 564.852C866.278 564.852 866.791 564.773 867.256 564.614C867.72 564.448 868.121 564.203 868.459 563.878C868.797 563.553 869.055 563.152 869.234 562.675L872.048 563.182C871.823 564.01 871.418 564.736 870.835 565.359C870.258 565.976 869.532 566.456 868.657 566.801C867.789 567.139 866.798 567.308 865.684 567.308ZM886.98 555.456L884.286 555.933C884.173 555.589 883.994 555.26 883.749 554.949C883.51 554.637 883.185 554.382 882.774 554.183C882.363 553.984 881.85 553.885 881.233 553.885C880.391 553.885 879.689 554.074 879.125 554.452C878.562 554.823 878.28 555.304 878.28 555.893C878.28 556.404 878.469 556.815 878.847 557.126C879.225 557.438 879.834 557.693 880.676 557.892L883.102 558.449C884.508 558.774 885.555 559.274 886.244 559.95C886.934 560.626 887.279 561.505 887.279 562.585C887.279 563.5 887.013 564.315 886.483 565.031C885.959 565.741 885.227 566.297 884.286 566.702C883.351 567.106 882.267 567.308 881.034 567.308C879.324 567.308 877.929 566.944 876.848 566.214C875.768 565.479 875.105 564.435 874.86 563.082L877.733 562.645C877.912 563.394 878.28 563.961 878.837 564.345C879.394 564.723 880.119 564.912 881.014 564.912C881.989 564.912 882.768 564.71 883.351 564.305C883.934 563.894 884.226 563.394 884.226 562.804C884.226 562.327 884.047 561.926 883.689 561.601C883.338 561.276 882.798 561.031 882.068 560.865L879.483 560.298C878.058 559.973 877.004 559.456 876.321 558.747C875.645 558.038 875.307 557.14 875.307 556.053C875.307 555.151 875.559 554.362 876.063 553.686C876.566 553.01 877.262 552.483 878.151 552.105C879.039 551.721 880.057 551.528 881.203 551.528C882.854 551.528 884.153 551.886 885.101 552.602C886.049 553.312 886.675 554.263 886.98 555.456Z" fill="#1C191A"/>
<path d="M1139.78 546.636V567H1136.95L1126.6 552.065H1126.42V567H1123.34V546.636H1126.19L1136.55 561.591H1136.74V546.636H1139.78ZM1150.46 567.308C1149.02 567.308 1147.77 566.98 1146.71 566.324C1145.64 565.668 1144.81 564.75 1144.22 563.57C1143.63 562.39 1143.34 561.011 1143.34 559.433C1143.34 557.849 1143.63 556.464 1144.22 555.277C1144.81 554.09 1145.64 553.169 1146.71 552.513C1147.77 551.857 1149.02 551.528 1150.46 551.528C1151.89 551.528 1153.14 551.857 1154.2 552.513C1155.27 553.169 1156.1 554.09 1156.69 555.277C1157.28 556.464 1157.57 557.849 1157.57 559.433C1157.57 561.011 1157.28 562.39 1156.69 563.57C1156.1 564.75 1155.27 565.668 1154.2 566.324C1153.14 566.98 1151.89 567.308 1150.46 567.308ZM1150.47 564.812C1151.39 564.812 1152.16 564.567 1152.77 564.077C1153.38 563.586 1153.83 562.933 1154.12 562.118C1154.42 561.303 1154.57 560.404 1154.57 559.423C1154.57 558.449 1154.42 557.554 1154.12 556.739C1153.83 555.917 1153.38 555.257 1152.77 554.76C1152.16 554.263 1151.39 554.014 1150.47 554.014C1149.53 554.014 1148.75 554.263 1148.14 554.76C1147.53 555.257 1147.07 555.917 1146.78 556.739C1146.48 557.554 1146.34 558.449 1146.34 559.423C1146.34 560.404 1146.48 561.303 1146.78 562.118C1147.07 562.933 1147.53 563.586 1148.14 564.077C1148.75 564.567 1149.53 564.812 1150.47 564.812Z" fill="#1C191A"/>
<path d="M61.4052 255V234.636H68.6637C70.2414 234.636 71.5505 234.908 72.5913 235.452C73.6386 235.995 74.4208 236.748 74.9379 237.709C75.4549 238.663 75.7134 239.767 75.7134 241.02C75.7134 242.266 75.4516 243.363 74.9279 244.311C74.4109 245.252 73.6287 245.985 72.5813 246.509C71.5406 247.032 70.2314 247.294 68.6538 247.294H63.1552V244.649H68.3754C69.3697 244.649 70.1784 244.507 70.8015 244.222C71.4312 243.937 71.8919 243.522 72.1836 242.979C72.4753 242.435 72.6211 241.782 72.6211 241.02C72.6211 240.251 72.4719 239.585 72.1737 239.021C71.882 238.458 71.4213 238.027 70.7915 237.729C70.1684 237.424 69.3498 237.271 68.3356 237.271H64.4776V255H61.4052ZM71.4577 245.812L76.489 255H72.989L68.0572 245.812H71.4577ZM79.4521 255V234.636H92.2191V237.281H82.5245V243.486H91.5529V246.121H82.5245V252.355H92.3384V255H79.4521ZM96.3232 255V234.636H103.582C105.166 234.636 106.478 234.925 107.519 235.501C108.56 236.078 109.339 236.867 109.856 237.868C110.373 238.862 110.631 239.982 110.631 241.229C110.631 242.482 110.37 243.608 109.846 244.609C109.329 245.604 108.547 246.393 107.499 246.976C106.459 247.553 105.149 247.841 103.572 247.841H98.5803V245.236H103.293C104.294 245.236 105.106 245.063 105.729 244.719C106.353 244.367 106.81 243.89 107.102 243.287C107.393 242.684 107.539 241.998 107.539 241.229C107.539 240.46 107.393 239.777 107.102 239.18C106.81 238.584 106.349 238.116 105.719 237.778C105.096 237.44 104.274 237.271 103.254 237.271H99.3956V255H96.3232ZM113.793 255H110.532L117.86 234.636H121.41L128.738 255H125.477L119.719 238.335H119.56L113.793 255ZM114.34 247.026H124.92V249.611H114.34V247.026ZM134.751 234.636V255H131.679V234.636H134.751ZM139.225 255V234.636H146.484C148.062 234.636 149.371 234.908 150.412 235.452C151.459 235.995 152.241 236.748 152.758 237.709C153.275 238.663 153.534 239.767 153.534 241.02C153.534 242.266 153.272 243.363 152.748 244.311C152.231 245.252 151.449 245.985 150.402 246.509C149.361 247.032 148.052 247.294 146.474 247.294H140.975V244.649H146.196C147.19 244.649 147.999 244.507 148.622 244.222C149.252 243.937 149.712 243.522 150.004 242.979C150.296 242.435 150.441 241.782 150.441 241.02C150.441 240.251 150.292 239.585 149.994 239.021C149.702 238.458 149.242 238.027 148.612 237.729C147.989 237.424 147.17 237.271 146.156 237.271H142.298V255H139.225ZM149.278 245.812L154.309 255H150.809L145.877 245.812H149.278ZM181.596 241.259H178.494C178.374 240.596 178.152 240.012 177.827 239.509C177.503 239.005 177.105 238.577 176.634 238.226C176.164 237.875 175.637 237.609 175.053 237.43C174.477 237.251 173.863 237.162 173.214 237.162C172.04 237.162 170.99 237.457 170.062 238.047C169.14 238.637 168.411 239.502 167.874 240.642C167.344 241.782 167.079 243.174 167.079 244.818C167.079 246.475 167.344 247.874 167.874 249.014C168.411 250.154 169.144 251.016 170.072 251.599C171 252.183 172.044 252.474 173.204 252.474C173.847 252.474 174.457 252.388 175.033 252.216C175.617 252.037 176.144 251.775 176.614 251.43C177.085 251.086 177.483 250.665 177.808 250.168C178.139 249.664 178.368 249.087 178.494 248.438L181.596 248.447C181.43 249.448 181.109 250.37 180.631 251.212C180.161 252.047 179.554 252.769 178.812 253.379C178.076 253.982 177.234 254.45 176.286 254.781C175.338 255.113 174.304 255.278 173.184 255.278C171.421 255.278 169.85 254.861 168.471 254.026C167.092 253.184 166.005 251.981 165.21 250.416C164.421 248.852 164.026 246.986 164.026 244.818C164.026 242.644 164.424 240.778 165.219 239.22C166.015 237.656 167.102 236.456 168.481 235.621C169.86 234.779 171.427 234.358 173.184 234.358C174.264 234.358 175.272 234.514 176.207 234.825C177.148 235.13 177.993 235.581 178.742 236.178C179.491 236.768 180.111 237.49 180.602 238.345C181.092 239.194 181.424 240.165 181.596 241.259ZM202.961 244.818C202.961 246.992 202.564 248.862 201.768 250.426C200.973 251.984 199.882 253.184 198.497 254.026C197.118 254.861 195.55 255.278 193.794 255.278C192.03 255.278 190.456 254.861 189.071 254.026C187.692 253.184 186.605 251.981 185.809 250.416C185.014 248.852 184.616 246.986 184.616 244.818C184.616 242.644 185.014 240.778 185.809 239.22C186.605 237.656 187.692 236.456 189.071 235.621C190.456 234.779 192.03 234.358 193.794 234.358C195.55 234.358 197.118 234.779 198.497 235.621C199.882 236.456 200.973 237.656 201.768 239.22C202.564 240.778 202.961 242.644 202.961 244.818ZM199.919 244.818C199.919 243.161 199.65 241.766 199.113 240.632C198.583 239.492 197.854 238.63 196.926 238.047C196.004 237.457 194.96 237.162 193.794 237.162C192.62 237.162 191.573 237.457 190.652 238.047C189.73 238.63 189.001 239.492 188.464 240.632C187.934 241.766 187.669 243.161 187.669 244.818C187.669 246.475 187.934 247.874 188.464 249.014C189.001 250.148 189.73 251.009 190.652 251.599C191.573 252.183 192.62 252.474 193.794 252.474C194.96 252.474 196.004 252.183 196.926 251.599C197.854 251.009 198.583 250.148 199.113 249.014C199.65 247.874 199.919 246.475 199.919 244.818ZM217.898 239.986C217.792 239.045 217.355 238.315 216.586 237.798C215.817 237.275 214.849 237.013 213.683 237.013C212.847 237.013 212.125 237.145 211.515 237.411C210.905 237.669 210.431 238.027 210.093 238.484C209.762 238.935 209.596 239.449 209.596 240.026C209.596 240.509 209.709 240.927 209.934 241.278C210.166 241.63 210.468 241.925 210.839 242.163C211.217 242.395 211.621 242.591 212.052 242.75C212.483 242.902 212.897 243.028 213.295 243.128L215.283 243.645C215.933 243.804 216.599 244.019 217.282 244.291C217.965 244.563 218.598 244.921 219.181 245.365C219.764 245.809 220.235 246.359 220.593 247.016C220.958 247.672 221.14 248.457 221.14 249.372C221.14 250.526 220.842 251.55 220.245 252.445C219.655 253.339 218.797 254.045 217.67 254.562C216.549 255.08 215.194 255.338 213.603 255.338C212.078 255.338 210.759 255.096 209.646 254.612C208.532 254.128 207.66 253.442 207.031 252.554C206.401 251.659 206.053 250.598 205.987 249.372H209.069C209.129 250.108 209.367 250.721 209.785 251.212C210.209 251.696 210.749 252.057 211.406 252.295C212.068 252.527 212.794 252.643 213.583 252.643C214.451 252.643 215.224 252.508 215.9 252.236C216.583 251.957 217.12 251.573 217.511 251.082C217.902 250.585 218.097 250.005 218.097 249.342C218.097 248.739 217.925 248.245 217.58 247.861C217.242 247.476 216.781 247.158 216.198 246.906C215.621 246.654 214.969 246.432 214.239 246.24L211.833 245.584C210.202 245.14 208.91 244.487 207.955 243.625C207.007 242.763 206.533 241.623 206.533 240.205C206.533 239.031 206.852 238.007 207.488 237.132C208.124 236.257 208.986 235.578 210.073 235.094C211.16 234.603 212.387 234.358 213.752 234.358C215.131 234.358 216.347 234.6 217.401 235.084C218.462 235.568 219.297 236.234 219.907 237.082C220.517 237.924 220.835 238.892 220.862 239.986H217.898ZM223.807 237.281V234.636H239.567V237.281H233.213V255H230.151V237.281H223.807ZM254.156 239.986C254.05 239.045 253.613 238.315 252.844 237.798C252.075 237.275 251.107 237.013 249.94 237.013C249.105 237.013 248.383 237.145 247.773 237.411C247.163 237.669 246.689 238.027 246.351 238.484C246.019 238.935 245.854 239.449 245.854 240.026C245.854 240.509 245.966 240.927 246.192 241.278C246.424 241.63 246.725 241.925 247.097 242.163C247.474 242.395 247.879 242.591 248.31 242.75C248.741 242.902 249.155 243.028 249.553 243.128L251.541 243.645C252.191 243.804 252.857 244.019 253.54 244.291C254.223 244.563 254.856 244.921 255.439 245.365C256.022 245.809 256.493 246.359 256.851 247.016C257.215 247.672 257.398 248.457 257.398 249.372C257.398 250.526 257.099 251.55 256.503 252.445C255.913 253.339 255.054 254.045 253.928 254.562C252.807 255.08 251.452 255.338 249.861 255.338C248.336 255.338 247.017 255.096 245.903 254.612C244.79 254.128 243.918 253.442 243.288 252.554C242.659 251.659 242.311 250.598 242.244 249.372H245.327C245.386 250.108 245.625 250.721 246.043 251.212C246.467 251.696 247.007 252.057 247.663 252.295C248.326 252.527 249.052 252.643 249.841 252.643C250.709 252.643 251.482 252.508 252.158 252.236C252.84 251.957 253.377 251.573 253.768 251.082C254.16 250.585 254.355 250.005 254.355 249.342C254.355 248.739 254.183 248.245 253.838 247.861C253.5 247.476 253.039 247.158 252.456 246.906C251.879 246.654 251.226 246.432 250.497 246.24L248.091 245.584C246.46 245.14 245.168 244.487 244.213 243.625C243.265 242.763 242.791 241.623 242.791 240.205C242.791 239.031 243.109 238.007 243.746 237.132C244.382 236.257 245.244 235.578 246.331 235.094C247.418 234.603 248.644 234.358 250.01 234.358C251.389 234.358 252.605 234.6 253.659 235.084C254.72 235.568 255.555 236.234 256.165 237.082C256.775 237.924 257.093 238.892 257.119 239.986H254.156Z" fill="#1C191A"/>
<path d="M78.4631 319.259H75.3608C75.2415 318.596 75.0194 318.012 74.6946 317.509C74.3698 317.005 73.9721 316.577 73.5014 316.226C73.0308 315.875 72.5038 315.609 71.9205 315.43C71.3438 315.251 70.7306 315.162 70.081 315.162C68.9077 315.162 67.857 315.457 66.929 316.047C66.0076 316.637 65.2784 317.502 64.7415 318.642C64.2112 319.782 63.946 321.174 63.946 322.818C63.946 324.475 64.2112 325.874 64.7415 327.014C65.2784 328.154 66.0109 329.016 66.9389 329.599C67.867 330.183 68.911 330.474 70.071 330.474C70.714 330.474 71.3239 330.388 71.9006 330.216C72.4839 330.037 73.0109 329.775 73.4815 329.43C73.9522 329.086 74.3499 328.665 74.6747 328.168C75.0062 327.664 75.2348 327.087 75.3608 326.438L78.4631 326.447C78.2973 327.448 77.9759 328.37 77.4986 329.212C77.0279 330.047 76.4214 330.769 75.679 331.379C74.9432 331.982 74.1013 332.45 73.1534 332.781C72.2055 333.113 71.1714 333.278 70.0511 333.278C68.2879 333.278 66.7169 332.861 65.3381 332.026C63.9593 331.184 62.8722 329.981 62.0767 328.416C61.2879 326.852 60.8935 324.986 60.8935 322.818C60.8935 320.644 61.2912 318.778 62.0866 317.22C62.8821 315.656 63.9692 314.456 65.348 313.621C66.7268 312.779 68.2945 312.358 70.0511 312.358C71.1316 312.358 72.1392 312.514 73.0739 312.825C74.0152 313.13 74.8603 313.581 75.6094 314.178C76.3584 314.768 76.9782 315.49 77.4688 316.345C77.9593 317.194 78.2907 318.165 78.4631 319.259ZM82.1396 333V312.636H85.212V330.355H94.4393V333H82.1396ZM114.84 322.818C114.84 324.992 114.442 326.862 113.647 328.426C112.852 329.984 111.761 331.184 110.376 332.026C108.997 332.861 107.429 333.278 105.673 333.278C103.909 333.278 102.335 332.861 100.95 332.026C99.5708 331.184 98.4837 329.981 97.6882 328.416C96.8928 326.852 96.495 324.986 96.495 322.818C96.495 320.644 96.8928 318.778 97.6882 317.22C98.4837 315.656 99.5708 314.456 100.95 313.621C102.335 312.779 103.909 312.358 105.673 312.358C107.429 312.358 108.997 312.779 110.376 313.621C111.761 314.456 112.852 315.656 113.647 317.22C114.442 318.778 114.84 320.644 114.84 322.818ZM111.798 322.818C111.798 321.161 111.529 319.766 110.992 318.632C110.462 317.492 109.733 316.63 108.805 316.047C107.883 315.457 106.839 315.162 105.673 315.162C104.499 315.162 103.452 315.457 102.531 316.047C101.609 316.63 100.88 317.492 100.343 318.632C99.8127 319.766 99.5476 321.161 99.5476 322.818C99.5476 324.475 99.8127 325.874 100.343 327.014C100.88 328.148 101.609 329.009 102.531 329.599C103.452 330.183 104.499 330.474 105.673 330.474C106.839 330.474 107.883 330.183 108.805 329.599C109.733 329.009 110.462 328.148 110.992 327.014C111.529 325.874 111.798 324.475 111.798 322.818ZM129.777 317.986C129.671 317.045 129.234 316.315 128.465 315.798C127.696 315.275 126.728 315.013 125.561 315.013C124.726 315.013 124.004 315.145 123.394 315.411C122.784 315.669 122.31 316.027 121.972 316.484C121.641 316.935 121.475 317.449 121.475 318.026C121.475 318.509 121.587 318.927 121.813 319.278C122.045 319.63 122.346 319.925 122.718 320.163C123.096 320.395 123.5 320.591 123.931 320.75C124.362 320.902 124.776 321.028 125.174 321.128L127.162 321.645C127.812 321.804 128.478 322.019 129.161 322.291C129.844 322.563 130.477 322.921 131.06 323.365C131.643 323.809 132.114 324.359 132.472 325.016C132.837 325.672 133.019 326.457 133.019 327.372C133.019 328.526 132.721 329.55 132.124 330.445C131.534 331.339 130.676 332.045 129.549 332.562C128.428 333.08 127.073 333.338 125.482 333.338C123.957 333.338 122.638 333.096 121.525 332.612C120.411 332.128 119.539 331.442 118.909 330.554C118.28 329.659 117.932 328.598 117.865 327.372H120.948C121.007 328.108 121.246 328.721 121.664 329.212C122.088 329.696 122.628 330.057 123.284 330.295C123.947 330.527 124.673 330.643 125.462 330.643C126.33 330.643 127.103 330.508 127.779 330.236C128.462 329.957 128.998 329.573 129.39 329.082C129.781 328.585 129.976 328.005 129.976 327.342C129.976 326.739 129.804 326.245 129.459 325.861C129.121 325.476 128.66 325.158 128.077 324.906C127.5 324.654 126.847 324.432 126.118 324.24L123.712 323.584C122.081 323.14 120.789 322.487 119.834 321.625C118.886 320.763 118.412 319.623 118.412 318.205C118.412 317.031 118.73 316.007 119.367 315.132C120.003 314.257 120.865 313.578 121.952 313.094C123.039 312.603 124.266 312.358 125.631 312.358C127.01 312.358 128.226 312.6 129.28 313.084C130.341 313.568 131.176 314.234 131.786 315.082C132.396 315.924 132.714 316.892 132.74 317.986H129.777ZM139.763 312.636V333H136.69V312.636H139.763ZM160.673 312.636V333H157.849L147.499 318.065H147.31V333H144.237V312.636H147.081L157.442 327.591H157.631V312.636H160.673ZM178.936 319.07C178.744 318.466 178.486 317.926 178.161 317.449C177.843 316.965 177.462 316.554 177.017 316.216C176.573 315.871 176.066 315.609 175.496 315.43C174.933 315.251 174.313 315.162 173.637 315.162C172.49 315.162 171.456 315.457 170.534 316.047C169.613 316.637 168.884 317.502 168.347 318.642C167.817 319.776 167.551 321.164 167.551 322.808C167.551 324.459 167.82 325.854 168.357 326.994C168.894 328.134 169.63 329 170.564 329.589C171.499 330.179 172.563 330.474 173.756 330.474C174.863 330.474 175.828 330.249 176.65 329.798C177.478 329.348 178.118 328.711 178.569 327.889C179.026 327.061 179.255 326.086 179.255 324.966L180.05 325.115H174.223V322.58H182.228V324.896C182.228 326.607 181.863 328.091 181.134 329.351C180.411 330.604 179.41 331.571 178.131 332.254C176.858 332.937 175.4 333.278 173.756 333.278C171.913 333.278 170.296 332.854 168.904 332.006C167.518 331.157 166.438 329.954 165.662 328.396C164.887 326.832 164.499 324.976 164.499 322.828C164.499 321.204 164.724 319.746 165.175 318.453C165.626 317.161 166.259 316.063 167.074 315.162C167.896 314.254 168.861 313.561 169.968 313.084C171.081 312.6 172.298 312.358 173.617 312.358C174.717 312.358 175.741 312.52 176.689 312.845C177.644 313.17 178.492 313.631 179.235 314.227C179.984 314.824 180.604 315.533 181.094 316.355C181.585 317.17 181.916 318.075 182.088 319.07H178.936ZM210.451 319.259H207.349C207.23 318.596 207.008 318.012 206.683 317.509C206.358 317.005 205.96 316.577 205.49 316.226C205.019 315.875 204.492 315.609 203.909 315.43C203.332 315.251 202.719 315.162 202.069 315.162C200.896 315.162 199.845 315.457 198.917 316.047C197.996 316.637 197.267 317.502 196.73 318.642C196.199 319.782 195.934 321.174 195.934 322.818C195.934 324.475 196.199 325.874 196.73 327.014C197.267 328.154 197.999 329.016 198.927 329.599C199.855 330.183 200.899 330.474 202.059 330.474C202.702 330.474 203.312 330.388 203.889 330.216C204.472 330.037 204.999 329.775 205.47 329.43C205.94 329.086 206.338 328.665 206.663 328.168C206.994 327.664 207.223 327.087 207.349 326.438L210.451 326.447C210.286 327.448 209.964 328.37 209.487 329.212C209.016 330.047 208.41 330.769 207.667 331.379C206.931 331.982 206.09 332.45 205.142 332.781C204.194 333.113 203.16 333.278 202.039 333.278C200.276 333.278 198.705 332.861 197.326 332.026C195.948 331.184 194.86 329.981 194.065 328.416C193.276 326.852 192.882 324.986 192.882 322.818C192.882 320.644 193.279 318.778 194.075 317.22C194.87 315.656 195.958 314.456 197.336 313.621C198.715 312.779 200.283 312.358 202.039 312.358C203.12 312.358 204.127 312.514 205.062 312.825C206.003 313.13 206.849 313.581 207.598 314.178C208.347 314.768 208.967 315.49 209.457 316.345C209.948 317.194 210.279 318.165 210.451 319.259ZM231.817 322.818C231.817 324.992 231.419 326.862 230.624 328.426C229.828 329.984 228.738 331.184 227.352 332.026C225.973 332.861 224.406 333.278 222.649 333.278C220.886 333.278 219.312 332.861 217.926 332.026C216.547 331.184 215.46 329.981 214.665 328.416C213.869 326.852 213.472 324.986 213.472 322.818C213.472 320.644 213.869 318.778 214.665 317.22C215.46 315.656 216.547 314.456 217.926 313.621C219.312 312.779 220.886 312.358 222.649 312.358C224.406 312.358 225.973 312.779 227.352 313.621C228.738 314.456 229.828 315.656 230.624 317.22C231.419 318.778 231.817 320.644 231.817 322.818ZM228.774 322.818C228.774 321.161 228.506 319.766 227.969 318.632C227.438 317.492 226.709 316.63 225.781 316.047C224.86 315.457 223.816 315.162 222.649 315.162C221.476 315.162 220.429 315.457 219.507 316.047C218.586 316.63 217.857 317.492 217.32 318.632C216.789 319.766 216.524 321.161 216.524 322.818C216.524 324.475 216.789 325.874 217.32 327.014C217.857 328.148 218.586 329.009 219.507 329.599C220.429 330.183 221.476 330.474 222.649 330.474C223.816 330.474 224.86 330.183 225.781 329.599C226.709 329.009 227.438 328.148 227.969 327.014C228.506 325.874 228.774 324.475 228.774 322.818ZM246.754 317.986C246.648 317.045 246.21 316.315 245.441 315.798C244.672 315.275 243.705 315.013 242.538 315.013C241.703 315.013 240.98 315.145 240.37 315.411C239.761 315.669 239.287 316.027 238.949 316.484C238.617 316.935 238.451 317.449 238.451 318.026C238.451 318.509 238.564 318.927 238.789 319.278C239.021 319.63 239.323 319.925 239.694 320.163C240.072 320.395 240.476 320.591 240.907 320.75C241.338 320.902 241.752 321.028 242.15 321.128L244.139 321.645C244.788 321.804 245.455 322.019 246.137 322.291C246.82 322.563 247.453 322.921 248.037 323.365C248.62 323.809 249.091 324.359 249.449 325.016C249.813 325.672 249.995 326.457 249.995 327.372C249.995 328.526 249.697 329.55 249.1 330.445C248.511 331.339 247.652 332.045 246.525 332.562C245.405 333.08 244.049 333.338 242.458 333.338C240.934 333.338 239.615 333.096 238.501 332.612C237.387 332.128 236.516 331.442 235.886 330.554C235.256 329.659 234.908 328.598 234.842 327.372H237.924C237.984 328.108 238.223 328.721 238.64 329.212C239.065 329.696 239.605 330.057 240.261 330.295C240.924 330.527 241.65 330.643 242.439 330.643C243.307 330.643 244.079 330.508 244.755 330.236C245.438 329.957 245.975 329.573 246.366 329.082C246.757 328.585 246.953 328.005 246.953 327.342C246.953 326.739 246.78 326.245 246.436 325.861C246.098 325.476 245.637 325.158 245.054 324.906C244.477 324.654 243.824 324.432 243.095 324.24L240.689 323.584C239.058 323.14 237.765 322.487 236.811 321.625C235.863 320.763 235.389 319.623 235.389 318.205C235.389 317.031 235.707 316.007 236.343 315.132C236.98 314.257 237.842 313.578 238.929 313.094C240.016 312.603 241.242 312.358 242.608 312.358C243.986 312.358 245.203 312.6 246.257 313.084C247.317 313.568 248.153 314.234 248.762 315.082C249.372 315.924 249.69 316.892 249.717 317.986H246.754ZM252.663 315.281V312.636H268.423V315.281H262.069V333H259.006V315.281H252.663ZM283.012 317.986C282.906 317.045 282.468 316.315 281.699 315.798C280.93 315.275 279.962 315.013 278.796 315.013C277.961 315.013 277.238 315.145 276.628 315.411C276.018 315.669 275.544 316.027 275.206 316.484C274.875 316.935 274.709 317.449 274.709 318.026C274.709 318.509 274.822 318.927 275.047 319.278C275.279 319.63 275.581 319.925 275.952 320.163C276.33 320.395 276.734 320.591 277.165 320.75C277.596 320.902 278.01 321.028 278.408 321.128L280.397 321.645C281.046 321.804 281.712 322.019 282.395 322.291C283.078 322.563 283.711 322.921 284.294 323.365C284.878 323.809 285.348 324.359 285.706 325.016C286.071 325.672 286.253 326.457 286.253 327.372C286.253 328.526 285.955 329.55 285.358 330.445C284.768 331.339 283.91 332.045 282.783 332.562C281.663 333.08 280.307 333.338 278.716 333.338C277.192 333.338 275.873 333.096 274.759 332.612C273.645 332.128 272.774 331.442 272.144 330.554C271.514 329.659 271.166 328.598 271.1 327.372H274.182C274.242 328.108 274.48 328.721 274.898 329.212C275.322 329.696 275.863 330.057 276.519 330.295C277.182 330.527 277.908 330.643 278.696 330.643C279.565 330.643 280.337 330.508 281.013 330.236C281.696 329.957 282.233 329.573 282.624 329.082C283.015 328.585 283.211 328.005 283.211 327.342C283.211 326.739 283.038 326.245 282.694 325.861C282.355 325.476 281.895 325.158 281.311 324.906C280.735 324.654 280.082 324.432 279.353 324.24L276.946 323.584C275.316 323.14 274.023 322.487 273.069 321.625C272.121 320.763 271.647 319.623 271.647 318.205C271.647 317.031 271.965 316.007 272.601 315.132C273.238 314.257 274.099 313.578 275.186 313.094C276.274 312.603 277.5 312.358 278.865 312.358C280.244 312.358 281.461 312.6 282.515 313.084C283.575 313.568 284.41 314.234 285.02 315.082C285.63 315.924 285.948 316.892 285.975 317.986H283.012Z" fill="white"/>
<path d="M63.1293 411H59.8679L67.196 390.636H70.7457L78.0739 411H74.8125L69.0554 394.335H68.8963L63.1293 411ZM63.6761 403.026H74.2557V405.611H63.6761V403.026ZM80.6616 390.636L86.3292 407.222H86.5579L92.2255 390.636H95.5465L88.2184 411H84.6687L77.3406 390.636H80.6616ZM111.257 397.07C111.065 396.466 110.806 395.926 110.481 395.449C110.163 394.965 109.782 394.554 109.338 394.216C108.894 393.871 108.386 393.609 107.816 393.43C107.253 393.251 106.633 393.162 105.957 393.162C104.81 393.162 103.776 393.457 102.855 394.047C101.933 394.637 101.204 395.502 100.667 396.642C100.137 397.776 99.8718 399.164 99.8718 400.808C99.8718 402.459 100.14 403.854 100.677 404.994C101.214 406.134 101.95 407 102.885 407.589C103.819 408.179 104.883 408.474 106.076 408.474C107.183 408.474 108.148 408.249 108.97 407.798C109.798 407.348 110.438 406.711 110.889 405.889C111.346 405.061 111.575 404.086 111.575 402.966L112.37 403.115H106.544V400.58H114.548V402.896C114.548 404.607 114.183 406.091 113.454 407.351C112.732 408.604 111.731 409.571 110.451 410.254C109.179 410.937 107.72 411.278 106.076 411.278C104.234 411.278 102.616 410.854 101.224 410.006C99.8387 409.157 98.7582 407.954 97.9826 406.396C97.207 404.832 96.8192 402.976 96.8192 400.828C96.8192 399.204 97.0446 397.746 97.4954 396.453C97.9461 395.161 98.5792 394.063 99.3945 393.162C100.217 392.254 101.181 391.561 102.288 391.084C103.402 390.6 104.618 390.358 105.937 390.358C107.038 390.358 108.062 390.52 109.01 390.845C109.964 391.17 110.813 391.631 111.555 392.227C112.304 392.824 112.924 393.533 113.414 394.355C113.905 395.17 114.236 396.075 114.409 397.07H111.257ZM120.168 411.189C119.625 411.189 119.157 410.997 118.766 410.612C118.375 410.221 118.18 409.75 118.18 409.2C118.18 408.657 118.375 408.193 118.766 407.808C119.157 407.417 119.625 407.222 120.168 407.222C120.712 407.222 121.179 407.417 121.57 407.808C121.961 408.193 122.157 408.657 122.157 409.2C122.157 409.565 122.064 409.9 121.879 410.205C121.7 410.503 121.461 410.741 121.163 410.92C120.864 411.099 120.533 411.189 120.168 411.189ZM140.052 411H133.46V390.636H140.261C142.256 390.636 143.97 391.044 145.402 391.859C146.833 392.668 147.931 393.831 148.693 395.349C149.462 396.861 149.846 398.674 149.846 400.788C149.846 402.91 149.458 404.732 148.683 406.257C147.914 407.782 146.8 408.955 145.342 409.777C143.884 410.592 142.12 411 140.052 411ZM136.532 408.315H139.883C141.434 408.315 142.724 408.024 143.751 407.44C144.779 406.85 145.547 405.999 146.058 404.885C146.568 403.765 146.824 402.399 146.824 400.788C146.824 399.191 146.568 397.835 146.058 396.722C145.554 395.608 144.802 394.763 143.801 394.186C142.8 393.609 141.557 393.321 140.072 393.321H136.532V408.315ZM154.375 411H151.114L158.442 390.636H161.992L169.32 411H166.059L160.301 394.335H160.142L154.375 411ZM154.922 403.026H165.502V405.611H154.922V403.026ZM168.612 390.636H172.102L177.421 399.893H177.64L182.96 390.636H186.45L179.062 403.006V411H175.999V403.006L168.612 390.636ZM195.756 393.281V390.636H211.516V393.281H205.163V411H202.1V393.281H195.756ZM231.813 400.818C231.813 402.992 231.415 404.862 230.62 406.426C229.824 407.984 228.734 409.184 227.348 410.026C225.97 410.861 224.402 411.278 222.645 411.278C220.882 411.278 219.308 410.861 217.922 410.026C216.543 409.184 215.456 407.981 214.661 406.416C213.865 404.852 213.468 402.986 213.468 400.818C213.468 398.644 213.865 396.778 214.661 395.22C215.456 393.656 216.543 392.456 217.922 391.621C219.308 390.779 220.882 390.358 222.645 390.358C224.402 390.358 225.97 390.779 227.348 391.621C228.734 392.456 229.824 393.656 230.62 395.22C231.415 396.778 231.813 398.644 231.813 400.818ZM228.77 400.818C228.77 399.161 228.502 397.766 227.965 396.632C227.435 395.492 226.705 394.63 225.777 394.047C224.856 393.457 223.812 393.162 222.645 393.162C221.472 393.162 220.425 393.457 219.503 394.047C218.582 394.63 217.853 395.492 217.316 396.632C216.785 397.766 216.52 399.161 216.52 400.818C216.52 402.475 216.785 403.874 217.316 405.014C217.853 406.148 218.582 407.009 219.503 407.599C220.425 408.183 221.472 408.474 222.645 408.474C223.812 408.474 224.856 408.183 225.777 407.599C226.705 407.009 227.435 406.148 227.965 405.014C228.502 403.874 228.77 402.475 228.77 400.818ZM259.967 397.259H256.865C256.745 396.596 256.523 396.012 256.199 395.509C255.874 395.005 255.476 394.577 255.005 394.226C254.535 393.875 254.008 393.609 253.424 393.43C252.848 393.251 252.234 393.162 251.585 393.162C250.412 393.162 249.361 393.457 248.433 394.047C247.511 394.637 246.782 395.502 246.245 396.642C245.715 397.782 245.45 399.174 245.45 400.818C245.45 402.475 245.715 403.874 246.245 405.014C246.782 406.154 247.515 407.016 248.443 407.599C249.371 408.183 250.415 408.474 251.575 408.474C252.218 408.474 252.828 408.388 253.404 408.216C253.988 408.037 254.515 407.775 254.985 407.43C255.456 407.086 255.854 406.665 256.179 406.168C256.51 405.664 256.739 405.087 256.865 404.438L259.967 404.447C259.801 405.448 259.48 406.37 259.002 407.212C258.532 408.047 257.925 408.769 257.183 409.379C256.447 409.982 255.605 410.45 254.657 410.781C253.709 411.113 252.675 411.278 251.555 411.278C249.792 411.278 248.221 410.861 246.842 410.026C245.463 409.184 244.376 407.981 243.581 406.416C242.792 404.852 242.397 402.986 242.397 400.818C242.397 398.644 242.795 396.778 243.591 395.22C244.386 393.656 245.473 392.456 246.852 391.621C248.231 390.779 249.798 390.358 251.555 390.358C252.636 390.358 253.643 390.514 254.578 390.825C255.519 391.13 256.364 391.581 257.113 392.178C257.862 392.768 258.482 393.49 258.973 394.345C259.463 395.194 259.795 396.165 259.967 397.259ZM263.643 411V390.636H266.716V408.355H275.943V411H263.643ZM296.344 400.818C296.344 402.992 295.946 404.862 295.151 406.426C294.355 407.984 293.265 409.184 291.88 410.026C290.501 410.861 288.933 411.278 287.176 411.278C285.413 411.278 283.839 410.861 282.453 410.026C281.075 409.184 279.988 407.981 279.192 406.416C278.397 404.852 277.999 402.986 277.999 400.818C277.999 398.644 278.397 396.778 279.192 395.22C279.988 393.656 281.075 392.456 282.453 391.621C283.839 390.779 285.413 390.358 287.176 390.358C288.933 390.358 290.501 390.779 291.88 391.621C293.265 392.456 294.355 393.656 295.151 395.22C295.946 396.778 296.344 398.644 296.344 400.818ZM293.301 400.818C293.301 399.161 293.033 397.766 292.496 396.632C291.966 395.492 291.237 394.63 290.309 394.047C289.387 393.457 288.343 393.162 287.176 393.162C286.003 393.162 284.956 393.457 284.034 394.047C283.113 394.63 282.384 395.492 281.847 396.632C281.317 397.766 281.051 399.161 281.051 400.818C281.051 402.475 281.317 403.874 281.847 405.014C282.384 406.148 283.113 407.009 284.034 407.599C284.956 408.183 286.003 408.474 287.176 408.474C288.343 408.474 289.387 408.183 290.309 407.599C291.237 407.009 291.966 406.148 292.496 405.014C293.033 403.874 293.301 402.475 293.301 400.818ZM311.281 395.986C311.175 395.045 310.738 394.315 309.969 393.798C309.2 393.275 308.232 393.013 307.065 393.013C306.23 393.013 305.508 393.145 304.898 393.411C304.288 393.669 303.814 394.027 303.476 394.484C303.144 394.935 302.979 395.449 302.979 396.026C302.979 396.509 303.091 396.927 303.317 397.278C303.549 397.63 303.85 397.925 304.222 398.163C304.599 398.395 305.004 398.591 305.435 398.75C305.866 398.902 306.28 399.028 306.678 399.128L308.666 399.645C309.316 399.804 309.982 400.019 310.665 400.291C311.348 400.563 311.981 400.921 312.564 401.365C313.147 401.809 313.618 402.359 313.976 403.016C314.34 403.672 314.523 404.457 314.523 405.372C314.523 406.526 314.224 407.55 313.628 408.445C313.038 409.339 312.179 410.045 311.053 410.562C309.932 411.08 308.577 411.338 306.986 411.338C305.461 411.338 304.142 411.096 303.028 410.612C301.915 410.128 301.043 409.442 300.413 408.554C299.784 407.659 299.436 406.598 299.369 405.372H302.452C302.511 406.108 302.75 406.721 303.168 407.212C303.592 407.696 304.132 408.057 304.788 408.295C305.451 408.527 306.177 408.643 306.966 408.643C307.834 408.643 308.607 408.508 309.283 408.236C309.965 407.957 310.502 407.573 310.893 407.082C311.285 406.585 311.48 406.005 311.48 405.342C311.48 404.739 311.308 404.245 310.963 403.861C310.625 403.476 310.164 403.158 309.581 402.906C309.004 402.654 308.351 402.432 307.622 402.24L305.216 401.584C303.585 401.14 302.293 400.487 301.338 399.625C300.39 398.763 299.916 397.623 299.916 396.205C299.916 395.031 300.234 394.007 300.871 393.132C301.507 392.257 302.369 391.578 303.456 391.094C304.543 390.603 305.769 390.358 307.135 390.358C308.514 390.358 309.73 390.6 310.784 391.084C311.845 391.568 312.68 392.234 313.29 393.082C313.9 393.924 314.218 394.892 314.244 395.986H311.281ZM318.194 411V390.636H330.961V393.281H321.267V399.486H330.295V402.121H321.267V408.355H331.081V411H318.194Z" fill="#1C191A"/>
<path d="M76.8842 468.636V489H74.0604L63.7095 474.065H63.5206V489H60.4482V468.636H63.2919L73.6527 483.591H73.8416V468.636H76.8842ZM94.4613 468.636H97.5437V482.03C97.5437 483.455 97.2089 484.718 96.5394 485.818C95.8699 486.912 94.9286 487.774 93.7156 488.403C92.5025 489.027 91.0806 489.338 89.4499 489.338C87.8259 489.338 86.4073 489.027 85.1942 488.403C83.9812 487.774 83.0399 486.912 82.3704 485.818C81.7009 484.718 81.3661 483.455 81.3661 482.03V468.636H84.4386V481.781C84.4386 482.703 84.6407 483.521 85.0451 484.237C85.4561 484.953 86.0361 485.517 86.7852 485.928C87.5342 486.332 88.4225 486.534 89.4499 486.534C90.484 486.534 91.3756 486.332 92.1246 485.928C92.8803 485.517 93.457 484.953 93.8548 484.237C94.2591 483.521 94.4613 482.703 94.4613 481.781V468.636ZM102.011 468.636H105.739L112.222 484.466H112.461L118.944 468.636H122.673V489H119.749V474.264H119.56L113.555 488.97H111.129L105.123 474.254H104.934V489H102.011V468.636ZM127.14 489V468.636H134.597C136.042 468.636 137.239 468.875 138.186 469.352C139.134 469.823 139.844 470.463 140.314 471.271C140.785 472.073 141.02 472.978 141.02 473.986C141.02 474.834 140.864 475.55 140.553 476.134C140.241 476.71 139.824 477.174 139.3 477.526C138.783 477.87 138.213 478.122 137.59 478.281V478.48C138.266 478.513 138.926 478.732 139.569 479.136C140.218 479.534 140.755 480.101 141.179 480.837C141.604 481.572 141.816 482.467 141.816 483.521C141.816 484.562 141.57 485.497 141.08 486.325C140.596 487.147 139.847 487.8 138.833 488.284C137.819 488.761 136.523 489 134.945 489H127.14ZM130.212 486.365H134.647C136.118 486.365 137.172 486.08 137.809 485.51C138.445 484.94 138.763 484.227 138.763 483.372C138.763 482.729 138.601 482.139 138.276 481.602C137.951 481.065 137.487 480.638 136.884 480.32C136.287 480.001 135.578 479.842 134.756 479.842H130.212V486.365ZM130.212 477.446H134.328C135.018 477.446 135.638 477.313 136.188 477.048C136.745 476.783 137.185 476.412 137.51 475.935C137.842 475.451 138.007 474.881 138.007 474.224C138.007 473.383 137.712 472.677 137.123 472.107C136.533 471.536 135.628 471.251 134.408 471.251H130.212V477.446ZM145.46 489V468.636H158.227V471.281H148.532V477.486H157.561V480.121H148.532V486.355H158.346V489H145.46ZM162.331 489V468.636H169.589C171.167 468.636 172.476 468.908 173.517 469.452C174.564 469.995 175.347 470.748 175.864 471.709C176.381 472.663 176.639 473.767 176.639 475.02C176.639 476.266 176.377 477.363 175.854 478.311C175.337 479.252 174.554 479.985 173.507 480.509C172.466 481.032 171.157 481.294 169.58 481.294H164.081V478.649H169.301C170.295 478.649 171.104 478.507 171.727 478.222C172.357 477.937 172.818 477.522 173.109 476.979C173.401 476.435 173.547 475.782 173.547 475.02C173.547 474.251 173.398 473.585 173.099 473.021C172.808 472.458 172.347 472.027 171.717 471.729C171.094 471.424 170.276 471.271 169.261 471.271H165.403V489H162.331ZM172.384 479.812L177.415 489H173.915L168.983 479.812H172.384ZM205.477 478.818C205.477 480.992 205.079 482.862 204.284 484.426C203.488 485.984 202.398 487.184 201.012 488.026C199.634 488.861 198.066 489.278 196.309 489.278C194.546 489.278 192.972 488.861 191.586 488.026C190.208 487.184 189.12 485.981 188.325 484.416C187.529 482.852 187.132 480.986 187.132 478.818C187.132 476.644 187.529 474.778 188.325 473.22C189.12 471.656 190.208 470.456 191.586 469.621C192.972 468.779 194.546 468.358 196.309 468.358C198.066 468.358 199.634 468.779 201.012 469.621C202.398 470.456 203.488 471.656 204.284 473.22C205.079 474.778 205.477 476.644 205.477 478.818ZM202.434 478.818C202.434 477.161 202.166 475.766 201.629 474.632C201.099 473.492 200.369 472.63 199.441 472.047C198.52 471.457 197.476 471.162 196.309 471.162C195.136 471.162 194.089 471.457 193.167 472.047C192.246 472.63 191.517 473.492 190.98 474.632C190.449 475.766 190.184 477.161 190.184 478.818C190.184 480.475 190.449 481.874 190.98 483.014C191.517 484.148 192.246 485.009 193.167 485.599C194.089 486.183 195.136 486.474 196.309 486.474C197.476 486.474 198.52 486.183 199.441 485.599C200.369 485.009 201.099 484.148 201.629 483.014C202.166 481.874 202.434 480.475 202.434 478.818ZM209.308 489V468.636H221.935V471.281H212.38V477.486H221.031V480.121H212.38V489H209.308ZM244.23 473.986C244.124 473.045 243.687 472.315 242.918 471.798C242.149 471.275 241.181 471.013 240.015 471.013C239.179 471.013 238.457 471.145 237.847 471.411C237.237 471.669 236.763 472.027 236.425 472.484C236.094 472.935 235.928 473.449 235.928 474.026C235.928 474.509 236.041 474.927 236.266 475.278C236.498 475.63 236.8 475.925 237.171 476.163C237.549 476.395 237.953 476.591 238.384 476.75C238.815 476.902 239.229 477.028 239.627 477.128L241.615 477.645C242.265 477.804 242.931 478.019 243.614 478.291C244.297 478.563 244.93 478.921 245.513 479.365C246.096 479.809 246.567 480.359 246.925 481.016C247.29 481.672 247.472 482.457 247.472 483.372C247.472 484.526 247.174 485.55 246.577 486.445C245.987 487.339 245.129 488.045 244.002 488.562C242.882 489.08 241.526 489.338 239.935 489.338C238.41 489.338 237.091 489.096 235.978 488.612C234.864 488.128 233.992 487.442 233.363 486.554C232.733 485.659 232.385 484.598 232.319 483.372H235.401C235.461 484.108 235.699 484.721 236.117 485.212C236.541 485.696 237.081 486.057 237.738 486.295C238.4 486.527 239.126 486.643 239.915 486.643C240.783 486.643 241.556 486.508 242.232 486.236C242.915 485.957 243.452 485.573 243.843 485.082C244.234 484.585 244.429 484.005 244.429 483.342C244.429 482.739 244.257 482.245 243.912 481.861C243.574 481.476 243.114 481.158 242.53 480.906C241.953 480.654 241.301 480.432 240.571 480.24L238.165 479.584C236.534 479.14 235.242 478.487 234.287 477.625C233.339 476.763 232.865 475.623 232.865 474.205C232.865 473.031 233.184 472.007 233.82 471.132C234.456 470.257 235.318 469.578 236.405 469.094C237.492 468.603 238.719 468.358 240.084 468.358C241.463 468.358 242.679 468.6 243.733 469.084C244.794 469.568 245.629 470.234 246.239 471.082C246.849 471.924 247.167 472.892 247.194 473.986H244.23ZM251.143 489V468.636H254.216V477.486H264.368V468.636H267.45V489H264.368V480.121H254.216V489H251.143ZM289.614 478.818C289.614 480.992 289.216 482.862 288.42 484.426C287.625 485.984 286.535 487.184 285.149 488.026C283.77 488.861 282.203 489.278 280.446 489.278C278.683 489.278 277.108 488.861 275.723 488.026C274.344 487.184 273.257 485.981 272.462 484.416C271.666 482.852 271.268 480.986 271.268 478.818C271.268 476.644 271.666 474.778 272.462 473.22C273.257 471.656 274.344 470.456 275.723 469.621C277.108 468.779 278.683 468.358 280.446 468.358C282.203 468.358 283.77 468.779 285.149 469.621C286.535 470.456 287.625 471.656 288.42 473.22C289.216 474.778 289.614 476.644 289.614 478.818ZM286.571 478.818C286.571 477.161 286.303 475.766 285.766 474.632C285.235 473.492 284.506 472.63 283.578 472.047C282.657 471.457 281.613 471.162 280.446 471.162C279.273 471.162 278.225 471.457 277.304 472.047C276.383 472.63 275.653 473.492 275.116 474.632C274.586 475.766 274.321 477.161 274.321 478.818C274.321 480.475 274.586 481.874 275.116 483.014C275.653 484.148 276.383 485.009 277.304 485.599C278.225 486.183 279.273 486.474 280.446 486.474C281.613 486.474 282.657 486.183 283.578 485.599C284.506 485.009 285.235 484.148 285.766 483.014C286.303 481.874 286.571 480.475 286.571 478.818ZM297.185 489L291.538 468.636H294.769L298.737 484.406H298.925L303.052 468.636H306.254L310.38 484.416H310.569L314.526 468.636H317.768L312.11 489H309.018L304.732 473.747H304.573L300.288 489H297.185ZM323.642 468.636V489H320.569V468.636H323.642ZM344.552 468.636V489H341.728L331.377 474.065H331.189V489H328.116V468.636H330.96L341.321 483.591H341.51V468.636H344.552ZM362.815 475.07C362.623 474.466 362.365 473.926 362.04 473.449C361.722 472.965 361.34 472.554 360.896 472.216C360.452 471.871 359.945 471.609 359.375 471.43C358.812 471.251 358.192 471.162 357.516 471.162C356.369 471.162 355.335 471.457 354.413 472.047C353.492 472.637 352.763 473.502 352.226 474.642C351.696 475.776 351.43 477.164 351.43 478.808C351.43 480.459 351.699 481.854 352.236 482.994C352.773 484.134 353.509 485 354.443 485.589C355.378 486.179 356.442 486.474 357.635 486.474C358.742 486.474 359.706 486.249 360.528 485.798C361.357 485.348 361.997 484.711 362.447 483.889C362.905 483.061 363.134 482.086 363.134 480.966L363.929 481.115H358.102V478.58H366.107V480.896C366.107 482.607 365.742 484.091 365.013 485.351C364.29 486.604 363.289 487.571 362.01 488.254C360.737 488.937 359.279 489.278 357.635 489.278C355.792 489.278 354.175 488.854 352.783 488.006C351.397 487.157 350.317 485.954 349.541 484.396C348.766 482.832 348.378 480.976 348.378 478.828C348.378 477.204 348.603 475.746 349.054 474.453C349.505 473.161 350.138 472.063 350.953 471.162C351.775 470.254 352.74 469.561 353.847 469.084C354.96 468.6 356.177 468.358 357.496 468.358C358.596 468.358 359.62 468.52 360.568 468.845C361.523 469.17 362.371 469.631 363.114 470.227C363.863 470.824 364.482 471.533 364.973 472.355C365.464 473.17 365.795 474.075 365.967 475.07H362.815ZM381.113 473.986C381.007 473.045 380.57 472.315 379.801 471.798C379.032 471.275 378.064 471.013 376.897 471.013C376.062 471.013 375.34 471.145 374.73 471.411C374.12 471.669 373.646 472.027 373.308 472.484C372.976 472.935 372.811 473.449 372.811 474.026C372.811 474.509 372.923 474.927 373.149 475.278C373.381 475.63 373.682 475.925 374.054 476.163C374.431 476.395 374.836 476.591 375.267 476.75C375.698 476.902 376.112 477.028 376.51 477.128L378.498 477.645C379.148 477.804 379.814 478.019 380.497 478.291C381.18 478.563 381.813 478.921 382.396 479.365C382.979 479.809 383.45 480.359 383.808 481.016C384.172 481.672 384.355 482.457 384.355 483.372C384.355 484.526 384.056 485.55 383.46 486.445C382.87 487.339 382.011 488.045 380.885 488.562C379.764 489.08 378.409 489.338 376.818 489.338C375.293 489.338 373.974 489.096 372.86 488.612C371.747 488.128 370.875 487.442 370.245 486.554C369.616 485.659 369.268 484.598 369.201 483.372H372.284C372.343 484.108 372.582 484.721 373 485.212C373.424 485.696 373.964 486.057 374.62 486.295C375.283 486.527 376.009 486.643 376.798 486.643C377.666 486.643 378.439 486.508 379.115 486.236C379.797 485.957 380.334 485.573 380.725 485.082C381.117 484.585 381.312 484.005 381.312 483.342C381.312 482.739 381.14 482.245 380.795 481.861C380.457 481.476 379.996 481.158 379.413 480.906C378.836 480.654 378.183 480.432 377.454 480.24L375.048 479.584C373.417 479.14 372.125 478.487 371.17 477.625C370.222 476.763 369.748 475.623 369.748 474.205C369.748 473.031 370.066 472.007 370.703 471.132C371.339 470.257 372.201 469.578 373.288 469.094C374.375 468.603 375.601 468.358 376.967 468.358C378.346 468.358 379.562 468.6 380.616 469.084C381.677 469.568 382.512 470.234 383.122 471.082C383.732 471.924 384.05 472.892 384.076 473.986H381.113Z" fill="white"/>
<path d="M76.8295 546.636V567H74.0057L63.6548 552.065H63.4659V567H60.3935V546.636H63.2372L73.598 561.591H73.7869V546.636H76.8295ZM81.3114 567V546.636H94.0785V549.281H84.3839V555.486H93.4123V558.121H84.3839V564.355H94.1978V567H81.3114ZM97.1783 549.281V546.636H112.938V549.281H106.585V567H103.522V549.281H97.1783ZM141.52 556.818C141.52 558.992 141.122 560.862 140.327 562.426C139.531 563.984 138.441 565.184 137.055 566.026C135.677 566.861 134.109 567.278 132.352 567.278C130.589 567.278 129.015 566.861 127.629 566.026C126.25 565.184 125.163 563.981 124.368 562.416C123.572 560.852 123.175 558.986 123.175 556.818C123.175 554.644 123.572 552.778 124.368 551.22C125.163 549.656 126.25 548.456 127.629 547.621C129.015 546.779 130.589 546.358 132.352 546.358C134.109 546.358 135.677 546.779 137.055 547.621C138.441 548.456 139.531 549.656 140.327 551.22C141.122 552.778 141.52 554.644 141.52 556.818ZM138.477 556.818C138.477 555.161 138.209 553.766 137.672 552.632C137.142 551.492 136.412 550.63 135.484 550.047C134.563 549.457 133.519 549.162 132.352 549.162C131.179 549.162 130.132 549.457 129.21 550.047C128.289 550.63 127.56 551.492 127.023 552.632C126.492 553.766 126.227 555.161 126.227 556.818C126.227 558.475 126.492 559.874 127.023 561.014C127.56 562.148 128.289 563.009 129.21 563.599C130.132 564.183 131.179 564.474 132.352 564.474C133.519 564.474 134.563 564.183 135.484 563.599C136.412 563.009 137.142 562.148 137.672 561.014C138.209 559.874 138.477 558.475 138.477 556.818ZM145.35 567V546.636H157.978V549.281H148.423V555.486H157.074V558.121H148.423V567H145.35ZM161.757 567V546.636H174.385V549.281H164.829V555.486H173.48V558.121H164.829V567H161.757ZM178.163 567V546.636H190.93V549.281H181.235V555.486H190.264V558.121H181.235V564.355H191.049V567H178.163ZM195.034 567V546.636H202.293C203.87 546.636 205.179 546.908 206.22 547.452C207.268 547.995 208.05 548.748 208.567 549.709C209.084 550.663 209.342 551.767 209.342 553.02C209.342 554.266 209.08 555.363 208.557 556.311C208.04 557.252 207.258 557.985 206.21 558.509C205.17 559.032 203.86 559.294 202.283 559.294H196.784V556.649H202.004C202.999 556.649 203.807 556.507 204.43 556.222C205.06 555.937 205.521 555.522 205.812 554.979C206.104 554.435 206.25 553.782 206.25 553.02C206.25 552.251 206.101 551.585 205.803 551.021C205.511 550.458 205.05 550.027 204.42 549.729C203.797 549.424 202.979 549.271 201.964 549.271H198.107V567H195.034ZM205.087 557.812L210.118 567H206.618L201.686 557.812H205.087Z" fill="#1C191A"/>
</svg>
